<svg width="37" height="37" viewBox="0 0 37 37" fill="none" xmlns="http://www.w3.org/2000/svg">
<circle cx="18.5" cy="18.5" r="14" stroke="#D9D9D9"/>
<path d="M5.37823 7.82702L5.70525 7.44879L4.94879 6.79475L4.62177 7.17298L5.37823 7.82702ZM1.5 18.5C1.5 14.2433 2.80648 10.8015 5.37823 7.82702L4.62177 7.17298C1.88882 10.3339 0.5 14.0095 0.5 18.5H1.5ZM7.47315 5.56091C10.4419 3.02837 14.2918 1.5 18.5 1.5V0.5C14.0451 0.5 9.96709 2.11901 6.82415 4.80012L7.47315 5.56091ZM18.5 1.5C22.6099 1.5 26.378 2.95781 29.3173 5.38505L29.9541 4.61397C26.8422 2.04422 22.8508 0.5 18.5 0.5V1.5ZM31.1753 7.17112C33.8651 10.1785 35.5 14.1478 35.5 18.5H36.5C36.5 13.8924 34.7681 9.68812 31.9206 6.50446L31.1753 7.17112ZM35.5 18.5C35.5 22.7884 34.6754 25.7194 32.1218 28.673L32.8782 29.327C35.6293 26.1452 36.5 22.9588 36.5 18.5H35.5ZM29.6131 31.365C26.6328 33.9418 22.749 35.5 18.5 35.5V36.5C22.9982 36.5 27.1121 34.8494 30.2671 32.1215L29.6131 31.365ZM5.41198 29.3499C2.96859 26.4058 1.5 22.6251 1.5 18.5H0.5C0.5 22.8668 2.05565 26.8716 4.64248 29.9885L5.41198 29.3499ZM18.5 35.5C14.1072 35.5 10.1045 33.8345 7.0872 31.0997L6.41564 31.8406C9.60972 34.7357 13.8494 36.5 18.5 36.5V35.5Z" fill="#D9D9D9"/>
<path d="M21.8947 12.9558C20.9066 12.3495 19.7441 12 18.5 12C14.9101 12 12 14.9101 12 18.5C12 22.0899 14.9101 25 18.5 25C22.0899 25 25 22.0899 25 18.5C25 17.4045 24.729 16.3722 24.2503 15.4667" stroke="#D9D9D9" stroke-linecap="round"/>
<path d="M4.61589 7.82009C4.79267 8.03223 5.10795 8.06089 5.32009 7.88411C5.53223 7.70733 5.56089 7.39205 5.38411 7.17991L4.61589 7.82009ZM7.14645 5.35355L7.5 5.70711L8.20711 5L7.85355 4.64645L7.14645 5.35355ZM5.38411 7.17991L3.67486 5.12881L2.90664 5.76899L4.61589 7.82009L5.38411 7.17991ZM5.36537 3.57247L7.14645 5.35355L7.85355 4.64645L6.07247 2.86537L5.36537 3.57247ZM4.19358 3.29585C4.60504 3.1587 5.05868 3.26579 5.36537 3.57247L6.07247 2.86537C5.49796 2.29085 4.64815 2.09024 3.87736 2.34717L4.19358 3.29585ZM3.67486 5.12881C3.3481 4.7367 3.3184 4.17378 3.60239 3.74781L2.77033 3.19311C2.24155 3.98628 2.29538 5.03548 2.90664 5.76899L3.67486 5.12881ZM3.60239 3.74781C3.7438 3.53568 3.95231 3.37628 4.19358 3.29585L3.87736 2.34717C3.42453 2.49811 3.03476 2.79647 2.77033 3.19311L3.60239 3.74781Z" fill="#D9D9D9"/>
<path d="M29.5 4.5L31.1014 2.89865C31.6239 2.37612 32.4426 2.29505 33.0574 2.70496V2.70496C33.3443 2.89618 33.5592 3.17756 33.6682 3.5046L33.6785 3.53547C33.8755 4.1266 33.7217 4.77832 33.2811 5.21892L31.5 7" stroke="#D9D9D9" stroke-linecap="round"/>
<path d="M32.5 29L34.2093 31.0511C34.6783 31.6139 34.72 32.42 34.3136 33.0295V33.0295C34.1107 33.3339 33.8116 33.5628 33.4645 33.6785V33.6785C32.8734 33.8755 32.2217 33.7217 31.7811 33.2811L30 31.5" stroke="#D9D9D9" stroke-linecap="round"/>
<path d="M7 32L5.39865 33.6014C4.87612 34.1239 4.05742 34.2049 3.44256 33.795V33.795C3.15573 33.6038 2.94081 33.3224 2.8318 32.9954L2.82151 32.9645C2.62447 32.3734 2.77832 31.7217 3.21892 31.2811L5 29.5" stroke="#D9D9D9" stroke-linecap="round"/>
</svg>
