<svg width="42" height="42" viewBox="0 0 42 42" fill="none" xmlns="http://www.w3.org/2000/svg">
<path d="M12.1842 9.44586C20.5562 0.682565 26.5787 0.000556133 39.4431 5.54343" stroke="#D9D9D9" stroke-linecap="round"/>
<path d="M23.0911 28.7271C28.6159 24.8436 28.5496 24.3427 36.0703 25.7052C39.6548 26.5469 40.6055 27.8422 41.0001 27.9166" stroke="#D9D9D9" stroke-linecap="round"/>
<path d="M14.7795 17.9908C15.2305 18.3671 15.8618 18.7009 16.5047 18.9834C18.38 19.8075 19.8699 21.7916 20.1823 24.3134C20.2443 24.8143 20.2592 25.3226 20.2267 25.8263L20.1918 26.3653C20.1296 27.328 19.8779 28.2468 19.4624 29.0277C19.0345 29.8317 18.4491 30.4591 17.7696 30.8421L17.3985 31.0512C16.0439 31.8146 14.5088 31.8095 13.1376 31.0371L12.8996 30.9031C11.9336 30.3589 11.1132 29.425 10.5534 28.2322C10.4145 27.9361 10.2927 27.6264 10.1891 27.3058L9.69942 25.7903C9.47428 25.0934 9.15289 24.4585 8.75255 23.9198C8.37577 23.4128 7.93539 22.9994 7.45243 22.6994L6.55825 22.144C5.99008 21.7912 5.49089 21.2615 5.1026 20.5997C4.63462 19.8019 4.34592 18.8432 4.27129 17.839L4.25669 17.6425C4.22517 17.2183 4.22788 16.7916 4.26475 16.3698L4.32354 15.6973C4.36631 15.2081 4.47514 14.735 4.64471 14.3011C4.98901 13.4201 5.42618 12.6483 5.99416 12.1044C6.37919 11.7357 6.84812 11.3353 7.33508 11.0298C7.82754 10.7209 8.30639 10.5296 8.71934 10.5328C9.44078 10.5383 10.0124 10.698 10.5171 11.0157C11.0234 11.3344 11.489 11.8289 11.9814 12.5551C12.3074 13.0359 12.5742 13.7665 12.7768 14.4574C12.876 14.7953 12.9557 15.1092 13.0176 15.3595C13.028 15.4014 13.0381 15.4426 13.0478 15.4821C13.0664 15.5574 13.0834 15.6268 13.098 15.6843C13.1171 15.7595 13.1432 15.8612 13.1708 15.9356C13.1672 15.9259 13.2451 16.2769 13.4634 16.6216C13.6818 16.9666 14.065 17.3945 14.7795 17.9908Z" stroke="#D9D9D9"/>
<path d="M4.08028 18L3.84879 21.5055C3.82119 21.9235 3.82297 22.3446 3.85409 22.7635L3.87388 23.0298C3.95661 24.1431 4.27666 25.206 4.79546 26.0903V26.0903C5.22591 26.8241 5.77931 27.4112 6.40917 27.8024L7.30334 28.3578C7.74009 28.629 8.13832 29.0028 8.47904 29.4613V29.4613C8.84107 29.9485 9.1317 30.5227 9.3353 31.1528L9.82496 32.6684C9.9373 33.0161 10.0694 33.352 10.2201 33.6731V33.6731C10.8272 34.9667 11.717 35.9796 12.7647 36.5698L13.0027 36.7039C14.4788 37.5354 16.1315 37.5409 17.5897 36.719L17.9609 36.5099C18.711 36.0871 19.3572 35.3945 19.8295 34.5069V34.5069C20.2882 33.645 20.5661 32.6307 20.6348 31.5679L20.6788 30.8874C20.7084 30.4291 20.7104 29.9678 20.6847 29.5078L20.489 26" stroke="#D9D9D9" stroke-linecap="round"/>
<path d="M21.8391 8.81822L25.0309 8.53307C25.4114 8.49908 25.6334 8.91655 25.4253 9.27493L23.4846 12.6179L26.442 13.0159C26.8249 13.0674 26.9454 13.5613 26.6503 13.8691L23.4846 17.1707L27.0839 17.9078C27.4509 17.983 27.5486 18.4676 27.2563 18.7628L23.9657 22.0865" stroke="#D9D9D9" stroke-linecap="round"/>
<path d="M32.6682 7.54476L35.6022 9.25117C35.9512 9.45419 36.0046 9.96749 35.6966 10.1593L32.8427 11.9363L35.3332 14.1031C35.6562 14.3841 35.5942 14.9042 35.2267 14.9968L31.2977 15.9867L34.2442 18.849C34.5454 19.1416 34.4664 19.6395 34.1056 19.7226L30.0576 20.6556" stroke="#D9D9D9" stroke-linecap="round"/>
</svg>
