<svg width="25" height="41" viewBox="0 0 25 41" fill="none" xmlns="http://www.w3.org/2000/svg">
<rect x="0.5" y="4.5" width="14" height="19" rx="0.5" stroke="#D9D9D9"/>
<rect x="3.5" y="23.5" width="8" height="3" rx="0.5" stroke="#D9D9D9"/>
<rect x="2.5" y="4.5" width="4" height="3" rx="0.5" transform="rotate(-90 2.5 4.5)" stroke="#D9D9D9"/>
<rect x="9.5" y="4.5" width="4" height="3" rx="0.5" transform="rotate(-90 9.5 4.5)" stroke="#D9D9D9"/>
<line x1="11.5" y1="7.5" x2="14.5" y2="7.5" stroke="#D9D9D9" stroke-linecap="round"/>
<line x1="9.5" y1="9.5" x2="14.5" y2="9.5" stroke="#D9D9D9" stroke-linecap="round"/>
<line x1="3.5" y1="20.5" x2="0.5" y2="20.5" stroke="#D9D9D9" stroke-linecap="round"/>
<line x1="5.5" y1="18.5" x2="0.5" y2="18.5" stroke="#D9D9D9" stroke-linecap="round"/>
<line x1="19" y1="39.5" x2="23" y2="39.5" stroke="#D9D9D9"/>
<path d="M18.5062 39.579C18.5499 39.8517 18.8063 40.0374 19.079 39.9937C19.3516 39.9501 19.5373 39.6936 19.4937 39.421L18.5062 39.579ZM17.4617 35.9237L17.8082 35.5632L17.4617 35.9237ZM17.1151 36.2841C17.8834 37.0228 18.2624 38.0559 18.5062 39.579L19.4937 39.421C19.2392 37.8313 18.8147 36.5309 17.8082 35.5632L17.1151 36.2841ZM4.85058 26.7341C5.02319 27.5756 5.2184 28.2882 5.49504 28.9687L6.42142 28.5922C6.17552 27.9872 5.99537 27.3384 5.83018 26.5331L4.85058 26.7341ZM5.49504 28.9687C6.49351 31.4249 8.4845 33.7021 11.0999 34.5075L11.3942 33.5518C9.1422 32.8583 7.34085 30.8539 6.42142 28.5922L5.49504 28.9687ZM17.8082 35.5632C16.9012 34.6912 15.7548 34.3588 14.6397 34.1539C14.0885 34.0526 13.5007 33.9758 12.9644 33.8908C12.4143 33.8037 11.8889 33.7041 11.3942 33.5518L11.0999 34.5075C11.663 34.6809 12.2439 34.7892 12.808 34.8785C13.3859 34.9701 13.9203 35.0384 14.4589 35.1374C15.5232 35.333 16.4263 35.6218 17.1151 36.2841L17.8082 35.5632Z" fill="#D9D9D9"/>
<path d="M22.5063 39.579C22.5499 39.8516 22.8064 40.0373 23.079 39.9937C23.3517 39.95 23.5374 39.6936 23.4937 39.4209L22.5063 39.579ZM19.3419 33.1567L19.6818 32.79L19.3419 33.1567ZM13.2164 31.0201L13.0668 31.4971L13.2164 31.0201ZM19.002 33.5234C20.8355 35.2226 22.2277 37.8385 22.5063 39.579L23.4937 39.4209C23.1749 37.4287 21.6546 34.6183 19.6818 32.79L19.002 33.5234ZM11.9816 31.0465C12.3433 31.2356 12.6988 31.3817 13.0668 31.4971L13.366 30.543C13.0545 30.4453 12.7539 30.3219 12.445 30.1603L11.9816 31.0465ZM8.85065 26.734C9.24261 28.6449 10.2151 30.1229 11.9816 31.0465L12.445 30.1603C10.9815 29.3952 10.1707 28.1927 9.83026 26.5331L8.85065 26.734ZM19.6818 32.79C18.777 31.9515 17.6751 31.5574 16.5825 31.2871C16.0383 31.1525 15.4745 31.0439 14.9383 30.9322C14.3948 30.819 13.8694 30.7008 13.366 30.543L13.0668 31.4971C13.6196 31.6705 14.1851 31.7968 14.7344 31.9112C15.2911 32.0272 15.8222 32.1292 16.3424 32.2578C17.3785 32.5141 18.2831 32.8571 19.002 33.5234L19.6818 32.79Z" fill="#D9D9D9"/>
</svg>
