<svg width="37" height="37" viewBox="0 0 37 37" fill="none" xmlns="http://www.w3.org/2000/svg">
<path d="M21.0902 27.7664C20.5044 27.1806 20.5044 26.2309 21.0902 25.6451L24.7224 22.0128C25.3082 21.427 26.258 21.427 26.8437 22.0128L34.2703 29.4393C34.856 30.0251 34.856 30.9749 34.2703 31.5607L30.638 35.1929C30.0522 35.7787 29.1025 35.7787 28.5167 35.1929L21.0902 27.7664Z" stroke="#D9D9D9"/>
<path d="M25.75 24.5L31.75 30.5" stroke="#D9D9D9" stroke-linecap="round"/>
<path d="M23.75 26.5L29.75 32.5" stroke="#D9D9D9" stroke-linecap="round"/>
<path d="M2.62991 5.90289C2.49453 5.70435 2.51953 5.43757 2.68946 5.26765L4.47511 3.482C4.65432 3.30279 4.93926 3.28601 5.13827 3.44294L9.01848 6.50276C9.06857 6.54226 9.11063 6.59097 9.14241 6.64628L11.6821 11.0666C11.7469 11.1794 11.8262 11.2833 11.9178 11.3757L23.5715 23.1228L22.1422 24.5522L10.6275 13.1694C10.5469 13.0898 10.4575 13.0195 10.3611 12.96L5.40904 9.90171C5.34939 9.86487 5.29816 9.8159 5.25866 9.75798L2.62991 5.90289Z" stroke="#D9D9D9"/>
<path d="M14.5 29.5C14.5 33.366 11.366 36.5 7.5 36.5C6.77197 36.5 6.07057 36.389 5.41137 36.1832L9.12827 32.5432C10.2757 31.4195 10.6181 29.5126 9.44834 28.2228C9.21611 27.9667 8.97667 27.7303 8.72178 27.504C7.45459 26.3789 5.59821 26.6669 4.45797 27.7498L0.730706 31.2895C0.58023 30.7187 0.5 30.119 0.5 29.5C0.5 25.634 3.63401 22.5 7.5 22.5C11.366 22.5 14.5 25.634 14.5 29.5Z" stroke="#D9D9D9"/>
<path d="M22.5 7.5C22.5 3.63401 25.634 0.499999 29.5 0.499999C30.228 0.499999 30.9294 0.61098 31.5886 0.816759L27.8717 4.4568C26.7243 5.5805 26.3819 7.48739 27.5517 8.77721C27.7839 9.03328 28.0233 9.26965 28.2782 9.49597C29.5454 10.6211 31.4018 10.3331 32.542 9.25024L36.2693 5.71045C36.4198 6.28129 36.5 6.88099 36.5 7.5C36.5 11.366 33.366 14.5 29.5 14.5C25.634 14.5 22.5 11.366 22.5 7.5Z" stroke="#D9D9D9"/>
<path d="M14.3536 19.3536C14.5488 19.1583 14.5488 18.8417 14.3536 18.6464C14.1583 18.4512 13.8417 18.4512 13.6464 18.6464L14.3536 19.3536ZM10.3536 23.3536L14.3536 19.3536L13.6464 18.6464L9.64645 22.6464L10.3536 23.3536Z" fill="#D9D9D9"/>
<path d="M18.3536 23.3536C18.5488 23.1583 18.5488 22.8417 18.3536 22.6464C18.1583 22.4512 17.8417 22.4512 17.6464 22.6464L18.3536 23.3536ZM14.3536 27.3536L18.3536 23.3536L17.6464 22.6464L13.6464 26.6464L14.3536 27.3536Z" fill="#D9D9D9"/>
<path d="M21.6464 18.6464C21.4512 18.8417 21.4512 19.1583 21.6464 19.3536C21.8417 19.5488 22.1583 19.5488 22.3536 19.3536L21.6464 18.6464ZM26.6464 13.6464L21.6464 18.6464L22.3536 19.3536L27.3536 14.3536L26.6464 13.6464Z" fill="#D9D9D9"/>
<path d="M17.6464 14.6464C17.4512 14.8417 17.4512 15.1583 17.6464 15.3536C17.8417 15.5488 18.1583 15.5488 18.3536 15.3536L17.6464 14.6464ZM22.6464 9.64645L17.6464 14.6464L18.3536 15.3536L23.3536 10.3536L22.6464 9.64645Z" fill="#D9D9D9"/>
</svg>
