<svg width="41" height="36" viewBox="0 0 41 36" fill="none" xmlns="http://www.w3.org/2000/svg">
<path d="M1.07224 2.72853C0.860938 1.70219 1.74033 0.780983 2.77537 0.944411L36.6447 6.2922C37.2277 6.38425 37.7026 6.8097 37.8579 7.37916L39.8286 14.6053C40.0889 15.5595 39.3706 16.5 38.3815 16.5H5.13018C4.41835 16.5 3.80454 15.9997 3.661 15.3025L1.07224 2.72853Z" stroke="#D9D9D9"/>
<path d="M14.374 11.0791C14.374 12.1837 13.4786 13.0791 12.374 13.0791C11.2695 13.0791 10.374 12.1837 10.374 11.0791C10.374 9.97453 11.2695 9.0791 12.374 9.0791C13.4786 9.0791 14.374 9.97453 14.374 11.0791Z" stroke="#D9D9D9"/>
<path d="M27.4937 11.8257C27.4937 12.9303 26.5982 13.8257 25.4937 13.8257C24.3891 13.8257 23.4937 12.9303 23.4937 11.8257C23.4937 10.7211 24.3891 9.82568 25.4937 9.82568C26.5982 9.82568 27.4937 10.7211 27.4937 11.8257Z" stroke="#D9D9D9"/>
<path d="M13.7033 17.0883C13.6483 16.7817 13.884 16.5 14.1955 16.5H27.4108C27.5926 16.5 27.7601 16.5987 27.8482 16.7577L37.5431 34.2577C37.7277 34.591 37.4867 35 37.1057 35H17.3365C17.0944 35 16.8871 34.8266 16.8444 34.5883L13.7033 17.0883Z" stroke="#D9D9D9"/>
<path d="M26.9146 21.724C27.1348 21.4059 27.6175 21.4477 27.7797 21.7991L32.3911 31.7905C32.544 32.1218 32.302 32.5 31.9371 32.5H20.4086C20.0052 32.5 19.7679 32.047 19.9975 31.7154L26.9146 21.724L26.5035 21.4394L26.9146 21.724Z" stroke="#D9D9D9"/>
<path d="M19.4702 26.8159C19.2115 27.1716 18.6526 27.044 18.5739 26.6113L17.2063 19.0894C17.1505 18.7825 17.3863 18.5 17.6982 18.5L24.5362 18.5C24.9449 18.5 25.181 18.9636 24.9406 19.2941L19.4702 26.8159Z" stroke="#D9D9D9"/>
</svg>
