<svg width="28" height="28" viewBox="0 0 28 28" fill="none" xmlns="http://www.w3.org/2000/svg">
<path d="M12.884 16.896C12.884 16.3533 12.972 15.8767 13.148 15.466C13.324 15.0553 13.5513 14.6887 13.83 14.366C14.1087 14.0433 14.402 13.7427 14.71 13.464C15.0327 13.1853 15.3333 12.914 15.612 12.65C15.8907 12.386 16.118 12.1073 16.294 11.814C16.47 11.5207 16.558 11.1907 16.558 10.824C16.558 10.208 16.3087 9.70933 15.81 9.328C15.3113 8.94667 14.644 8.756 13.808 8.756C13.0013 8.756 12.2973 8.90267 11.696 9.196C11.1093 9.48933 10.618 9.90733 10.222 10.45L8.088 9.064C8.704 8.228 9.51067 7.57533 10.508 7.106C11.5053 6.622 12.686 6.38 14.05 6.38C15.1207 6.38 16.0593 6.54133 16.866 6.864C17.6727 7.172 18.3033 7.62667 18.758 8.228C19.2127 8.81467 19.44 9.53333 19.44 10.384C19.44 10.9707 19.3447 11.484 19.154 11.924C18.978 12.364 18.7433 12.7527 18.45 13.09C18.1713 13.4127 17.8707 13.7207 17.548 14.014C17.2253 14.2927 16.9173 14.5713 16.624 14.85C16.3453 15.1287 16.118 15.4293 15.942 15.752C15.766 16.0747 15.678 16.456 15.678 16.896H12.884ZM14.292 22.154C13.7787 22.154 13.3533 21.9853 13.016 21.648C12.6933 21.3107 12.532 20.9073 12.532 20.438C12.532 19.9687 12.6933 19.5727 13.016 19.25C13.3533 18.9127 13.7787 18.744 14.292 18.744C14.8053 18.744 15.2233 18.9127 15.546 19.25C15.8687 19.5727 16.03 19.9687 16.03 20.438C16.03 20.9073 15.8687 21.3107 15.546 21.648C15.2233 21.9853 14.8053 22.154 14.292 22.154Z" fill="#D9D9D9"/>
<circle cx="14" cy="14" r="13" stroke="#D9D9D9" stroke-width="2"/>
</svg>
