<svg width="28" height="28" viewBox="0 0 28 28" fill="none" xmlns="http://www.w3.org/2000/svg">
<rect x="5" y="5" width="3" height="3" rx="1" fill="#D9D9D9"/>
<path d="M5 1H10C11.1046 1 12 1.89543 12 3V8C12 10.2091 10.2091 12 8 12H3C1.89543 12 1 11.1046 1 10V5C1 2.79086 2.79086 1 5 1Z" stroke="#D9D9D9" stroke-width="2" stroke-linejoin="round"/>
<rect x="5" y="23" width="3" height="3" rx="1" transform="rotate(-90 5 23)" fill="#D9D9D9"/>
<path d="M1 20V18.1514C1 17.7267 1.12572 17.3114 1.36132 16.958V16.958C1.76033 16.3595 2.43206 16 3.15139 16H8.14922C9.31902 16 10.4254 16.5318 11.1562 17.4452V17.4452C11.7024 18.128 12 18.9764 12 19.8508V24.8486C12 25.5679 11.6405 26.2397 11.042 26.6387V26.6387C10.6886 26.8743 10.2733 27 9.84861 27H4.97214C3.45705 27 2.072 26.144 1.39443 24.7889L1 24" stroke="#D9D9D9" stroke-width="2" stroke-linecap="round"/>
<rect x="23" y="5" width="3" height="3" rx="1" transform="rotate(90 23 5)" fill="#D9D9D9"/>
<path d="M27 8L27 9.84861C27 10.2734 26.8743 10.6886 26.6387 11.042V11.042C26.2397 11.6405 25.5679 12 24.8486 12L19.8508 12C18.681 12 17.5746 11.4682 16.8438 10.5548V10.5548C16.2976 9.87199 16 9.02362 16 8.14922L16 3.15139C16 2.43206 16.3595 1.76033 16.958 1.36133V1.36133C17.3114 1.12572 17.7267 1 18.1514 1L23.0279 1C24.543 1 25.928 1.85601 26.6056 3.21115L27 4" stroke="#D9D9D9" stroke-width="2" stroke-linecap="round"/>
<rect x="23" y="23" width="3" height="3" rx="1" transform="rotate(-180 23 23)" fill="#D9D9D9"/>
<path d="M21 27L22.8921 27C23.617 27 24.3284 26.803 24.95 26.43L24.9827 26.4104C25.9491 25.8306 26.626 24.87 26.847 23.7649L27 23M27 16L27 17.5L27 19.5M16 27L16 26L16 23.5M16 20L16 19.8508C16 18.681 16.5318 17.5746 17.4452 16.8438V16.8438C18.128 16.2976 18.9764 16 19.8508 16L22.25 16" stroke="#D9D9D9" stroke-width="2" stroke-linecap="round"/>
</svg>
