<svg width="27" height="27" viewBox="0 0 27 27" fill="none" xmlns="http://www.w3.org/2000/svg">
<path d="M17 13.5C17 15.433 15.433 17 13.5 17C11.567 17 10 15.433 10 13.5C10 11.567 11.567 10 13.5 10C15.433 10 17 11.567 17 13.5Z" stroke="#D9D9D9" stroke-width="2"/>
<path d="M14.9724 1H12.2878C11.5035 1 10.7916 1.45841 10.4671 2.17239L9.45268 4.4041C8.95913 5.4899 7.59712 5.85509 6.62657 5.16184C5.74267 4.53048 4.51001 4.76999 3.92684 5.68639L2.19945 8.40086C1.77428 9.06899 1.78338 9.92508 2.22267 10.584L3.51695 12.5254C4.07803 13.367 3.92242 14.4951 3.15443 15.1533L2.28239 15.9008C1.54184 16.5356 1.36717 17.6119 1.86899 18.4483L3.35413 20.9236C3.74904 21.5817 4.48578 21.9558 5.25019 21.8863L7.74815 21.6593C8.74988 21.5682 9.66339 22.2353 9.8816 23.2172L10.152 24.4339C10.3553 25.3489 11.1669 26 12.1043 26H15.0585C15.9193 26 16.6836 25.4491 16.9558 24.6325L17.4944 23.0167C17.7901 22.1298 18.6606 21.5661 19.5908 21.6591L21.7384 21.8738C22.5086 21.9509 23.2541 21.5765 23.6523 20.9128L25.131 18.4483C25.6328 17.6119 25.4582 16.5356 24.7176 15.9008L23.8456 15.1533C23.0776 14.4951 22.922 13.367 23.483 12.5254L24.7979 10.5531C25.2267 9.91001 25.2465 9.07745 24.8488 8.4147L23.4104 6.01726C22.8906 5.15094 21.8063 4.80831 20.8831 5.21863L20.1288 5.55385C19.0092 6.05146 17.7094 5.43451 17.387 4.25246L16.9019 2.47377C16.6646 1.60364 15.8743 1 14.9724 1Z" stroke="#D9D9D9" stroke-width="2"/>
</svg>
