<svg width="36" height="37" viewBox="0 0 36 37" fill="none" xmlns="http://www.w3.org/2000/svg">
<path d="M12.6 26.2083L18 20.6583L23.4 26.2083L25.5 24.05L20.1 18.5L25.5 12.95L23.4 10.7917L18 16.3417L12.6 10.7917L10.5 12.95L15.9 18.5L10.5 24.05L12.6 26.2083ZM18 33.9167C15.925 33.9167 13.975 33.512 12.15 32.7026C10.325 31.8932 8.7375 30.7948 7.3875 29.4073C6.0375 28.0198 4.96875 26.3882 4.18125 24.5125C3.39375 22.6368 3 20.6326 3 18.5C3 16.3674 3.39375 14.3632 4.18125 12.4875C4.96875 10.6118 6.0375 8.98022 7.3875 7.59272C8.7375 6.20522 10.325 5.10678 12.15 4.29741C13.975 3.48803 15.925 3.08334 18 3.08334C20.075 3.08334 22.025 3.48803 23.85 4.29741C25.675 5.10678 27.2625 6.20522 28.6125 7.59272C29.9625 8.98022 31.0312 10.6118 31.8187 12.4875C32.6062 14.3632 33 16.3674 33 18.5C33 20.6326 32.6062 22.6368 31.8187 24.5125C31.0312 26.3882 29.9625 28.0198 28.6125 29.4073C27.2625 30.7948 25.675 31.8932 23.85 32.7026C22.025 33.512 20.075 33.9167 18 33.9167ZM18 30.8333C21.35 30.8333 24.1875 29.6386 26.5125 27.249C28.8375 24.8594 30 21.9431 30 18.5C30 15.057 28.8375 12.1406 26.5125 9.75105C24.1875 7.36147 21.35 6.16668 18 6.16668C14.65 6.16668 11.8125 7.36147 9.4875 9.75105C7.1625 12.1406 6 15.057 6 18.5C6 21.9431 7.1625 24.8594 9.4875 27.249C11.8125 29.6386 14.65 30.8333 18 30.8333Z" fill="#1D1B20"/>
</svg>
