<svg width="32" height="32" viewBox="0 0 32 32" fill="none" xmlns="http://www.w3.org/2000/svg">
<g clip-path="url(#clip0_1554_17)">
<path d="M29.3333 14.7733V16C29.3317 18.8752 28.4006 21.6729 26.6791 23.9758C24.9575 26.2786 22.5377 27.9633 19.7804 28.7785C17.0232 29.5938 14.0763 29.4959 11.3793 28.4994C8.6822 27.503 6.3795 25.6615 4.81457 23.2494C3.24965 20.8374 2.50635 17.9841 2.69553 15.1151C2.88471 12.2461 3.99624 9.51509 5.86433 7.32942C7.73243 5.14375 10.257 3.6205 13.0615 2.98685C15.8661 2.35321 18.8003 2.64311 21.4266 3.81333M29.3333 5.33333L16 18.68L12 14.68" stroke="#1E1E1E" stroke-width="4" stroke-linecap="round" stroke-linejoin="round"/>
</g>
<defs>
<clipPath id="clip0_1554_17">
<rect width="32" height="32" fill="white"/>
</clipPath>
</defs>
</svg>
