<svg width="36" height="37" viewBox="0 0 36 37" fill="none" xmlns="http://www.w3.org/2000/svg">
<path d="M18 26.2083C18.425 26.2083 18.7813 26.0606 19.0688 25.7651C19.3563 25.4696 19.5 25.1035 19.5 24.6667C19.5 24.2299 19.3563 23.8637 19.0688 23.5682C18.7813 23.2728 18.425 23.125 18 23.125C17.575 23.125 17.2188 23.2728 16.9313 23.5682C16.6438 23.8637 16.5 24.2299 16.5 24.6667C16.5 25.1035 16.6438 25.4696 16.9313 25.7651C17.2188 26.0606 17.575 26.2083 18 26.2083ZM16.5 20.0417H19.5V10.7917H16.5V20.0417ZM18 33.9167C15.925 33.9167 13.975 33.512 12.15 32.7026C10.325 31.8932 8.7375 30.7948 7.3875 29.4073C6.0375 28.0198 4.96875 26.3882 4.18125 24.5125C3.39375 22.6368 3 20.6326 3 18.5C3 16.3674 3.39375 14.3632 4.18125 12.4875C4.96875 10.6118 6.0375 8.98022 7.3875 7.59272C8.7375 6.20522 10.325 5.10678 12.15 4.29741C13.975 3.48803 15.925 3.08334 18 3.08334C20.075 3.08334 22.025 3.48803 23.85 4.29741C25.675 5.10678 27.2625 6.20522 28.6125 7.59272C29.9625 8.98022 31.0312 10.6118 31.8187 12.4875C32.6062 14.3632 33 16.3674 33 18.5C33 20.6326 32.6062 22.6368 31.8187 24.5125C31.0312 26.3882 29.9625 28.0198 28.6125 29.4073C27.2625 30.7948 25.675 31.8932 23.85 32.7026C22.025 33.512 20.075 33.9167 18 33.9167Z" fill="#1D1B20"/>
</svg>
