<svg width="750" height="422" viewBox="0 0 750 422" fill="none" xmlns="http://www.w3.org/2000/svg">
<rect y="3.05176e-05" width="750" height="422" fill="url(#paint0_linear_1646_108)"/>
<path d="M0 6.10352e-05H205L48.5 263.5L0 222.5V6.10352e-05Z" fill="black" fill-opacity="0.1"/>
<path d="M1.1804e-05 422L2.36709e-06 223.5L157 357L84.5 422L1.1804e-05 422Z" fill="black" fill-opacity="0.1"/>
<path d="M236 422L553.5 224L623.5 422L511.5 421.5L236 422Z" fill="black" fill-opacity="0.1"/>
<path d="M135.5 120L552.5 223L236 421L135.5 120Z" fill="black" fill-opacity="0.1"/>
<path d="M49.5 264.5L134.5 121L234.5 421L49.5 264.5Z" fill="black" fill-opacity="0.1"/>
<path d="M86.5 422L158 358L234 422H86.5Z" fill="black" fill-opacity="0.1"/>
<path d="M279 0.000152588L749 6.10352e-05L553.5 222L279 0.000152588Z" fill="black" fill-opacity="0.1"/>
<path d="M750 1.00003L750 361L554.5 223L750 1.00003Z" fill="black" fill-opacity="0.1"/>
<path d="M750 422L625.5 422L555 225L750 363.5L750 422Z" fill="black" fill-opacity="0.1"/>
<path d="M207 0H277L551 221.5L135.5 119L207 0Z" fill="black" fill-opacity="0.1"/>
<defs>
<linearGradient id="paint0_linear_1646_108" x1="750" y1="5.03799e-05" x2="-3.13497e-05" y2="422" gradientUnits="userSpaceOnUse">
<stop stop-color="#EAEAEA"/>
<stop offset="1" stop-color="#B8B8B8"/>
</linearGradient>
</defs>
</svg>
