<svg width="206" height="698" viewBox="0 0 206 698" fill="none" xmlns="http://www.w3.org/2000/svg">
<path d="M26.74 394.004C26.7663 394.034 26.7921 394.064 26.8173 394.095L45.3173 416.595C45.3785 416.669 45.4362 416.747 45.49 416.827C45.5039 416.847 45.5176 416.868 45.531 416.889L50.5961 424.849C52.0596 427.149 53.1206 429.681 53.7336 432.337L53.8854 432.995C54.2938 434.765 54.5 436.575 54.5 438.392V442.262C54.5 443.584 54.3908 444.904 54.1734 446.208L51.9592 459.493C51.9475 459.563 51.9333 459.633 51.9167 459.702L45.4447 486.586L44.2203 494.34C44.0737 495.269 44 496.208 44 497.148V521.369C44 522.867 44.1869 524.358 44.5562 525.809L50.4147 548.825C50.6956 549.928 51.0804 551.002 51.5642 552.033L62.1425 574.569L78.9735 601.796L91.8504 618.635L110.272 641.039L134.156 667.412L161.333 693.652C161.897 694.196 162.65 694.5 163.433 694.5C164.106 694.5 164.759 694.276 165.29 693.863L172.53 688.232C175.125 686.213 177.118 683.523 178.292 680.452L182.698 668.929L182.699 668.925L200.689 622.056C201.264 620.559 201.636 618.992 201.795 617.397L202.5 610.35V599.987C202.5 598.289 202.26 596.599 201.786 594.968L198.155 582.46L187.201 554.08L187.191 554.053C187.185 554.038 187.18 554.024 187.175 554.009L180.097 534.192C177.958 528.203 178.284 521.611 181.001 515.862L187.63 501.841C189.116 498.696 189.659 495.183 189.195 491.733C181.888 437.417 176 390.14 176 360.5C176 318.016 180.273 274.635 189.239 213.895C189.683 210.893 189.368 207.826 188.32 204.986L180.716 184.391C178.843 179.32 178.738 173.764 180.416 168.626L201.61 103.746C202.2 101.942 202.5 100.055 202.5 98.1569V84.2048C202.5 82.384 202.224 80.5738 201.681 78.8359L192.675 50.0187L178.87 16.3673C177.665 13.4317 175.706 10.8667 173.191 8.93207L166.313 3.64099C165.773 3.22535 165.11 3 164.428 3C163.637 3 162.876 3.30344 162.302 3.84783L125.661 38.5855L91.8512 76.8698L72.0456 104.598L58.3688 129.593C57.9482 130.362 57.5843 131.16 57.28 131.982L48.816 154.835C48.2457 156.374 47.8887 157.985 47.7551 159.622L46 181.122V217.358C46 218.295 46.0731 219.23 46.2186 220.155L52.2561 258.537C52.7889 261.924 52.5898 265.386 51.6721 268.689L51.3708 269.774C50.6295 272.443 49.4319 274.963 47.831 277.223L42.3767 284.923C41.6702 285.92 40.8885 286.862 40.0386 287.741L26.1558 302.086C26.1062 302.137 26.0548 302.187 26.0017 302.234L8.98953 317.475C5.17804 320.889 3 325.764 3 330.882V360.502C3 364.918 4.62294 369.179 7.56012 372.476L26.74 394.004Z" fill="#FD0000" stroke="black" stroke-width="6"/>
<path d="M200.947 87.2231L147.15 91.9757C145.432 92.1274 143.88 92.9807 142.875 94.3822C66.6604 200.732 41.1787 427.046 141.183 605.741C141.348 606.035 141.651 606.228 141.988 606.251L200.948 610.223" stroke="black" stroke-width="3"/>
<path d="M155.447 276.223C152.525 335.254 152.523 368.097 155.447 426.223" stroke="black" stroke-width="3"/>
<circle cx="65" cy="65" r="62.5" transform="matrix(-1 0 0 1 196.948 154.223)" fill="#FD0000" stroke="black" stroke-width="5"/>
<circle cx="65" cy="65" r="62.5" transform="matrix(-1 0 0 1 196.948 419.223)" fill="#FD0000" stroke="black" stroke-width="5"/>
<path d="M53.4475 351.723C53.4475 383.223 78.7633 408.723 109.948 408.723C141.132 408.723 166.448 383.223 166.448 351.723C166.448 320.223 141.132 294.723 109.948 294.723C78.7633 294.723 53.4475 320.223 53.4475 351.723Z" fill="#FD0000" stroke="black" stroke-width="5"/>
<path d="M185.5 219.5C184.5 187 163 164 129.5 165.5" stroke="#F5F5F5" stroke-width="6" stroke-linecap="round"/>
<path d="M120.5 166.5C113.499 167 110 168.5 105 172.5" stroke="#F5F5F5" stroke-width="6" stroke-linecap="round"/>
<path d="M184.452 484.872C183.452 452.372 161.952 429.372 128.452 430.872" stroke="#F5F5F5" stroke-width="6" stroke-linecap="round"/>
<path d="M119.452 431.872C112.452 432.372 108.952 433.872 103.953 437.872" stroke="#F5F5F5" stroke-width="6" stroke-linecap="round"/>
<path d="M159.115 353.5C158.181 323.141 138.097 301.656 106.804 303.057" stroke="#F5F5F5" stroke-width="6" stroke-linecap="round"/>
<path d="M98.3967 303.991C91.8571 304.458 88.5883 305.859 83.9178 309.596" stroke="#F5F5F5" stroke-width="6" stroke-linecap="round"/>
<path d="M177.525 33.6548L193 79.5" stroke="#F5F5F5" stroke-width="6" stroke-linecap="round"/>
<path d="M54 200.5L55 219.5" stroke="#F5F5F5" stroke-width="6" stroke-linecap="round"/>
<path d="M59 276.5L50 289.5" stroke="#F5F5F5" stroke-width="6" stroke-linecap="round"/>
<path d="M43 297.5L13 326.5" stroke="#F5F5F5" stroke-width="6" stroke-linecap="round"/>
<path d="M13 326.5L13 346.5" stroke="#F5F5F5" stroke-width="6" stroke-linecap="round"/>
<path d="M62 446.5L59 463.5" stroke="#F5F5F5" stroke-width="6" stroke-linecap="round"/>
<path d="M122.21 642.5L133 654.057" stroke="#F5F5F5" stroke-width="6" stroke-linecap="round"/>
<path d="M154 21.5C123.408 51.3455 107.158 69.1702 81.5001 105C61.1684 138.701 54.5 156.5 53.4716 189.884" stroke="#F5F5F5" stroke-width="6" stroke-linecap="round"/>
<path d="M115.5 635C92.3926 607.76 72.8481 576.5 62.4999 555C48.233 525.359 51.2355 496 56.5 473.5" stroke="#F5F5F5" stroke-width="6" stroke-linecap="round"/>
<path d="M170 16.5L174 24.5" stroke="#F5F5F5" stroke-width="6" stroke-linecap="round"/>
<path d="M165 12.5L170 16.5" stroke="#F5F5F5" stroke-width="6" stroke-linecap="round"/>
</svg>
