<svg width="725" height="725" viewBox="0 0 725 725" fill="none" xmlns="http://www.w3.org/2000/svg">
<circle cx="362.5" cy="362.5" r="285.5" stroke="#B8B8B8" stroke-width="154"/>
<circle cx="363" cy="363" r="144" stroke="#555555" stroke-width="132"/>
<circle cx="363" cy="363" r="205.5" stroke="black" stroke-width="9"/>
<circle cx="363" cy="363" r="75.5" stroke="black" stroke-width="9"/>
<circle cx="76.5" cy="216.5" r="8.5" fill="black"/>
<circle cx="120.5" cy="222.5" r="8.5" fill="black"/>
<circle cx="164.5" cy="228.5" r="8.5" fill="black"/>
<circle cx="188.036" cy="91.8604" r="8.5" transform="rotate(30.5235 188.036 91.8604)" fill="black"/>
<circle cx="222.891" cy="119.376" r="8.5" transform="rotate(30.5235 222.891 119.376)" fill="black"/>
<circle cx="257.746" cy="146.892" r="8.5" transform="rotate(30.5235 257.746 146.892)" fill="black"/>
<circle cx="93.2485" cy="538.976" r="8.5" transform="rotate(-60.5977 93.2485 538.976)" fill="black"/>
<circle cx="120.077" cy="503.589" r="8.5" transform="rotate(-60.5977 120.077 503.589)" fill="black"/>
<circle cx="146.905" cy="468.203" r="8.5" transform="rotate(-60.5977 146.905 468.203)" fill="black"/>
<circle cx="216.855" cy="650.61" r="8.5" transform="rotate(-89.6435 216.855 650.61)" fill="black"/>
<circle cx="223.129" cy="606.648" r="8.5" transform="rotate(-89.6435 223.129 606.648)" fill="black"/>
<circle cx="229.403" cy="562.687" r="8.5" transform="rotate(-89.6435 229.403 562.687)" fill="black"/>
<circle cx="540.057" cy="633.548" r="8.5" transform="rotate(-150.264 540.057 633.548)" fill="black"/>
<circle cx="504.826" cy="606.515" r="8.5" transform="rotate(-150.264 504.826 606.515)" fill="black"/>
<circle cx="469.596" cy="579.481" r="8.5" transform="rotate(-150.264 469.596 579.481)" fill="black"/>
<circle cx="41.4204" cy="379.617" r="8.5" transform="rotate(-30.0742 41.4204 379.617)" fill="black"/>
<circle cx="82.5034" cy="362.76" r="8.5" transform="rotate(-30.0742 82.5034 362.76)" fill="black"/>
<circle cx="123.587" cy="345.902" r="8.5" transform="rotate(-30.0742 123.587 345.902)" fill="black"/>
<circle cx="380.414" cy="685.708" r="8.5" transform="rotate(-119.698 380.414 685.708)" fill="black"/>
<circle cx="363.826" cy="644.515" r="8.5" transform="rotate(-119.698 363.826 644.515)" fill="black"/>
<circle cx="347.24" cy="603.321" r="8.5" transform="rotate(-119.698 347.24 603.321)" fill="black"/>
<circle cx="346.523" cy="41.1188" r="8.5" transform="rotate(59.7658 346.523 41.1188)" fill="black"/>
<circle cx="363.494" cy="82.1549" r="8.5" transform="rotate(59.7658 363.494 82.1549)" fill="black"/>
<circle cx="380.466" cy="123.191" r="8.5" transform="rotate(59.7658 380.466 123.191)" fill="black"/>
<circle cx="650.428" cy="509.887" r="8.5" transform="rotate(-179.466 650.428 509.887)" fill="black"/>
<circle cx="606.487" cy="503.477" r="8.5" transform="rotate(-179.466 606.487 503.477)" fill="black"/>
<circle cx="562.544" cy="497.068" r="8.5" transform="rotate(-179.466 562.544 497.068)" fill="black"/>
<circle cx="636.684" cy="187.268" r="8.5" transform="rotate(119.936 636.684 187.268)" fill="black"/>
<circle cx="609.527" cy="222.404" r="8.5" transform="rotate(119.936 609.527 222.404)" fill="black"/>
<circle cx="582.37" cy="257.539" r="8.5" transform="rotate(119.936 582.37 257.539)" fill="black"/>
<circle cx="687.025" cy="347.104" r="8.5" transform="rotate(150.459 687.025 347.104)" fill="black"/>
<circle cx="645.787" cy="363.578" r="8.5" transform="rotate(150.459 645.787 363.578)" fill="black"/>
<circle cx="604.549" cy="380.051" r="8.5" transform="rotate(150.459 604.549 380.051)" fill="black"/>
<circle cx="510.593" cy="75.6596" r="8.5" transform="rotate(89.9969 510.593 75.6596)" fill="black"/>
<circle cx="504.596" cy="119.66" r="8.5" transform="rotate(89.9969 504.596 119.66)" fill="black"/>
<circle cx="498.598" cy="163.66" r="8.5" transform="rotate(89.9969 498.598 163.66)" fill="black"/>
<circle cx="248.5" cy="400.5" r="23" fill="black" stroke="black" stroke-width="3"/>
<circle cx="363.5" cy="484.5" r="23" fill="black" stroke="black" stroke-width="3"/>
<circle cx="479.5" cy="400.5" r="23" fill="black" stroke="black" stroke-width="3"/>
<circle cx="435.5" cy="264.5" r="23" fill="black" stroke="black" stroke-width="3"/>
<circle cx="292.5" cy="264.5" r="23" fill="black" stroke="black" stroke-width="3"/>
</svg>
