<svg width="20" height="20" viewBox="0 0 20 20" fill="none" xmlns="http://www.w3.org/2000/svg">
<path fill-rule="evenodd" clip-rule="evenodd" d="M9.58329 0.833008C9.12304 0.833008 8.74996 1.20611 8.74996 1.66634V2.49967H8.33327C6.03216 2.49967 4.16662 4.36488 4.16662 6.66613V9.16634C4.16662 9.78109 3.97261 10.4765 3.66445 11.1787C3.35967 11.8732 2.96559 12.5242 2.61781 13.0363C1.98486 13.9683 2.37676 15.4414 3.67132 15.6749C4.51782 15.8276 5.71413 16.0093 7.12209 16.1269C7.12041 16.1676 7.11956 16.2085 7.11956 16.2497C7.11956 17.8605 8.42537 19.1663 10.0362 19.1663C11.647 19.1663 12.9529 17.8605 12.9529 16.2497C12.9529 16.2065 12.952 16.1635 12.9501 16.1208C14.3267 16.003 15.4966 15.8249 16.3285 15.6749C17.6231 15.4414 18.015 13.9683 17.3821 13.0363C17.0343 12.5242 16.6402 11.8732 16.3355 11.1787C16.0273 10.4765 15.8333 9.78109 15.8333 9.16634V6.66613C15.8333 4.36488 13.9677 2.49967 11.6666 2.49967H11.25V1.66634C11.25 1.20611 10.8769 0.833008 10.4166 0.833008H9.58329ZM9.99996 16.2497C10.426 16.2497 10.8435 16.2412 11.2497 16.2259C11.2563 16.8962 10.7117 17.4634 10.0362 17.4634C9.36221 17.4634 8.81687 16.8978 8.82262 16.2286C9.20604 16.2422 9.59921 16.2497 9.99996 16.2497ZM8.33327 4.16634C6.9525 4.16634 5.83328 5.28549 5.83328 6.66613V9.16634C5.83328 10.1025 5.54618 11.0383 5.19061 11.8485C4.83166 12.6663 4.37936 13.4089 3.99662 13.9726C3.98811 13.9851 3.98414 13.9971 3.9828 14.0091C3.9816 14.0198 3.98262 14.0298 3.98468 14.0378C5.30362 14.2749 7.50032 14.583 9.99996 14.583C12.4995 14.583 14.6963 14.2749 16.0152 14.0378C16.0173 14.0298 16.0183 14.0198 16.0171 14.0091C16.0157 13.9971 16.0118 13.9851 16.0033 13.9726C15.6205 13.4089 15.1682 12.6663 14.8093 11.8485C14.4537 11.0383 14.1666 10.1025 14.1666 9.16634V6.66613C14.1666 5.28549 13.0474 4.16634 11.6666 4.16634H8.33327Z" fill="black"/>
</svg>
