<svg width="20" height="20" viewBox="0 0 20 20" fill="none" xmlns="http://www.w3.org/2000/svg">
<g clip-path="url(#clip0_165_3292)">
<path fill-rule="evenodd" clip-rule="evenodd" d="M18.0615 0.439316L11.3964 7.18736L13.1331 8.87356L19.847 2.10924C20.4394 0.834824 19.1927 -0.231257 18.0615 0.439316ZM8.79554 7.85143C8.86064 7.80097 8.92737 7.75702 8.9941 7.71959L9.01852 7.70657C9.401 7.49823 9.80139 7.50475 10.2213 7.79283L11.3883 8.9289L11.4062 8.9468L12.4804 9.99172C12.9248 10.4442 13.0241 10.9488 12.7783 11.507L9.62887 19.7671C3.90947 18.6229 -0.0553768 14.5458 -3.83019e-05 8.32669C3.12984 9.2414 6.14417 9.54088 8.79554 7.85143Z" fill="black"/>
</g>
<defs>
<clipPath id="clip0_165_3292">
<rect width="20" height="20" fill="white"/>
</clipPath>
</defs>
</svg>
