<svg width="20" height="20" viewBox="0 0 20 20" fill="none" xmlns="http://www.w3.org/2000/svg">
<path d="M15.2083 12.5003C15.2083 12.8455 15.4881 13.1253 15.8333 13.1253C16.1785 13.1253 16.4583 12.8455 16.4583 12.5003H15.2083ZM9.16663 2.29199H10.8333V1.04199H9.16663V2.29199ZM10.8333 17.7087H9.16663V18.9587H10.8333V17.7087ZM4.79163 13.3337V6.66699H3.54163V13.3337H4.79163ZM9.16663 17.7087C7.97044 17.7087 7.13618 17.7073 6.50673 17.6227C5.89524 17.5405 5.57144 17.3902 5.3408 17.1595L4.45692 18.0434C4.95852 18.545 5.59008 18.7607 6.34017 18.8616C7.07228 18.96 8.00578 18.9587 9.16663 18.9587V17.7087ZM3.54163 13.3337C3.54163 14.4945 3.5403 15.428 3.63873 16.1602C3.73958 16.9102 3.95532 17.5417 4.45692 18.0434L5.3408 17.1595C5.11017 16.9288 4.95979 16.6051 4.87759 15.9936C4.79295 15.3641 4.79163 14.5298 4.79163 13.3337H3.54163ZM10.8333 18.9587C11.9941 18.9587 12.9276 18.96 13.6598 18.8616C14.4099 18.7607 15.0414 18.545 15.543 18.0434L14.6591 17.1595C14.4285 17.3902 14.1047 17.5405 13.4932 17.6227C12.8637 17.7073 12.0295 17.7087 10.8333 17.7087V18.9587ZM10.8333 2.29199C12.0295 2.29199 12.8637 2.29332 13.4932 2.37795C14.1047 2.46016 14.4285 2.61053 14.6591 2.84117L15.543 1.95728C15.0414 1.45568 14.4099 1.23994 13.6598 1.13909C12.9276 1.04067 11.9941 1.04199 10.8333 1.04199V2.29199ZM16.4583 6.66699C16.4583 5.50615 16.4596 4.57264 16.3612 3.84053C16.2604 3.09044 16.0446 2.45888 15.543 1.95728L14.6591 2.84117C14.8898 3.0718 15.0401 3.39561 15.1224 4.00709C15.207 4.63655 15.2083 5.47081 15.2083 6.66699H16.4583ZM9.16663 1.04199C8.00578 1.04199 7.07228 1.04067 6.34017 1.13909C5.59008 1.23994 4.95852 1.45568 4.45692 1.95728L5.3408 2.84117C5.57144 2.61053 5.89524 2.46016 6.50673 2.37795C7.13618 2.29332 7.97044 2.29199 9.16663 2.29199V1.04199ZM4.79163 6.66699C4.79163 5.47081 4.79295 4.63655 4.87759 4.00709C4.95979 3.39561 5.11017 3.0718 5.3408 2.84117L4.45692 1.95728C3.95532 2.45888 3.73958 3.09044 3.63873 3.84053C3.5403 4.57264 3.54163 5.50615 3.54163 6.66699H4.79163ZM15.143 15.8199C15.0667 16.546 14.9105 16.9082 14.6591 17.1595L15.543 18.0434C16.0908 17.4957 16.2975 16.793 16.3862 15.9507L15.143 15.8199ZM15.2083 6.66699V12.5003H16.4583V6.66699H15.2083Z" fill="black"/>
<path d="M15.8333 16.25C16.2203 16.25 16.4139 16.25 16.5758 16.2243C17.4673 16.0832 18.1664 15.384 18.3076 14.4926C18.3333 14.3307 18.3333 14.1371 18.3333 13.75V6.25C18.3333 5.86292 18.3333 5.66938 18.3076 5.50743C18.1664 4.61598 17.4673 3.91684 16.5758 3.77565C16.4139 3.75 16.2203 3.75 15.8333 3.75" stroke="black" stroke-width="1.5"/>
<path d="M4.16663 16.25C3.77954 16.25 3.586 16.25 3.42405 16.2243C2.53261 16.0832 1.83347 15.384 1.69228 14.4926C1.66663 14.3307 1.66663 14.1371 1.66663 13.75V6.25C1.66663 5.86292 1.66663 5.66938 1.69228 5.50743C1.83347 4.61598 2.53261 3.91684 3.42405 3.77565C3.586 3.75 3.77954 3.75 4.16663 3.75" stroke="black" stroke-width="1.5"/>
<path d="M12.0833 6.66699C12.7736 6.66699 13.3333 6.10735 13.3333 5.41699C13.3333 4.72664 12.7736 4.16699 12.0833 4.16699C11.3929 4.16699 10.8333 4.72664 10.8333 5.41699C10.8333 6.10735 11.3929 6.66699 12.0833 6.66699Z" stroke="black" stroke-width="1.5"/>
<path d="M4.16663 12.3472L5.24216 11.2437C5.80171 10.6696 6.64504 10.7025 7.17078 11.319L9.80479 14.4076C10.2268 14.9025 10.891 14.97 11.3793 14.5676L11.5625 14.4167C12.265 13.8377 13.2156 13.9048 13.854 14.5784L15.8333 16.2506" stroke="black" stroke-width="1.5" stroke-linecap="round"/>
</svg>
