<svg width="20" height="20" viewBox="0 0 20 20" fill="none" xmlns="http://www.w3.org/2000/svg">
<path d="M8.74998 1.66634C8.74998 1.20611 9.12306 0.833008 9.58331 0.833008H10.4166C10.8769 0.833008 11.25 1.20611 11.25 1.66634V2.49967H11.6666C13.9677 2.49967 15.8333 4.36488 15.8333 6.66613V9.16634C15.8333 9.78109 16.0273 10.4765 16.3355 11.1787C16.6402 11.8732 17.0343 12.5242 17.3821 13.0363C17.7635 13.5978 17.7728 14.3558 17.4368 14.9207L15.2396 12.7234C15.0889 12.4458 14.9426 12.1523 14.8093 11.8485C14.4537 11.0383 14.1666 10.1025 14.1666 9.16634V6.66613C14.1666 5.28549 13.0474 4.16634 11.6666 4.16634H8.3333C7.86061 4.16634 7.41856 4.2975 7.04158 4.52542L5.84216 3.32599C6.53703 2.80697 7.39929 2.49967 8.3333 2.49967H8.74998V1.66634Z" fill="black"/>
<path fill-rule="evenodd" clip-rule="evenodd" d="M4.16697 6.62109C4.16681 6.6361 4.16674 6.65113 4.16674 6.66618V9.16639C4.16674 9.78114 3.97273 10.4766 3.66457 11.1787C3.35979 11.8732 2.96571 12.5242 2.61793 13.0363C1.98498 13.9684 2.37688 15.4415 3.67145 15.675C4.51795 15.8276 5.71425 16.0093 7.12222 16.127C7.12053 16.1676 7.11968 16.2086 7.11968 16.2497C7.11968 17.8606 8.4255 19.1664 10.0363 19.1664C11.6472 19.1664 12.953 17.8606 12.953 16.2497C12.953 16.2066 12.9521 16.1636 12.9502 16.1208C13.1741 16.1017 13.3925 16.081 13.6048 16.059L12.0619 14.5161C11.4086 14.5577 10.7167 14.5831 10.0001 14.5831C7.50045 14.5831 5.30375 14.275 3.9848 14.0379C3.98275 14.0299 3.98172 14.0199 3.98292 14.0091C3.98426 13.9971 3.98823 13.9851 3.99674 13.9726C4.37949 13.409 4.83178 12.6664 5.19073 11.8486C5.5463 11.0383 5.83341 10.1026 5.83341 9.16639V8.28752L4.16697 6.62109ZM11.2498 16.226C10.8436 16.2412 10.4262 16.2497 10.0001 16.2497C9.59933 16.2497 9.20616 16.2422 8.82275 16.2286C8.817 16.8979 9.36233 17.4635 10.0363 17.4635C10.7118 17.4635 11.2564 16.8962 11.2498 16.226Z" fill="black"/>
<path d="M1.67327 2.8513C1.34784 2.52586 1.34784 1.99823 1.67327 1.67279C1.99871 1.34735 2.52635 1.34735 2.85178 1.67279L18.3337 17.1548C18.6592 17.4802 18.6592 18.0078 18.3337 18.3333C18.0083 18.6587 17.4806 18.6587 17.1552 18.3333L1.67327 2.8513Z" fill="black"/>
</svg>
