<svg width="20" height="20" viewBox="0 0 20 20" fill="none" xmlns="http://www.w3.org/2000/svg">
<path d="M13.3333 7.91687L17.5 12.0835M17.5 7.91687L13.3333 12.0835M3.83333 7.5002H4.58433C5.04344 7.5002 5.27299 7.5002 5.48571 7.44297C5.67419 7.39226 5.85229 7.30884 6.01191 7.19651C6.19206 7.06973 6.33901 6.89338 6.63292 6.54069L8.82117 3.91477C9.18425 3.47909 9.36575 3.26125 9.52433 3.23857C9.66167 3.21894 9.79975 3.26894 9.89267 3.37193C10 3.49087 10 3.77443 10 4.34157V15.6588C10 16.226 10 16.5095 9.89267 16.6285C9.79975 16.7315 9.66167 16.7815 9.52433 16.7618C9.36583 16.7391 9.18425 16.5213 8.82117 16.0856L6.63292 13.4597C6.33901 13.107 6.19206 12.9306 6.01191 12.8039C5.85229 12.6915 5.67419 12.6081 5.48571 12.5575C5.27299 12.5002 5.04344 12.5002 4.58433 12.5002H3.83333C3.36662 12.5002 3.13327 12.5002 2.95501 12.4094C2.79821 12.3295 2.67072 12.202 2.59082 12.0452C2.5 11.867 2.5 11.6335 2.5 11.1669V8.83354C2.5 8.36679 2.5 8.13347 2.59082 7.9552C2.67072 7.7984 2.79821 7.67092 2.95501 7.59102C3.13327 7.5002 3.36662 7.5002 3.83333 7.5002Z" stroke="black" stroke-width="2" stroke-linecap="round" stroke-linejoin="round"/>
</svg>
