<svg width="22" height="24" viewBox="0 0 22 24" fill="none" xmlns="http://www.w3.org/2000/svg">
<path d="M15 12.7C15 12.3134 15.3134 12 15.7 12H17.3C17.6866 12 18 12.3134 18 12.7V14.3C18 14.6866 17.6866 15 17.3 15H15.7C15.3134 15 15 14.6866 15 14.3V12.7Z" fill="#B8B8B8"/>
<path d="M9.5 12.7C9.5 12.3134 9.8134 12 10.2 12H11.8C12.1866 12 12.5 12.3134 12.5 12.7V14.3C12.5 14.6866 12.1866 15 11.8 15H10.2C9.8134 15 9.5 14.6866 9.5 14.3V12.7Z" fill="#B8B8B8"/>
<rect x="0.75" y="2.75" width="20.5" height="20.5" rx="3.25" stroke="#B8B8B8" stroke-width="1.5"/>
<path d="M4 12.7C4 12.3134 4.3134 12 4.7 12H6.3C6.6866 12 7 12.3134 7 12.7V14.3C7 14.6866 6.6866 15 6.3 15H4.7C4.3134 15 4 14.6866 4 14.3V12.7Z" fill="#B8B8B8"/>
<path d="M1 9H21" stroke="#B8B8B8" stroke-width="1.5" stroke-linecap="round"/>
<path d="M6 5L6 1" stroke="#B8B8B8" stroke-width="1.5" stroke-linecap="round"/>
<path d="M16 5L16 1" stroke="#B8B8B8" stroke-width="1.5" stroke-linecap="round"/>
</svg>
