<svg width="35" height="32" viewBox="0 0 35 32" fill="none" xmlns="http://www.w3.org/2000/svg">
<path d="M25.5663 11.8223C24.7151 15.9192 21.0508 19 16.6595 19C15.9242 19 15.2092 18.9136 14.5244 18.7505M11.0479 17.0823C8.92801 15.4346 7.56628 12.8747 7.56628 10C7.56628 5.02944 11.6375 1 16.6595 1C20.9871 1 24.6086 3.99202 25.5274 8" stroke="#B8B8B8" stroke-width="1.5" stroke-linecap="round" stroke-linejoin="round"/>
<path d="M15.7824 25.1773C12.66 22.3917 11.8241 17.6779 14.0197 13.875C14.3874 13.2382 14.8197 12.6622 15.3033 12.1507M18.4863 9.97399C20.9732 8.962 23.871 9.06266 26.3606 10.5C30.6652 12.9853 32.1192 18.5257 29.6082 22.875C27.4444 26.6228 23.0425 28.263 19.112 27.0548" stroke="#B8B8B8" stroke-width="1.5" stroke-linecap="round" stroke-linejoin="round"/>
<path d="M9.37235 10.0226C13.346 8.71126 17.8462 10.3442 20.0418 14.1472C20.4095 14.784 20.6922 15.4464 20.8933 16.121M21.1869 19.9659C20.8198 22.6256 19.2838 25.0848 16.7942 26.5222C12.4896 29.0074 6.96441 27.4964 4.45338 23.1472C2.2896 19.3994 3.07002 14.7671 6.08159 11.9673" stroke="#B8B8B8" stroke-width="1.5" stroke-linecap="round" stroke-linejoin="round"/>
</svg>
