<svg width="20" height="25" viewBox="0 0 20 25" fill="none" xmlns="http://www.w3.org/2000/svg">
<path d="M9.75 4L9.75 21" stroke="#B8B8B8" stroke-width="1.5"/>
<path d="M15.5 4.5L5 4.5" stroke="#B8B8B8" stroke-width="1.5"/>
<path d="M16 20.5L4 20.5" stroke="#B8B8B8" stroke-width="1.5"/>
<path d="M4.25 2.5V6.5C4.25 7.4665 3.4665 8.25 2.5 8.25C1.5335 8.25 0.75 7.4665 0.75 6.5V2.5C0.75 1.5335 1.5335 0.75 2.5 0.75C3.4665 0.75 4.25 1.5335 4.25 2.5Z" fill="#B8B8B8" stroke="#B8B8B8" stroke-width="1.5"/>
<path d="M19.25 2.5V6.5C19.25 7.4665 18.4665 8.25 17.5 8.25C16.5335 8.25 15.75 7.4665 15.75 6.5V2.5C15.75 1.5335 16.5335 0.75 17.5 0.75C18.4665 0.75 19.25 1.5335 19.25 2.5Z" fill="#B8B8B8" stroke="#B8B8B8" stroke-width="1.5"/>
<path d="M4.25 18.5V22.5C4.25 23.4665 3.4665 24.25 2.5 24.25C1.5335 24.25 0.75 23.4665 0.75 22.5V18.5C0.75 17.5335 1.5335 16.75 2.5 16.75C3.4665 16.75 4.25 17.5335 4.25 18.5Z" fill="#B8B8B8" stroke="#B8B8B8" stroke-width="1.5"/>
<path d="M19.25 18.5V22.5C19.25 23.4665 18.4665 24.25 17.5 24.25C16.5335 24.25 15.75 23.4665 15.75 22.5V18.5C15.75 17.5335 16.5335 16.75 17.5 16.75C18.4665 16.75 19.25 17.5335 19.25 18.5Z" fill="#B8B8B8" stroke="#B8B8B8" stroke-width="1.5"/>
</svg>
