<svg width="24" height="20" viewBox="0 0 24 20" fill="none" xmlns="http://www.w3.org/2000/svg">
<path d="M16.5 9.5C16.5 9.77614 16.2761 10 16 10C15.7239 10 15.5 9.77614 15.5 9.5C15.5 9.22386 15.7239 9 16 9C16.2761 9 16.5 9.22386 16.5 9.5Z" fill="#B8B8B8" stroke="#B8B8B8"/>
<path d="M12.5 9.5C12.5 9.77614 12.2761 10 12 10C11.7239 10 11.5 9.77614 11.5 9.5C11.5 9.22386 11.7239 9 12 9C12.2761 9 12.5 9.22386 12.5 9.5Z" fill="#B8B8B8" stroke="#B8B8B8"/>
<path d="M7.136 15.1025L6.91569 14.75H6.5H5C4.58579 14.75 4.25 14.4142 4.25 14V5C4.25 4.58579 4.58579 4.25 5 4.25H16.8787C17.0776 4.25 17.2684 4.32902 17.409 4.46967L19.5303 6.59099C19.671 6.73164 19.75 6.92241 19.75 7.12132V18C19.75 18.4142 19.4142 18.75 19 18.75H9.83137C9.57278 18.75 9.33243 18.6168 9.19537 18.3975L7.136 15.1025Z" stroke="#B8B8B8" stroke-width="1.5"/>
<path d="M10.5 1L18.5 1" stroke="#B8B8B8" stroke-width="1.5" stroke-linecap="round"/>
<path d="M14.5 3.5L14.5 1.5" stroke="#B8B8B8" stroke-width="1.5" stroke-linecap="round"/>
<path d="M1 13.5L1 5.5" stroke="#B8B8B8" stroke-width="1.5" stroke-linecap="round"/>
<path d="M23 18L23 8.5" stroke="#B8B8B8" stroke-width="1.5" stroke-linecap="round"/>
<path d="M3.5 9.5L1.5 9.5" stroke="#B8B8B8" stroke-width="1.5" stroke-linecap="round"/>
<path d="M8.5 9.5C8.5 9.77614 8.27614 10 8 10C7.72386 10 7.5 9.77614 7.5 9.5C7.5 9.22386 7.72386 9 8 9C8.27614 9 8.5 9.22386 8.5 9.5Z" fill="#B8B8B8" stroke="#B8B8B8"/>
</svg>
