<svg width="30" height="24" viewBox="0 0 30 24" fill="none" xmlns="http://www.w3.org/2000/svg">
<path d="M3.5756 9.00663C12.4015 8.20541 17.7458 8.19789 26.426 9.00445C26.8182 9.0409 27.1715 9.26341 27.3754 9.60328L28.3421 11.2143L28.8013 12.1328C29.0964 12.723 29.25 13.3737 29.25 14.0335V18.6689C18.3342 19.6583 11.879 19.5913 0.75 18.5784V14.0335C0.75 13.3737 0.903617 12.723 1.19868 12.1328L1.65794 11.2143L2.62299 9.60593C2.82745 9.26515 3.18204 9.04235 3.5756 9.00663Z" stroke="black" stroke-width="1.5"/>
<path d="M26.5 8.85317C25.9625 6.29293 25.4638 4.71905 24.4854 2.4507C24.1929 1.77273 23.539 1.32176 22.802 1.2762C16.8846 0.910297 13.1095 0.905589 7.18651 1.27597C6.4557 1.32167 5.8053 1.76603 5.51432 2.43798C4.57757 4.60115 4.10235 6.19493 3.5 8.85317" stroke="black" stroke-width="1.5" stroke-linecap="round"/>
<path d="M0.75 21.8532V18.6042L5.02028 18.9517C5.15006 18.9623 5.25 19.0707 5.25 19.2009V21.8532C5.25 22.5435 4.69035 23.1032 4 23.1032H2C1.30964 23.1032 0.75 22.5435 0.75 21.8532Z" stroke="black" stroke-width="1.5"/>
<path d="M1.50012 6.35327L4.30641 6.35327L3.7537 8.01139C3.68565 8.21556 3.49458 8.35327 3.27936 8.35327L1.50012 8.35327C1.22398 8.35327 1.00012 8.12941 1.00012 7.85327L1.00012 6.85327C1.00012 6.57713 1.22398 6.35327 1.50012 6.35327Z" stroke="black"/>
<path d="M28.5001 6.35327L25.6938 6.35327L26.2465 8.01139C26.3146 8.21556 26.5057 8.35327 26.7209 8.35327L28.5001 8.35327C28.7763 8.35327 29.0001 8.12941 29.0001 7.85327L29.0001 6.85327C29.0001 6.57713 28.7763 6.35327 28.5001 6.35327Z" stroke="black"/>
<path d="M24.98 19.0619L29.25 18.7193V21.8532C29.25 22.5435 28.6904 23.1032 28 23.1032H26C25.3096 23.1032 24.75 22.5435 24.75 21.8532V19.3111C24.75 19.1808 24.8501 19.0723 24.98 19.0619Z" stroke="black" stroke-width="1.5"/>
<path d="M11.1599 12.8533H11.1768H11.1936H11.2105H11.2273H11.244H11.2608H11.2775H11.2942H11.3109H11.3276H11.3442H11.3609H11.3775H11.3941H11.4106H11.4272H11.4437H11.4602H11.4767H11.4931H11.5096H11.526H11.5424H11.5588H11.5751H11.5915H11.6078H11.6241H11.6404H11.6567H11.6729H11.6891H11.7053H11.7215H11.7377H11.7538H11.77H11.7861H11.8022H11.8182H11.8343H11.8503H11.8664H11.8824H11.8983H11.9143H11.9302H11.9462H11.9621H11.978H11.9939H12.0097H12.0255H12.0414H12.0572H12.073H12.0887H12.1045H12.1202H12.1359H12.1516H12.1673H12.183H12.1987H12.2143H12.2299H12.2455H12.2611H12.2767H12.2922H12.3078H12.3233H12.3388H12.3543H12.3698H12.3852H12.4007H12.4161H12.4315H12.4469H12.4623H12.4777H12.493H12.5084H12.5237H12.539H12.5543H12.5696H12.5848H12.6001H12.6153H12.6305H12.6458H12.6609H12.6761H12.6913H12.7065H12.7216H12.7367H12.7518H12.7669H12.782H12.7971H12.8122H12.8272H12.8422H12.8573H12.8723H12.8873H12.9022H12.9172H12.9322H12.9471H12.9621H12.977H12.9919H13.0068H13.0217H13.0365H13.0514H13.0663H13.0811H13.0959H13.1107H13.1255H13.1403H13.1551H13.1699H13.1846H13.1994H13.2141H13.2289H13.2436H13.2583H13.273H13.2877H13.3023H13.317H13.3317H13.3463H13.3609H13.3756H13.3902H13.4048H13.4194H13.434H13.4485H13.4631H13.4777H13.4922H13.5068H13.5213H13.5358H13.5503H13.5648H13.5793H13.5938H13.6083H13.6228H13.6372H13.6517H13.6661H13.6806H13.695H13.7094H13.7238H13.7382H13.7526H13.767H13.7814H13.7958H13.8101H13.8676H13.982H14.0961H14.2099H14.3233H14.4365H14.4647H14.4788H14.493H14.5494H14.6622H14.7748H14.8874H14.9999H15.0139H15.028H15.0421H15.0561H15.0702H15.0842H15.0983H15.1124H15.1264H15.1405H15.1546H15.1686H15.1827H15.1968H15.2109H15.2249H15.239H15.2531H15.2672H15.2812H15.2953H15.3094H15.3235H15.3376H15.3517H15.3657H15.3798H15.3939H15.408H15.4221H15.4362H15.4503H15.4644H15.4786H15.4927H15.5068H15.5209H15.535H15.5492H15.5633H15.5774H15.5916H15.6057H15.6198H15.634H15.6481H15.6623H15.6765H15.6906H15.7048H15.719H15.7331H15.7473H15.7615H15.7757H15.7899H15.8041H15.8183H15.8325H15.8467H15.8609H15.8752H15.8894H15.9036H15.9179H15.9321H15.9464H15.9606H15.9749H15.9892H16.0034H16.0177H16.032H16.0463H16.0606H16.0749H16.0892H16.1035H16.1179H16.1322H16.3625H16.4785H16.595H16.6535H16.7121H16.8299H16.9484H17.0079H17.0676H17.1275H17.1876H17.3085H17.4302H17.5529H17.6765H17.8012H17.9269H17.9901H18.0536H18.1175H18.1816H18.246H18.3107H18.3757H18.4411H18.5067H18.5727H18.639H18.7056H18.7726H18.8062H18.8231H18.8399C19.4371 12.8533 19.8424 13.057 20.0993 13.3245C20.3622 13.5984 20.5 13.9707 20.5 14.3533C20.5 14.7358 20.3622 15.1082 20.0993 15.382C19.8424 15.6496 19.4371 15.8533 18.8399 15.8533H18.8231H18.8062H18.7894H18.7726H18.7558H18.7391H18.7223H18.7056H18.6889H18.6723H18.6556H18.639H18.6224H18.6058H18.5892H18.5727H18.5562H18.5397H18.5232H18.5067H18.4903H18.4738H18.4574H18.4411H18.4247H18.4084H18.392H18.3757H18.3594H18.3432H18.3269H18.3107H18.2945H18.2783H18.2621H18.246H18.2299H18.2137H18.1977H18.1816H18.1655H18.1495H18.1335H18.1175H18.1015H18.0855H18.0696H18.0536H18.0377H18.0218H18.006H17.9901H17.9743H17.9584H17.9426H17.9269H17.9111H17.8953H17.8796H17.8639H17.8482H17.8325H17.8168H17.8012H17.7855H17.7699H17.7543H17.7387H17.7231H17.7076H17.692H17.6765H17.661H17.6455H17.63H17.6146H17.5991H17.5837H17.5683H17.5529H17.5375H17.5221H17.5068H17.4914H17.4761H17.4608H17.4455H17.4302H17.415H17.3997H17.3845H17.3692H17.354H17.3388H17.3237H17.3085H17.2933H17.2782H17.2631H17.248H17.2329H17.2178H17.2027H17.1876H17.1726H17.1575H17.1425H17.1275H17.1125H17.0975H17.0826H17.0676H17.0527H17.0377H17.0228H17.0079H16.993H16.9781H16.9632H16.9484H16.9335H16.9187H16.9039H16.889H16.8742H16.8594H16.8447H16.8299H16.8151H16.8004H16.7856H16.7709H16.7562H16.7415H16.7268H16.7121H16.6974H16.6828H16.6681H16.6535H16.6388H16.6242H16.6096H16.595H16.5804H16.5658H16.5512H16.5367H16.5221H16.5075H16.493H16.4785H16.4639H16.4494H16.4349H16.4204H16.4059H16.3915H16.377H16.3625H16.3481H16.3336H16.3192H16.3048H16.2903H16.2759H16.2615H16.2471H16.2327H16.2183H16.204H16.1896H16.1752H16.1609H16.1465H16.1322H16.1179H16.1035H16.0892H16.0749H16.0606H16.0463H16.032H16.0177H16.0034H15.9892H15.9749H15.9606H15.9464H15.9321H15.9179H15.9036H15.8894H15.8752H15.8609H15.8467H15.8325H15.8183H15.8041H15.7899H15.7757H15.7615H15.7473H15.7331H15.719H15.7048H15.6906H15.6764H15.6623H15.6481H15.634H15.6198H15.6057H15.5916H15.5774H15.5633H15.5492H15.535H15.5209H15.5068H15.4927H15.4786H15.4644H15.4503H15.4362H15.4221H15.408H15.3939H15.3798H15.3657H15.3516H15.3376H15.3235H15.3094H15.2953H15.2812H15.2671H15.2531H15.239H15.2249H15.2108H15.1968H15.1827H15.1686H15.1546H15.1405H15.1264H15.1124H15.0983H15.0842H15.0702H15.0561H15.042H15.028H15.0139H14.9999H14.9858H14.9717H14.9577H14.9436H14.9295H14.9155H14.9014H14.8874H14.8733H14.8592H14.8452H14.8311H14.817H14.8029H14.7889H14.7748H14.7607H14.7467H14.7326H14.7185H14.7044H14.6903H14.6762H14.6622H14.6481H14.634H14.6199H14.6058H14.5917H14.5776H14.5635H14.5494H14.5353H14.5212H14.5071H14.4929H14.4788H14.4647H14.4506H14.4364H14.4223H14.4082H14.394H14.3799H14.3657H14.3516H14.3374H14.3233H14.3091H14.2949H14.2808H14.2666H14.2524H14.2382H14.224H14.2098H14.1956H14.1814H14.1672H14.153H14.1388H14.1246H14.1103H14.0961H14.0819H14.0676H14.0534H14.0391H14.0248H14.0106H13.9963H13.982H13.9677H13.9534H13.9391H13.9248H13.9105H13.8962H13.8819H13.8675H13.8532H13.8389H13.8245H13.8101H13.7958H13.7814H13.767H13.7526H13.7382H13.7238H13.7094H13.695H13.6805H13.6661H13.6517H13.6372H13.6227H13.6083H13.5938H13.5793H13.5648H13.5503H13.5358H13.5213H13.5067H13.4922H13.4777H13.4631H13.4485H13.434H13.4194H13.4048H13.3902H13.3755H13.3609H13.3463H13.3316H13.317H13.3023H13.2877H13.273H13.2583H13.2436H13.2288H13.2141H13.1994H13.1846H13.1699H13.1551H13.1403H13.1255H13.1107H13.0959H13.0811H13.0662H13.0514H13.0365H13.0217H13.0068H12.9919H12.977H12.962H12.9471H12.9322H12.9172H12.9022H12.8872H12.8723H12.8572H12.8422H12.8272H12.8121H12.7971H12.782H12.7669H12.7518H12.7367H12.7216H12.7064H12.6913H12.6761H12.6609H12.6457H12.6305H12.6153H12.6001H12.5848H12.5696H12.5543H12.539H12.5237H12.5083H12.493H12.4777H12.4623H12.4469H12.4315H12.4161H12.4007H12.3852H12.3698H12.3543H12.3388H12.3233H12.3078H12.2922H12.2767H12.2611H12.2455H12.2299H12.2143H12.1986H12.183H12.1673H12.1516H12.1359H12.1202H12.1045H12.0887H12.073H12.0572H12.0414H12.0255H12.0097H11.9938H11.978H11.9621H11.9462H11.9302H11.9143H11.8983H11.8824H11.8664H11.8503H11.8343H11.8182H11.8022H11.7861H11.77H11.7538H11.7377H11.7215H11.7053H11.6891H11.6729H11.6567H11.6404H11.6241H11.6078H11.5915H11.5751H11.5588H11.5424H11.526H11.5096H11.4931H11.4767H11.4602H11.4437H11.4272H11.4106H11.3941H11.3775H11.3609H11.3442H11.3276H11.3109H11.2942H11.2775H11.2608H11.244H11.2273H11.2105H11.1936H11.1768H11.1599C10.5628 15.8533 10.1575 15.6496 9.90069 15.382C9.63782 15.1082 9.5 14.7358 9.5 14.3533C9.5 13.9707 9.63781 13.5984 9.90068 13.3245C10.1575 13.057 10.5628 12.8533 11.1599 12.8533Z" stroke="black"/>
<path d="M7.5 14.3533C7.5 15.1817 6.82843 15.8533 6 15.8533C5.17157 15.8533 4.5 15.1817 4.5 14.3533C4.5 13.5248 5.17157 12.8533 6 12.8533C6.82843 12.8533 7.5 13.5248 7.5 14.3533Z" stroke="black"/>
<path d="M25.5001 14.3533C25.5001 15.1817 24.8285 15.8533 24.0001 15.8533C23.1716 15.8533 22.5001 15.1817 22.5001 14.3533C22.5001 13.5249 23.1716 12.8533 24.0001 12.8533C24.8285 12.8533 25.5001 13.5249 25.5001 14.3533Z" stroke="black"/>
<path d="M6.33079 6V3.34H8.68299V6H8.19659V3.6364L8.31059 3.758H6.70319L6.81719 3.6364V6H6.33079ZM10.5046 6.0266C10.34 6.0266 10.1892 5.9886 10.0524 5.9126C9.91818 5.8366 9.81051 5.7226 9.72944 5.5706C9.65091 5.41607 9.61164 5.221 9.61164 4.9854C9.61164 4.74727 9.64964 4.5522 9.72564 4.4002C9.80418 4.2482 9.91058 4.13547 10.0448 4.062C10.1791 3.986 10.3324 3.948 10.5046 3.948C10.7048 3.948 10.8808 3.99107 11.0328 4.0772C11.1874 4.16333 11.309 4.28367 11.3976 4.4382C11.4888 4.59273 11.5344 4.77513 11.5344 4.9854C11.5344 5.19567 11.4888 5.37933 11.3976 5.5364C11.309 5.69093 11.1874 5.81127 11.0328 5.8974C10.8808 5.98353 10.7048 6.0266 10.5046 6.0266ZM9.37984 6.7372V3.9708H9.83204V4.4496L9.81684 4.9892L9.85484 5.5288V6.7372H9.37984ZM10.4514 5.62C10.5654 5.62 10.6668 5.59467 10.7554 5.544C10.8466 5.49333 10.9188 5.41987 10.972 5.3236C11.0252 5.22733 11.0518 5.1146 11.0518 4.9854C11.0518 4.85367 11.0252 4.74093 10.972 4.6472C10.9188 4.55093 10.8466 4.47747 10.7554 4.4268C10.6668 4.37613 10.5654 4.3508 10.4514 4.3508C10.3374 4.3508 10.2348 4.37613 10.1436 4.4268C10.0524 4.47747 9.98024 4.55093 9.92704 4.6472C9.87384 4.74093 9.84724 4.85367 9.84724 4.9854C9.84724 5.1146 9.87384 5.22733 9.92704 5.3236C9.98024 5.41987 10.0524 5.49333 10.1436 5.544C10.2348 5.59467 10.3374 5.62 10.4514 5.62ZM12.9116 6.0266C12.7039 6.0266 12.5189 5.98227 12.3568 5.8936C12.1947 5.8024 12.0667 5.67827 11.973 5.5212C11.8793 5.36413 11.8324 5.18553 11.8324 4.9854C11.8324 4.78273 11.8793 4.60413 11.973 4.4496C12.0667 4.29253 12.1947 4.16967 12.3568 4.081C12.5189 3.99233 12.7039 3.948 12.9116 3.948C13.1219 3.948 13.3081 3.99233 13.4702 4.081C13.6349 4.16967 13.7628 4.29127 13.854 4.4458C13.9477 4.60033 13.9946 4.7802 13.9946 4.9854C13.9946 5.18553 13.9477 5.36413 13.854 5.5212C13.7628 5.67827 13.6349 5.8024 13.4702 5.8936C13.3081 5.98227 13.1219 6.0266 12.9116 6.0266ZM12.9116 5.62C13.0281 5.62 13.132 5.59467 13.2232 5.544C13.3144 5.49333 13.3853 5.41987 13.436 5.3236C13.4892 5.22733 13.5158 5.1146 13.5158 4.9854C13.5158 4.85367 13.4892 4.74093 13.436 4.6472C13.3853 4.55093 13.3144 4.47747 13.2232 4.4268C13.132 4.37613 13.0294 4.3508 12.9154 4.3508C12.7989 4.3508 12.695 4.37613 12.6038 4.4268C12.5151 4.47747 12.4442 4.55093 12.391 4.6472C12.3378 4.74093 12.3112 4.85367 12.3112 4.9854C12.3112 5.1146 12.3378 5.22733 12.391 5.3236C12.4442 5.41987 12.5151 5.49333 12.6038 5.544C12.695 5.59467 12.7976 5.62 12.9116 5.62ZM15.8324 5.7796V4.3736H15.0534L15.042 4.7004C15.0369 4.81693 15.0293 4.92967 15.0192 5.0386C15.009 5.145 14.9926 5.2438 14.9698 5.335C14.947 5.42367 14.914 5.49713 14.871 5.5554C14.8279 5.61367 14.7709 5.65167 14.7 5.6694L14.2288 5.5972C14.3048 5.5972 14.3656 5.57313 14.4112 5.525C14.4593 5.47433 14.496 5.40593 14.5214 5.3198C14.5492 5.23113 14.5695 5.13107 14.5822 5.0196C14.5948 4.9056 14.6037 4.7878 14.6088 4.6662L14.6354 3.9708L16.3074 3.9708V5.7796H15.8324ZM14.1566 6.4522V5.5972H16.6076V6.4522H16.163V6H14.5974V6.4522H14.1566ZM18.263 6V5.5896L18.2364 5.5022V4.784C18.2364 4.64467 18.1946 4.537 18.111 4.461C18.0274 4.38247 17.9007 4.3432 17.731 4.3432C17.617 4.3432 17.5043 4.36093 17.3928 4.3964C17.2839 4.43187 17.1914 4.48127 17.1154 4.5446L16.9292 4.1988C17.0381 4.1152 17.1673 4.05313 17.3168 4.0126C17.4688 3.96953 17.6259 3.948 17.788 3.948C18.0819 3.948 18.3086 4.01893 18.4682 4.1608C18.6303 4.30013 18.7114 4.51673 18.7114 4.8106V6H18.263ZM17.6246 6.0266C17.4726 6.0266 17.3396 6.00127 17.2256 5.9506C17.1116 5.8974 17.0229 5.8252 16.9596 5.734C16.8988 5.64027 16.8684 5.53513 16.8684 5.4186C16.8684 5.3046 16.895 5.202 16.9482 5.1108C17.0039 5.0196 17.0939 4.9474 17.218 4.8942C17.3421 4.841 17.5068 4.8144 17.712 4.8144H18.301V5.1298H17.7462C17.5841 5.1298 17.4751 5.1564 17.4194 5.2096C17.3637 5.26027 17.3358 5.3236 17.3358 5.3996C17.3358 5.48573 17.37 5.55413 17.4384 5.6048C17.5068 5.65547 17.6018 5.6808 17.7234 5.6808C17.8399 5.6808 17.9438 5.6542 18.035 5.601C18.1287 5.5478 18.1959 5.46927 18.2364 5.3654L18.3162 5.6504C18.2706 5.76947 18.1883 5.86193 18.0692 5.9278C17.9527 5.99367 17.8045 6.0266 17.6246 6.0266ZM19.2992 6V3.9708H19.7742V4.7954H20.7964V3.9708H21.2714V6H20.7964V5.1982H19.7742V6H19.2992ZM22.8124 6.0266C22.6046 6.0266 22.4197 5.98227 22.2576 5.8936C22.0954 5.8024 21.9675 5.67827 21.8738 5.5212C21.78 5.36413 21.7332 5.18553 21.7332 4.9854C21.7332 4.78273 21.78 4.60413 21.8738 4.4496C21.9675 4.29253 22.0954 4.16967 22.2576 4.081C22.4197 3.99233 22.6046 3.948 22.8124 3.948C23.0226 3.948 23.2088 3.99233 23.371 4.081C23.5356 4.16967 23.6636 4.29127 23.7548 4.4458C23.8485 4.60033 23.8954 4.7802 23.8954 4.9854C23.8954 5.18553 23.8485 5.36413 23.7548 5.5212C23.6636 5.67827 23.5356 5.8024 23.371 5.8936C23.2088 5.98227 23.0226 6.0266 22.8124 6.0266ZM22.8124 5.62C22.9289 5.62 23.0328 5.59467 23.124 5.544C23.2152 5.49333 23.2861 5.41987 23.3368 5.3236C23.39 5.22733 23.4166 5.1146 23.4166 4.9854C23.4166 4.85367 23.39 4.74093 23.3368 4.6472C23.2861 4.55093 23.2152 4.47747 23.124 4.4268C23.0328 4.37613 22.9302 4.3508 22.8162 4.3508C22.6996 4.3508 22.5958 4.37613 22.5046 4.4268C22.4159 4.47747 22.345 4.55093 22.2918 4.6472C22.2386 4.74093 22.212 4.85367 22.212 4.9854C22.212 5.1146 22.2386 5.22733 22.2918 5.3236C22.345 5.41987 22.4159 5.49333 22.5046 5.544C22.5958 5.59467 22.6984 5.62 22.8124 5.62Z" fill="black"/>
</svg>
