<svg width="30" height="28" viewBox="0 0 30 28" fill="none" xmlns="http://www.w3.org/2000/svg">
<path d="M3.5756 13.0066C12.4015 12.2054 17.7458 12.1979 26.426 13.0045C26.8182 13.0409 27.1715 13.2634 27.3754 13.6033L28.3421 15.2143L28.8013 16.1328C29.0964 16.723 29.25 17.3737 29.25 18.0335V22.6689C18.3342 23.6583 11.879 23.5913 0.75 22.5784V18.0335C0.75 17.3737 0.903617 16.723 1.19868 16.1328L1.65794 15.2143L2.62299 13.6059C2.82745 13.2651 3.18204 13.0424 3.5756 13.0066Z" stroke="black" stroke-width="1.5"/>
<path d="M26.5 12.8532C26.2274 11.5549 25.9648 10.5102 25.6446 9.5M3.5 12.8532C4.10235 10.1949 4.57757 8.60115 5.51432 6.43798C5.8053 5.76603 6.45572 5.32167 7.18653 5.27597C12.1216 4.96736 15.5655 4.91916 20 5.12332" stroke="black" stroke-width="1.5" stroke-linecap="round"/>
<path d="M0.75 25.8532V22.6042L5.02028 22.9517C5.15006 22.9623 5.25 23.0707 5.25 23.2009V25.8532C5.25 26.5435 4.69035 27.1032 4 27.1032H2C1.30964 27.1032 0.75 26.5435 0.75 25.8532Z" stroke="black" stroke-width="1.5"/>
<path d="M1.50012 10.3533L4.30641 10.3533L3.7537 12.0114C3.68565 12.2156 3.49458 12.3533 3.27936 12.3533L1.50012 12.3533C1.22398 12.3533 1.00012 12.1294 1.00012 11.8533L1.00012 10.8533C1.00012 10.5771 1.22398 10.3533 1.50012 10.3533Z" stroke="black"/>
<path d="M28.5001 10.3533L25.6938 10.3533L26.2465 12.0114C26.3146 12.2156 26.5057 12.3533 26.7209 12.3533L28.5001 12.3533C28.7763 12.3533 29.0001 12.1294 29.0001 11.8533L29.0001 10.8533C29.0001 10.5771 28.7763 10.3533 28.5001 10.3533Z" stroke="black"/>
<path d="M24.98 23.0619L29.25 22.7193V25.8532C29.25 26.5435 28.6904 27.1032 28 27.1032H26C25.3096 27.1032 24.75 26.5435 24.75 25.8532V23.3111C24.75 23.1808 24.8501 23.0723 24.98 23.0619Z" stroke="black" stroke-width="1.5"/>
<path d="M11.1599 16.8533H11.1768H11.1936H11.2105H11.2273H11.244H11.2608H11.2775H11.2942H11.3109H11.3276H11.3442H11.3609H11.3775H11.3941H11.4106H11.4272H11.4437H11.4602H11.4767H11.4931H11.5096H11.526H11.5424H11.5588H11.5751H11.5915H11.6078H11.6241H11.6404H11.6567H11.6729H11.6891H11.7053H11.7215H11.7377H11.7538H11.77H11.7861H11.8022H11.8182H11.8343H11.8503H11.8664H11.8824H11.8983H11.9143H11.9302H11.9462H11.9621H11.978H11.9939H12.0097H12.0255H12.0414H12.0572H12.073H12.0887H12.1045H12.1202H12.1359H12.1516H12.1673H12.183H12.1987H12.2143H12.2299H12.2455H12.2611H12.2767H12.2922H12.3078H12.3233H12.3388H12.3543H12.3698H12.3852H12.4007H12.4161H12.4315H12.4469H12.4623H12.4777H12.493H12.5084H12.5237H12.539H12.5543H12.5696H12.5848H12.6001H12.6153H12.6305H12.6458H12.6609H12.6761H12.6913H12.7065H12.7216H12.7367H12.7518H12.7669H12.782H12.7971H12.8122H12.8272H12.8422H12.8573H12.8723H12.8873H12.9022H12.9172H12.9322H12.9471H12.9621H12.977H12.9919H13.0068H13.0217H13.0365H13.0514H13.0663H13.0811H13.0959H13.1107H13.1255H13.1403H13.1551H13.1699H13.1846H13.1994H13.2141H13.2289H13.2436H13.2583H13.273H13.2877H13.3023H13.317H13.3317H13.3463H13.3609H13.3756H13.3902H13.4048H13.4194H13.434H13.4485H13.4631H13.4777H13.4922H13.5068H13.5213H13.5358H13.5503H13.5648H13.5793H13.5938H13.6083H13.6228H13.6372H13.6517H13.6661H13.6806H13.695H13.7094H13.7238H13.7382H13.7526H13.767H13.7814H13.7958H13.8101H13.8676H13.982H14.0961H14.2099H14.3233H14.4365H14.4647H14.4788H14.493H14.5494H14.6622H14.7748H14.8874H14.9999H15.0139H15.028H15.0421H15.0561H15.0702H15.0842H15.0983H15.1124H15.1264H15.1405H15.1546H15.1686H15.1827H15.1968H15.2109H15.2249H15.239H15.2531H15.2672H15.2812H15.2953H15.3094H15.3235H15.3376H15.3517H15.3657H15.3798H15.3939H15.408H15.4221H15.4362H15.4503H15.4644H15.4786H15.4927H15.5068H15.5209H15.535H15.5492H15.5633H15.5774H15.5916H15.6057H15.6198H15.634H15.6481H15.6623H15.6765H15.6906H15.7048H15.719H15.7331H15.7473H15.7615H15.7757H15.7899H15.8041H15.8183H15.8325H15.8467H15.8609H15.8752H15.8894H15.9036H15.9179H15.9321H15.9464H15.9606H15.9749H15.9892H16.0034H16.0177H16.032H16.0463H16.0606H16.0749H16.0892H16.1035H16.1179H16.1322H16.3625H16.4785H16.595H16.6535H16.7121H16.8299H16.9484H17.0079H17.0676H17.1275H17.1876H17.3085H17.4302H17.5529H17.6765H17.8012H17.9269H17.9901H18.0536H18.1175H18.1816H18.246H18.3107H18.3757H18.4411H18.5067H18.5727H18.639H18.7056H18.7726H18.8062H18.8231H18.8399C19.4371 16.8533 19.8424 17.057 20.0993 17.3245C20.3622 17.5984 20.5 17.9707 20.5 18.3533C20.5 18.7358 20.3622 19.1082 20.0993 19.382C19.8424 19.6496 19.4371 19.8533 18.8399 19.8533H18.8231H18.8062H18.7894H18.7726H18.7558H18.7391H18.7223H18.7056H18.6889H18.6723H18.6556H18.639H18.6224H18.6058H18.5892H18.5727H18.5562H18.5397H18.5232H18.5067H18.4903H18.4738H18.4574H18.4411H18.4247H18.4084H18.392H18.3757H18.3594H18.3432H18.3269H18.3107H18.2945H18.2783H18.2621H18.246H18.2299H18.2137H18.1977H18.1816H18.1655H18.1495H18.1335H18.1175H18.1015H18.0855H18.0696H18.0536H18.0377H18.0218H18.006H17.9901H17.9743H17.9584H17.9426H17.9269H17.9111H17.8953H17.8796H17.8639H17.8482H17.8325H17.8168H17.8012H17.7855H17.7699H17.7543H17.7387H17.7231H17.7076H17.692H17.6765H17.661H17.6455H17.63H17.6146H17.5991H17.5837H17.5683H17.5529H17.5375H17.5221H17.5068H17.4914H17.4761H17.4608H17.4455H17.4302H17.415H17.3997H17.3845H17.3692H17.354H17.3388H17.3237H17.3085H17.2933H17.2782H17.2631H17.248H17.2329H17.2178H17.2027H17.1876H17.1726H17.1575H17.1425H17.1275H17.1125H17.0975H17.0826H17.0676H17.0527H17.0377H17.0228H17.0079H16.993H16.9781H16.9632H16.9484H16.9335H16.9187H16.9039H16.889H16.8742H16.8594H16.8447H16.8299H16.8151H16.8004H16.7856H16.7709H16.7562H16.7415H16.7268H16.7121H16.6974H16.6828H16.6681H16.6535H16.6388H16.6242H16.6096H16.595H16.5804H16.5658H16.5512H16.5367H16.5221H16.5075H16.493H16.4785H16.4639H16.4494H16.4349H16.4204H16.4059H16.3915H16.377H16.3625H16.3481H16.3336H16.3192H16.3048H16.2903H16.2759H16.2615H16.2471H16.2327H16.2183H16.204H16.1896H16.1752H16.1609H16.1465H16.1322H16.1179H16.1035H16.0892H16.0749H16.0606H16.0463H16.032H16.0177H16.0034H15.9892H15.9749H15.9606H15.9464H15.9321H15.9179H15.9036H15.8894H15.8752H15.8609H15.8467H15.8325H15.8183H15.8041H15.7899H15.7757H15.7615H15.7473H15.7331H15.719H15.7048H15.6906H15.6764H15.6623H15.6481H15.634H15.6198H15.6057H15.5916H15.5774H15.5633H15.5492H15.535H15.5209H15.5068H15.4927H15.4786H15.4644H15.4503H15.4362H15.4221H15.408H15.3939H15.3798H15.3657H15.3516H15.3376H15.3235H15.3094H15.2953H15.2812H15.2671H15.2531H15.239H15.2249H15.2108H15.1968H15.1827H15.1686H15.1546H15.1405H15.1264H15.1124H15.0983H15.0842H15.0702H15.0561H15.042H15.028H15.0139H14.9999H14.9858H14.9717H14.9577H14.9436H14.9295H14.9155H14.9014H14.8874H14.8733H14.8592H14.8452H14.8311H14.817H14.8029H14.7889H14.7748H14.7607H14.7467H14.7326H14.7185H14.7044H14.6903H14.6762H14.6622H14.6481H14.634H14.6199H14.6058H14.5917H14.5776H14.5635H14.5494H14.5353H14.5212H14.5071H14.4929H14.4788H14.4647H14.4506H14.4364H14.4223H14.4082H14.394H14.3799H14.3657H14.3516H14.3374H14.3233H14.3091H14.2949H14.2808H14.2666H14.2524H14.2382H14.224H14.2098H14.1956H14.1814H14.1672H14.153H14.1388H14.1246H14.1103H14.0961H14.0819H14.0676H14.0534H14.0391H14.0248H14.0106H13.9963H13.982H13.9677H13.9534H13.9391H13.9248H13.9105H13.8962H13.8819H13.8675H13.8532H13.8389H13.8245H13.8101H13.7958H13.7814H13.767H13.7526H13.7382H13.7238H13.7094H13.695H13.6805H13.6661H13.6517H13.6372H13.6227H13.6083H13.5938H13.5793H13.5648H13.5503H13.5358H13.5213H13.5067H13.4922H13.4777H13.4631H13.4485H13.434H13.4194H13.4048H13.3902H13.3755H13.3609H13.3463H13.3316H13.317H13.3023H13.2877H13.273H13.2583H13.2436H13.2288H13.2141H13.1994H13.1846H13.1699H13.1551H13.1403H13.1255H13.1107H13.0959H13.0811H13.0662H13.0514H13.0365H13.0217H13.0068H12.9919H12.977H12.962H12.9471H12.9322H12.9172H12.9022H12.8872H12.8723H12.8572H12.8422H12.8272H12.8121H12.7971H12.782H12.7669H12.7518H12.7367H12.7216H12.7064H12.6913H12.6761H12.6609H12.6457H12.6305H12.6153H12.6001H12.5848H12.5696H12.5543H12.539H12.5237H12.5083H12.493H12.4777H12.4623H12.4469H12.4315H12.4161H12.4007H12.3852H12.3698H12.3543H12.3388H12.3233H12.3078H12.2922H12.2767H12.2611H12.2455H12.2299H12.2143H12.1986H12.183H12.1673H12.1516H12.1359H12.1202H12.1045H12.0887H12.073H12.0572H12.0414H12.0255H12.0097H11.9938H11.978H11.9621H11.9462H11.9302H11.9143H11.8983H11.8824H11.8664H11.8503H11.8343H11.8182H11.8022H11.7861H11.77H11.7538H11.7377H11.7215H11.7053H11.6891H11.6729H11.6567H11.6404H11.6241H11.6078H11.5915H11.5751H11.5588H11.5424H11.526H11.5096H11.4931H11.4767H11.4602H11.4437H11.4272H11.4106H11.3941H11.3775H11.3609H11.3442H11.3276H11.3109H11.2942H11.2775H11.2608H11.244H11.2273H11.2105H11.1936H11.1768H11.1599C10.5628 19.8533 10.1575 19.6496 9.90069 19.382C9.63782 19.1082 9.5 18.7358 9.5 18.3533C9.5 17.9707 9.63781 17.5984 9.90068 17.3245C10.1575 17.057 10.5628 16.8533 11.1599 16.8533Z" stroke="black"/>
<path d="M7.5 18.3533C7.5 19.1817 6.82843 19.8533 6 19.8533C5.17157 19.8533 4.5 19.1817 4.5 18.3533C4.5 17.5248 5.17157 16.8533 6 16.8533C6.82843 16.8533 7.5 17.5248 7.5 18.3533Z" stroke="black"/>
<path d="M25.5001 18.3533C25.5001 19.1817 24.8285 19.8533 24.0001 19.8533C23.1716 19.8533 22.5001 19.1817 22.5001 18.3533C22.5001 17.5249 23.1716 16.8533 24.0001 16.8533C24.8285 16.8533 25.5001 17.5249 25.5001 18.3533Z" stroke="black"/>
<path d="M21.3 10L21.3 3L24.18 3C25.1 3 25.8233 3.2 26.35 3.6C26.8833 3.99333 27.15 4.57667 27.15 5.35C27.15 6.11667 26.8833 6.7 26.35 7.1C25.8233 7.49333 25.1 7.69 24.18 7.69L22.02 7.69L22.6 7.09L22.6 10L21.3 10ZM22.6 7.23L22.02 6.64L24.17 6.64C24.7033 6.64 25.1133 6.53 25.4 6.31C25.6933 6.08333 25.84 5.76667 25.84 5.36C25.84 4.95333 25.6933 4.64333 25.4 4.43C25.1133 4.21 24.7033 4.1 24.17 4.1L22.02 4.1L22.6 3.46L22.6 7.23ZM20.3 8.96L20.3 8.26L24.8 8.26L24.8 8.96L20.3 8.96Z" fill="black"/>
</svg>
