<svg width="16" height="18" viewBox="0 0 16 18" fill="none" xmlns="http://www.w3.org/2000/svg">
<path d="M4.16 16L4.16 4.8L8.352 4.8C9.77067 4.8 10.8853 5.12 11.696 5.76C12.5173 6.4 12.928 7.31733 12.928 8.512C12.928 9.71733 12.5173 10.64 11.696 11.28C10.8853 11.92 9.77067 12.24 8.352 12.24L4.816 12.24L5.344 11.68L5.344 16L4.16 16ZM5.344 11.776L4.816 11.232L8.368 11.232C9.456 11.232 10.288 10.9973 10.864 10.528C11.4507 10.0587 11.744 9.392 11.744 8.528C11.744 7.664 11.4507 6.99733 10.864 6.528C10.288 6.05866 9.456 5.824 8.368 5.824L4.816 5.824L5.344 5.264L5.344 11.776ZM2.48 13.92L2.48 13.216L8.944 13.216L8.944 13.92L2.48 13.92Z" fill="black"/>
</svg>
