<svg width="24" height="24" viewBox="0 0 24 24" fill="none" xmlns="http://www.w3.org/2000/svg">
<path d="M3 4L3 22" stroke="#B8B8B8" stroke-width="1.5"/>
<path d="M11.9999 3L11.9999 21" stroke="#B8B8B8" stroke-width="1.5"/>
<path d="M18.6665 22.2298L18.6665 18.5M18.6665 18.5L18.6665 15.167C18.6665 14.8909 18.8904 14.667 19.1665 14.667L21.3037 14.667C21.9449 14.667 22.5417 14.9946 22.886 15.5355V15.5355C23.263 16.1278 23.2776 16.8811 22.9238 17.4876L22.8992 17.5298C22.5487 18.1306 21.9055 18.5 21.2099 18.5L20.4999 18.5M18.6665 18.5L20.4999 18.5M20.4999 18.5L23.1892 22.2298" stroke="#B8B8B8" stroke-width="1.5" stroke-linecap="round"/>
<path d="M20.9999 2.99999L20.9999 8.5C20.9999 10.1568 19.6567 11.5 17.9999 11.5L2.5 11.5" stroke="#B8B8B8" stroke-width="1.5"/>
<path d="M5.05001 2.5C5.05001 3.60457 4.15458 4.5 3.05001 4.5C1.94544 4.5 1.05001 3.60457 1.05001 2.5C1.05001 1.39543 1.94544 0.5 3.05001 0.5C4.15458 0.5 5.05001 1.39543 5.05001 2.5Z" fill="#B8B8B8" stroke="#B8B8B8"/>
<path d="M5 20.55C5 21.6546 4.10457 22.55 3 22.55C1.89543 22.55 1 21.6546 1 20.55C1 19.4455 1.89543 18.55 3 18.55C4.10457 18.55 5 19.4455 5 20.55Z" fill="#B8B8B8" stroke="#B8B8B8"/>
<path d="M13.9999 20.45C13.9999 21.5546 13.1044 22.45 11.9999 22.45C10.8953 22.45 9.99988 21.5546 9.99988 20.45C9.99988 19.3454 10.8953 18.45 11.9999 18.45C13.1044 18.45 13.9999 19.3454 13.9999 20.45Z" fill="#B8B8B8" stroke="#B8B8B8"/>
<path d="M14 2.55001C14 3.65458 13.1046 4.55001 12 4.55001C10.8954 4.55001 10 3.65458 10 2.55001C10 1.44544 10.8954 0.550009 12 0.550009C13.1046 0.550009 14 1.44544 14 2.55001Z" fill="#B8B8B8" stroke="#B8B8B8"/>
<path d="M23 2.5C23 3.60457 22.1046 4.5 21 4.5C19.8954 4.5 19 3.60457 19 2.5C19 1.39543 19.8954 0.5 21 0.5C22.1046 0.5 23 1.39543 23 2.5Z" fill="#B8B8B8" stroke="#B8B8B8"/>
</svg>
