<svg width="53" height="52" viewBox="0 0 53 52" fill="none" xmlns="http://www.w3.org/2000/svg">
<path d="M2 1H13.5433V32.0227L2 22.7692V1Z" stroke="white"/>
<path d="M18.154 1L26.2468 1.03137L28.1288 1.15684L29.8855 1.37641L31.0775 1.56462L32.1754 1.78419L33.2419 2.03513L34.4966 2.38018L35.6258 2.75659L36.5669 3.10164L37.4138 3.44668L38.5117 3.94856L39.5154 4.45045L40.3624 4.92096L41.3348 5.48558L42.3071 6.15999L43.2481 6.83439L44.2519 7.68132L45.4753 8.81056L46.4163 9.87706L46.7614 10.2848L47.2319 10.8808L47.7338 11.5709L48.2984 12.4178L48.9885 13.5471L49.3021 14.1431L49.6786 14.8645L50.3059 16.3074L50.651 17.2485L50.9333 18.1424L51.1528 18.911L51.4038 19.9461L51.5606 20.6989L51.6861 21.4517L51.8743 22.8947L51.937 23.6475L51.9998 24.9649V26.1883L51.8743 28.7918L51.7488 29.8269L51.592 30.7993L51.4979 31.3012L51.4352 31.6149L51.3411 32.0227L51.0587 33.1833L50.7764 34.0616L50.651 34.438L50.4941 34.8771L50.3059 35.379L50.0863 35.9123L49.8668 36.4141L49.5845 37.0101L49.2708 37.6375L48.6434 38.7353L48.2043 39.4254L47.7651 40.0842L47.3574 40.6488L46.9182 41.2448L46.0713 42.2485L45.3498 43.0014L44.5343 43.7855L43.7187 44.507L42.5267 45.448L41.5857 46.0754L40.7701 46.6086L39.1703 47.5183L37.7275 48.177L36.8805 48.5221L36.3159 48.7416L36.065 48.8357L34.9357 49.2122L34.1202 49.4631L32.6459 49.8395L31.1089 50.1532L29.6346 50.3728L28.2544 50.5296L26.9997 50.6237L25.4138 50.6864H18.154H2.03101L13.543 41.2448H24.5216L25.9018 41.182L26.8742 41.0879L28.1289 40.8997L28.7563 40.7742L29.1641 40.6801L29.5405 40.586L29.8855 40.4919L30.2933 40.3665L30.8579 40.1783L31.3598 39.9901L31.7362 39.8332L32.3008 39.5823L32.74 39.3627L33.1478 39.1431L33.3673 39.0177L33.681 38.8294L34.2143 38.4844L34.873 38.0139L35.218 37.7316L35.6885 37.3238L36.0963 36.9474L36.2532 36.7905L36.7551 36.2573L37.1628 35.7868L37.3824 35.5045L37.6647 35.1281L38.0098 34.6262L38.3234 34.1243L38.6371 33.5597L38.8881 33.0578L39.139 32.4932L39.3272 32.0227L39.5154 31.4894L39.6722 30.9875L39.8605 30.2974L40.0173 29.6073L40.08 29.2623L40.1114 29.0741L40.1741 28.6663L40.2055 28.4467L40.2369 28.1958L40.2682 27.9135L40.2996 27.5684L40.331 27.1293L40.3623 26.4078V25.6864V25.4668V25.2472L40.331 24.5885L40.2996 24.1494L40.2369 23.4906L40.1428 22.8319L40.0487 22.2673L39.9232 21.6713L39.8291 21.2949L39.7036 20.8244L39.6409 20.6048L39.4527 20.0402L39.3272 19.6951L39.1076 19.1619L38.7626 18.4091L38.2921 17.5621L37.947 17.0289L37.7274 16.7152L37.3824 16.2447L37.1315 15.931L36.8805 15.6487L36.4727 15.2096L36.3159 15.0527L36.0963 14.8332L35.9395 14.6763L35.3435 14.1431L35.1553 13.9862L34.8416 13.7353L34.3397 13.3589L34.1202 13.202L33.4301 12.7629L32.6459 12.3237L32.3949 12.1983L31.9244 11.9787L31.4853 11.7905L31.1716 11.665L30.9207 11.5709L30.4815 11.4141L29.7601 11.1945L29.415 11.1004L28.9131 10.9749L28.474 10.8808L27.8153 10.7554L27.1879 10.6613L26.4037 10.5671L25.0235 10.473L22.2632 10.4536H18.154V1Z" stroke="white"/>
</svg>
