<svg width="179" height="43" viewBox="0 0 179 43" fill="none" xmlns="http://www.w3.org/2000/svg">
<path d="M17.179 35.799C18.663 35.799 19.9703 35.587 21.101 35.163C22.267 34.7037 23.3447 33.997 24.334 33.043L28.733 37.813C26.0477 40.887 22.1257 42.424 16.967 42.424C13.7517 42.424 10.9073 41.8057 8.434 40.569C5.96067 39.297 4.05267 37.548 2.71 35.322C1.36733 33.096 0.696 30.5697 0.696 27.743C0.696 24.9517 1.34967 22.443 2.657 20.217C3.99967 17.9557 5.81933 16.2067 8.116 14.97C10.448 13.698 13.0627 13.062 15.96 13.062C18.6807 13.062 21.154 13.645 23.38 14.811C25.606 15.9417 27.3727 17.6023 28.68 19.793C30.0227 21.9483 30.694 24.51 30.694 27.478L9.6 31.559C10.2007 32.9723 11.137 34.0323 12.409 34.739C13.7163 35.4457 15.3063 35.799 17.179 35.799ZM15.96 19.316C13.8753 19.316 12.1793 19.9873 10.872 21.33C9.56467 22.6727 8.87567 24.5277 8.805 26.895L22.691 24.192C22.3023 22.708 21.5073 21.5243 20.306 20.641C19.1047 19.7577 17.656 19.316 15.96 19.316ZM53.4235 40.622C52.6109 41.2227 51.6039 41.682 50.4025 42C49.2365 42.2827 48.0175 42.424 46.7455 42.424C43.3182 42.424 40.6859 41.5583 38.8485 39.827C37.0112 38.0957 36.0925 35.5517 36.0925 32.195V7.179H44.3605V14.122H51.4095V20.482H44.3605V32.089C44.3605 33.2903 44.6609 34.2267 45.2615 34.898C45.8622 35.534 46.7279 35.852 47.8585 35.852C49.1305 35.852 50.2612 35.4987 51.2505 34.792L53.4235 40.622ZM86.1515 13.486V42H78.2545V38.714C76.2051 41.1873 73.2371 42.424 69.3505 42.424C66.6651 42.424 64.2271 41.8233 62.0365 40.622C59.8811 39.4207 58.1851 37.707 56.9485 35.481C55.7118 33.255 55.0935 30.6757 55.0935 27.743C55.0935 24.8103 55.7118 22.231 56.9485 20.005C58.1851 17.779 59.8811 16.0653 62.0365 14.864C64.2271 13.6627 66.6651 13.062 69.3505 13.062C72.9898 13.062 75.8341 14.2103 77.8835 16.507V13.486H86.1515ZM70.7815 35.64C72.8661 35.64 74.5975 34.9333 75.9755 33.52C77.3535 32.0713 78.0425 30.1457 78.0425 27.743C78.0425 25.3403 77.3535 23.4323 75.9755 22.019C74.5975 20.5703 72.8661 19.846 70.7815 19.846C68.6615 19.846 66.9125 20.5703 65.5345 22.019C64.1565 23.4323 63.4675 25.3403 63.4675 27.743C63.4675 30.1457 64.1565 32.0713 65.5345 33.52C66.9125 34.9333 68.6615 35.64 70.7815 35.64ZM93.8062 13.486H102.074V42H93.8062V13.486ZM97.9402 9.511C96.4209 9.511 95.1842 9.06933 94.2302 8.186C93.2762 7.30266 92.7992 6.20733 92.7992 4.9C92.7992 3.59266 93.2762 2.49733 94.2302 1.614C95.1842 0.730664 96.4209 0.288997 97.9402 0.288997C99.4596 0.288997 100.696 0.712998 101.65 1.561C102.604 2.409 103.081 3.469 103.081 4.741C103.081 6.119 102.604 7.26733 101.65 8.186C100.696 9.06933 99.4596 9.511 97.9402 9.511ZM119.977 42.424C116.761 42.424 114.253 41.576 112.451 39.88C110.649 38.1487 109.748 35.7107 109.748 32.566V2.674H118.016V32.089C118.016 33.2903 118.316 34.2267 118.917 34.898C119.553 35.534 120.436 35.852 121.567 35.852C121.991 35.852 122.415 35.799 122.839 35.693C123.298 35.587 123.651 35.4633 123.899 35.322L124.27 41.735C122.892 42.1943 121.461 42.424 119.977 42.424ZM142.174 35.799C143.658 35.799 144.965 35.587 146.096 35.163C147.262 34.7037 148.34 33.997 149.329 33.043L153.728 37.813C151.043 40.887 147.121 42.424 141.962 42.424C138.747 42.424 135.902 41.8057 133.429 40.569C130.956 39.297 129.048 37.548 127.705 35.322C126.362 33.096 125.691 30.5697 125.691 27.743C125.691 24.9517 126.345 22.443 127.652 20.217C128.995 17.9557 130.814 16.2067 133.111 14.97C135.443 13.698 138.058 13.062 140.955 13.062C143.676 13.062 146.149 13.645 148.375 14.811C150.601 15.9417 152.368 17.6023 153.675 19.793C155.018 21.9483 155.689 24.51 155.689 27.478L134.595 31.559C135.196 32.9723 136.132 34.0323 137.404 34.739C138.711 35.4457 140.301 35.799 142.174 35.799ZM140.955 19.316C138.87 19.316 137.174 19.9873 135.867 21.33C134.56 22.6727 133.871 24.5277 133.8 26.895L147.686 24.192C147.297 22.708 146.502 21.5243 145.301 20.641C144.1 19.7577 142.651 19.316 140.955 19.316ZM169.144 17.249C170.133 15.871 171.458 14.8287 173.119 14.122C174.815 13.4153 176.758 13.062 178.949 13.062V20.694C178.03 20.6233 177.412 20.588 177.094 20.588C174.726 20.588 172.871 21.2593 171.529 22.602C170.186 23.9093 169.515 25.888 169.515 28.538V42H161.247V13.486H169.144V17.249Z" fill="white"/>
</svg>
