<svg width="50" height="50" viewBox="0 0 50 50" fill="none" xmlns="http://www.w3.org/2000/svg">
<path d="M0 0H11.5433V31.0227L0 21.7692V0Z" fill="black"/>
<path d="M16.154 0L24.2468 0.0313677L26.1288 0.156839L27.8855 0.376412L29.0775 0.564619L30.1754 0.784193L31.2419 1.03513L32.4966 1.38018L33.6258 1.75659L34.5669 2.10164L35.4138 2.44668L36.5117 2.94856L37.5154 3.45045L38.3624 3.92096L39.3348 4.48558L40.3071 5.15999L41.2481 5.83439L42.2519 6.68132L43.4753 7.81056L44.4163 8.87706L44.7614 9.28484L45.2319 9.88083L45.7338 10.5709L46.2984 11.4178L46.9885 12.5471L47.3021 13.1431L47.6786 13.8645L48.3059 15.3074L48.651 16.2485L48.9333 17.1424L49.1528 17.911L49.4038 18.9461L49.5606 19.6989L49.6861 20.4517L49.8743 21.8947L49.937 22.6475L49.9998 23.9649V25.1883L49.8743 27.7918L49.7488 28.8269L49.592 29.7993L49.4979 30.3012L49.4352 30.6149L49.3411 31.0227L49.0587 32.1833L48.7764 33.0616L48.651 33.438L48.4941 33.8771L48.3059 34.379L48.0863 34.9123L47.8668 35.4141L47.5845 36.0101L47.2708 36.6375L46.6434 37.7353L46.2043 38.4254L45.7651 39.0842L45.3574 39.6488L44.9182 40.2448L44.0713 41.2485L43.3498 42.0014L42.5343 42.7855L41.7187 43.507L40.5267 44.448L39.5857 45.0754L38.7701 45.6086L37.1703 46.5183L35.7275 47.177L34.8805 47.5221L34.3159 47.7416L34.065 47.8357L32.9357 48.2122L32.1202 48.4631L30.6459 48.8395L29.1089 49.1532L27.6346 49.3728L26.2544 49.5296L24.9997 49.6237L23.4138 49.6864H16.154H0.0310059L11.543 40.2448H22.5216L23.9018 40.182L24.8742 40.0879L26.1289 39.8997L26.7563 39.7742L27.1641 39.6801L27.5405 39.586L27.8855 39.4919L28.2933 39.3665L28.8579 39.1783L29.3598 38.9901L29.7362 38.8332L30.3008 38.5823L30.74 38.3627L31.1478 38.1431L31.3673 38.0177L31.681 37.8294L32.2143 37.4844L32.873 37.0139L33.218 36.7316L33.6885 36.3238L34.0963 35.9474L34.2532 35.7905L34.7551 35.2573L35.1628 34.7868L35.3824 34.5045L35.6647 34.1281L36.0098 33.6262L36.3234 33.1243L36.6371 32.5597L36.8881 32.0578L37.139 31.4932L37.3272 31.0227L37.5154 30.4894L37.6722 29.9875L37.8605 29.2974L38.0173 28.6073L38.08 28.2623L38.1114 28.0741L38.1741 27.6663L38.2055 27.4467L38.2369 27.1958L38.2682 26.9135L38.2996 26.5684L38.331 26.1293L38.3623 25.4078V24.6864V24.4668V24.2472L38.331 23.5885L38.2996 23.1494L38.2369 22.4906L38.1428 21.8319L38.0487 21.2673L37.9232 20.6713L37.8291 20.2949L37.7036 19.8244L37.6409 19.6048L37.4527 19.0402L37.3272 18.6951L37.1076 18.1619L36.7626 17.4091L36.2921 16.5621L35.947 16.0289L35.7274 15.7152L35.3824 15.2447L35.1315 14.931L34.8805 14.6487L34.4727 14.2096L34.3159 14.0527L34.0963 13.8332L33.9395 13.6763L33.3435 13.1431L33.1553 12.9862L32.8416 12.7353L32.3397 12.3589L32.1202 12.202L31.4301 11.7629L30.6459 11.3237L30.3949 11.1983L29.9244 10.9787L29.4853 10.7905L29.1716 10.665L28.9207 10.5709L28.4815 10.4141L27.7601 10.1945L27.415 10.1004L26.9131 9.97493L26.474 9.88083L25.8153 9.75535L25.1879 9.66125L24.4037 9.56715L23.0235 9.47305L20.2632 9.4536H16.154V0Z" fill="black"/>
</svg>
