<svg width="179" height="43" viewBox="0 0 179 43" fill="none" xmlns="http://www.w3.org/2000/svg">
<path d="M17.1985 35.799C18.6825 35.799 19.9899 35.587 21.1205 35.163C22.2865 34.7037 23.3642 33.997 24.3535 33.043L28.7525 37.813C26.0672 40.887 22.1452 42.424 16.9865 42.424C13.7712 42.424 10.9269 41.8057 8.45353 40.569C5.9802 39.297 4.0722 37.548 2.72953 35.322C1.38686 33.096 0.715531 30.5697 0.715531 27.743C0.715531 24.9517 1.3692 22.443 2.67653 20.217C4.0192 17.9557 5.83886 16.2067 8.13553 14.97C10.4675 13.698 13.0822 13.062 15.9795 13.062C18.7002 13.062 21.1735 13.645 23.3995 14.811C25.6255 15.9417 27.3922 17.6023 28.6995 19.793C30.0422 21.9483 30.7135 24.51 30.7135 27.478L9.61953 31.559C10.2202 32.9723 11.1565 34.0323 12.4285 34.739C13.7359 35.4457 15.3259 35.799 17.1985 35.799ZM15.9795 19.316C13.8949 19.316 12.1989 19.9873 10.8915 21.33C9.5842 22.6727 8.8952 24.5277 8.82453 26.895L22.7105 24.192C22.3219 22.708 21.5269 21.5243 20.3255 20.641C19.1242 19.7577 17.6755 19.316 15.9795 19.316ZM53.4431 40.622C52.6304 41.2227 51.6234 41.682 50.4221 42C49.2561 42.2827 48.0371 42.424 46.7651 42.424C43.3377 42.424 40.7054 41.5583 38.8681 39.827C37.0307 38.0957 36.1121 35.5517 36.1121 32.195V7.179H44.3801V14.122H51.4291V20.482H44.3801V32.089C44.3801 33.2903 44.6804 34.2267 45.2811 34.898C45.8817 35.534 46.7474 35.852 47.8781 35.852C49.1501 35.852 50.2807 35.4987 51.2701 34.792L53.4431 40.622ZM86.171 13.486V42H78.274V38.714C76.2247 41.1873 73.2567 42.424 69.37 42.424C66.6847 42.424 64.2467 41.8233 62.056 40.622C59.9007 39.4207 58.2047 37.707 56.968 35.481C55.7313 33.255 55.113 30.6757 55.113 27.743C55.113 24.8103 55.7313 22.231 56.968 20.005C58.2047 17.779 59.9007 16.0653 62.056 14.864C64.2467 13.6627 66.6847 13.062 69.37 13.062C73.0093 13.062 75.8537 14.2103 77.903 16.507V13.486H86.171ZM70.801 35.64C72.8857 35.64 74.617 34.9333 75.995 33.52C77.373 32.0713 78.062 30.1457 78.062 27.743C78.062 25.3403 77.373 23.4323 75.995 22.019C74.617 20.5703 72.8857 19.846 70.801 19.846C68.681 19.846 66.932 20.5703 65.554 22.019C64.176 23.4323 63.487 25.3403 63.487 27.743C63.487 30.1457 64.176 32.0713 65.554 33.52C66.932 34.9333 68.681 35.64 70.801 35.64ZM93.8258 13.486H102.094V42H93.8258V13.486ZM97.9598 9.511C96.4404 9.511 95.2038 9.06933 94.2498 8.186C93.2958 7.30266 92.8188 6.20733 92.8188 4.9C92.8188 3.59266 93.2958 2.49733 94.2498 1.614C95.2038 0.730664 96.4404 0.288997 97.9598 0.288997C99.4791 0.288997 100.716 0.712998 101.67 1.561C102.624 2.409 103.101 3.469 103.101 4.741C103.101 6.119 102.624 7.26733 101.67 8.186C100.716 9.06933 99.4791 9.511 97.9598 9.511ZM119.996 42.424C116.781 42.424 114.272 41.576 112.47 39.88C110.668 38.1487 109.767 35.7107 109.767 32.566V2.674H118.035V32.089C118.035 33.2903 118.336 34.2267 118.936 34.898C119.572 35.534 120.456 35.852 121.586 35.852C122.01 35.852 122.434 35.799 122.858 35.693C123.318 35.587 123.671 35.4633 123.918 35.322L124.289 41.735C122.911 42.1943 121.48 42.424 119.996 42.424ZM142.194 35.799C143.678 35.799 144.985 35.587 146.116 35.163C147.282 34.7037 148.359 33.997 149.349 33.043L153.748 37.813C151.062 40.887 147.14 42.424 141.982 42.424C138.766 42.424 135.922 41.8057 133.449 40.569C130.975 39.297 129.067 37.548 127.725 35.322C126.382 33.096 125.711 30.5697 125.711 27.743C125.711 24.9517 126.364 22.443 127.672 20.217C129.014 17.9557 130.834 16.2067 133.131 14.97C135.463 13.698 138.077 13.062 140.975 13.062C143.695 13.062 146.169 13.645 148.395 14.811C150.621 15.9417 152.387 17.6023 153.695 19.793C155.037 21.9483 155.709 24.51 155.709 27.478L134.615 31.559C135.215 32.9723 136.152 34.0323 137.424 34.739C138.731 35.4457 140.321 35.799 142.194 35.799ZM140.975 19.316C138.89 19.316 137.194 19.9873 135.887 21.33C134.579 22.6727 133.89 24.5277 133.82 26.895L147.706 24.192C147.317 22.708 146.522 21.5243 145.321 20.641C144.119 19.7577 142.671 19.316 140.975 19.316ZM169.163 17.249C170.153 15.871 171.478 14.8287 173.138 14.122C174.834 13.4153 176.778 13.062 178.968 13.062V20.694C178.05 20.6233 177.431 20.588 177.113 20.588C174.746 20.588 172.891 21.2593 171.548 22.602C170.206 23.9093 169.534 25.888 169.534 28.538V42H161.266V13.486H169.163V17.249Z" fill="white"/>
</svg>
