<svg width="835" height="813" viewBox="0 0 835 813" fill="none" xmlns="http://www.w3.org/2000/svg">
<path d="M28 11H212V505.5L28 358V11Z" fill="black" stroke="white" stroke-width="20"/>
<path d="M285.499 11L414.499 11.5L444.499 13.5L472.5 17L491.5 20L509 23.5L526 27.5L546 33L564 39L579 44.5L592.5 50L610 58L626 66L639.5 73.5L655 82.5L670.499 93.25L685.499 104L701.5 117.5L721 135.5L736 152.5L741.5 159L749 168.5L757 179.5L766 193L777 211L782 220.5L788 232L798 255L803.5 270L808 284.25L811.5 296.5L815.5 313L818 325L820 337L823 360L824 372L825 393V412.5L823 454L821 470.5L818.5 486L817 494L816 499L814.5 505.5L810 524L805.5 538L803.5 544L801 551L798 559L794.5 567.5L791 575.5L786.5 585L781.5 595L771.5 612.5L764.5 623.5L757.5 634L751 643L744 652.5L730.5 668.5L719 680.5L706 693L693 704.5L674 719.5L659 729.5L646 738L620.499 752.5L597.5 763L584 768.5L575 772L571 773.5L553 779.5L540 783.5L516.5 789.5L492 794.5L468.5 798L446.5 800.5L426.5 802L401.221 803H285.499H28.5L212 652.5H387L409 651.5L424.5 650L444.5 647L454.5 645L461 643.5L467 642L472.5 640.5L479 638.5L488 635.5L496 632.5L502 630L511 626L518 622.5L524.5 619L528 617L533 614L541.5 608.5L552 601L557.5 596.5L565 590L571.5 584L574 581.5L582 573L588.5 565.5L592 561L596.5 555L602 547L607 539L612 530L616 522L620 513L623 505.5L626 497L628.5 489L631.5 478L634 467L635 461.5L635.5 458.5L636.5 452L637 448.5L637.5 444.5L638 440L638.5 434.5L639 427.5L639.5 416V404.5V401V397.5L639 387L638.5 380L637.5 369.5L636 359L634.5 350L632.5 340.5L631 334.5L629 327L628 323.5L625 314.5L623 309L619.5 300.5L614 288.5L606.5 275L601 266.5L597.5 261.5L592 254L588 249L584 244.5L577.5 237.5L575 235L571.5 231.5L569 229L559.5 220.5L556.5 218L551.5 214L543.5 208L540 205.5L529 198.5L516.5 191.5L512.5 189.5L505 186L498 183L493 181L489 179.5L482 177L470.5 173.5L465 172L457 170L450 168.5L439.5 166.5L429.5 165L417 163.5L395 162L351 161.69H285.499V11Z" fill="black" stroke="white" stroke-width="20"/>
</svg>
