<svg width="30" height="30" viewBox="0 0 30 30" fill="none" xmlns="http://www.w3.org/2000/svg">
<path d="M1.81007 26.6455H3.29164C4.22078 26.6455 4.94898 25.9298 4.94898 25.0007V22.8913C7.7364 23.0671 11.7668 23.1927 14.9936 23.1927C18.233 23.1927 22.2635 23.0671 25.0508 22.8913V25.0007C25.0508 25.9298 25.7665 26.6455 26.7081 26.6455H28.1898C29.1314 26.6455 29.8596 25.9298 29.8596 25.0007V17.756C29.8596 15.6466 29.4328 14.4538 28.2651 12.9472L27.2105 11.5786C26.7459 9.31849 25.9171 6.94544 25.4777 6.01635C24.8122 4.59751 23.5064 3.75628 21.8366 3.53026C20.9953 3.42987 18.2456 3.35449 14.9936 3.35449C11.7543 3.35449 9.00455 3.4424 8.16326 3.53026C6.49339 3.73115 5.18758 4.59751 4.52212 6.01635C4.08267 6.94544 3.25398 9.31849 2.7894 11.5786L1.73469 12.9472C0.567047 14.4538 0.140137 15.6466 0.140137 17.756V25.0007C0.140137 25.9298 0.868387 26.6455 1.81007 26.6455ZM5.32569 10.5364C5.62703 9.15526 6.22971 7.35981 6.64403 6.63156C6.98303 6.04142 7.34715 5.79033 8.02515 5.70242C8.97942 5.56431 11.1139 5.48899 14.9936 5.48899C18.886 5.48899 21.0204 5.53919 21.9747 5.70242C22.6401 5.80287 23.0042 6.04142 23.3557 6.63156C23.7828 7.34722 24.3478 9.15526 24.6741 10.5364C24.7872 11.001 24.5988 11.1768 24.1092 11.1391C22.0249 11.0135 19.5388 10.8754 14.9936 10.8754C10.461 10.8754 7.97496 11.0135 5.89071 11.1391C5.40101 11.1768 5.22524 11.001 5.32569 10.5364ZM5.84046 19.9407C4.64769 19.9407 3.75621 19.0367 3.75621 17.8564C3.75621 16.6637 4.64769 15.7722 5.84046 15.7722C7.03328 15.7722 7.92471 16.6637 7.92471 17.8564C7.92471 19.0367 7.03328 19.9407 5.84046 19.9407ZM24.1593 19.9407C22.9667 19.9407 22.0751 19.0367 22.0751 17.8564C22.0751 16.6637 22.9667 15.7722 24.1593 15.7722C25.3396 15.7722 26.2437 16.6637 26.2437 17.8564C26.2437 19.0367 25.3396 19.9407 24.1593 19.9407ZM11.6663 19.3631C10.7875 19.3631 10.1722 18.7354 10.1722 17.8564C10.1722 16.965 10.7875 16.3497 11.6663 16.3497H18.3335C19.2124 16.3497 19.8276 16.965 19.8276 17.8564C19.8276 18.7354 19.2124 19.3631 18.3335 19.3631H11.6663Z" fill="#D9D9D9"/>
</svg>
