<svg width="31" height="36" viewBox="0 0 31 36" fill="none" xmlns="http://www.w3.org/2000/svg">
<path d="M3.8 23.6L3.83735 23.5502L3.86824 23.4961L4.02365 23.2242C5.31877 20.9577 6 18.3925 6 15.7821V12.5548C6 11.2895 6.1847 10.0311 6.54826 8.81924L6.81867 7.91786C7.19878 6.65083 7.84622 5.48006 8.7173 4.48453L8.82697 4.35919C9.95326 3.072 11.4345 2.1453 13.0847 1.69524C14.6544 1.26714 16.3131 1.28796 17.8714 1.75546C19.2497 2.16894 20.5038 2.918 21.5213 3.93549L21.7929 4.20711C22.9887 5.40288 23.869 6.87673 24.3549 8.49649L24.4903 8.94762C24.8283 10.0743 25 11.2444 25 12.4207V15.7821C25 18.3925 25.6812 20.9577 26.9764 23.2242L27.1318 23.4961L27.1626 23.5502L27.2 23.6L29.0515 26.0686C29.4119 26.5492 29.3641 27.2217 28.9393 27.6464C28.713 27.8728 28.4059 28 28.0858 28H2.91421C2.59407 28 2.28704 27.8728 2.06066 27.6464C1.63589 27.2217 1.5881 26.5492 1.94853 26.0686L3.8 23.6Z" stroke="black" stroke-width="2"/>
<path d="M11 29.4585V28H20V29.4585C20 31.2231 18.9686 32.8249 17.3621 33.5551C16.179 34.0929 14.821 34.0929 13.6379 33.5551C12.0314 32.8249 11 31.2231 11 29.4585Z" stroke="black" stroke-width="2"/>
</svg>
