<svg width="27" height="25" viewBox="0 0 27 25" fill="none" xmlns="http://www.w3.org/2000/svg">
<circle cx="13.5" cy="13.5" r="5" stroke="black" stroke-width="2"/>
<path d="M26 8V22C26 23.1046 25.1046 24 24 24H3C1.89543 24 1 23.1046 1 22V8C1 6.89543 1.89543 6 3 6H5.7457C6.63866 6 7.42343 5.40805 7.66875 4.54944L8.18428 2.74506C8.3042 2.32535 8.55813 1.9564 8.90733 1.6945L9.3 1.4C9.64619 1.14036 10.0673 1 10.5 1H13.5H16.5C16.9327 1 17.3538 1.14036 17.7 1.4L18.0927 1.6945C18.4419 1.9564 18.6958 2.32535 18.8157 2.74506L19.3313 4.54944C19.5766 5.40804 20.3613 6 21.2543 6H24C25.1046 6 26 6.89543 26 8Z" stroke="black" stroke-width="2"/>
</svg>
