<svg width="30" height="28" viewBox="0 0 30 28" fill="none" xmlns="http://www.w3.org/2000/svg">
<circle cx="15" cy="6" r="2.25" stroke="black" stroke-width="1.5"/>
<path d="M15 27.25C7.08037 27.25 0.75 21.2699 0.75 14C0.75 6.73012 7.08037 0.75 15 0.75C22.9196 0.75 29.25 6.73012 29.25 14C29.25 15.1219 29.1002 16.2106 28.8183 17.25H28H26.5797C25.8198 17.25 25.0612 17.3128 24.3117 17.4377L23.0624 17.6459C22.5341 17.734 22.0219 17.9005 21.5429 18.14L21.3354 18.2438C20.4303 18.6963 19.6963 19.4303 19.2438 20.3354C18.9191 20.9848 18.75 21.701 18.75 22.4271V23.1522C18.75 24.138 18.9381 25.1147 19.3042 26.03L19.509 26.5419C19.4631 26.5587 19.4179 26.5753 19.3735 26.5917C19.3404 26.6039 19.3076 26.6159 19.2752 26.6278C18.9713 26.7393 18.6842 26.8409 18.3407 26.9304C17.6607 27.1075 16.7082 27.25 15 27.25Z" stroke="black" stroke-width="1.5"/>
<circle cx="23" cy="11" r="2.25" stroke="black" stroke-width="1.5"/>
<circle cx="7.24268" cy="11.2426" r="2.25" transform="rotate(45 7.24268 11.2426)" stroke="black" stroke-width="1.5"/>
<circle cx="9.36377" cy="20.435" r="2.25" transform="rotate(45 9.36377 20.435)" stroke="black" stroke-width="1.5"/>
</svg>
