<svg width="28" height="28" viewBox="0 0 28 28" fill="none" xmlns="http://www.w3.org/2000/svg">
<path d="M7.30093 25.1435L6.88182 24.8909L6.42524 25.0669C4.45865 25.8247 3.04999 26.3665 2.05566 26.6514C1.64632 26.7687 1.35391 26.8281 1.15094 26.8491C1.17186 26.6461 1.2313 26.3537 1.34858 25.9443C1.63348 24.95 2.17526 23.5414 2.93311 21.5748L3.10906 21.1182L2.85653 20.6991C1.67812 18.7434 1 16.4524 1 14C1 6.8203 6.8203 1 14 1C21.1797 1 27 6.8203 27 14C27 21.1797 21.1797 27 14 27C11.5476 27 9.2566 26.3219 7.30093 25.1435ZM0.907745 26.8519C0.907833 26.8518 0.909805 26.8522 0.913399 26.8532C0.909453 26.8525 0.907657 26.852 0.907745 26.8519ZM1.14684 27.0866C1.14782 27.0902 1.14816 27.0922 1.14808 27.0923C1.148 27.0923 1.14751 27.0905 1.14684 27.0866Z" stroke="black" stroke-width="2"/>
<circle cx="14" cy="14" r="2" fill="black"/>
<circle cx="20" cy="14" r="2" fill="black"/>
<circle cx="8" cy="14" r="2" fill="black"/>
</svg>
