<svg width="30" height="30" viewBox="0 0 30 30" fill="none" xmlns="http://www.w3.org/2000/svg">
<path d="M15 27.5C21.9035 27.5 27.5 21.9035 27.5 15C27.5 8.09644 21.9035 2.5 15 2.5C8.09644 2.5 2.5 8.09644 2.5 15C2.5 16.9996 2.96952 18.8895 3.80432 20.5656C4.02617 21.011 4.10001 21.5201 3.9714 22.0007L3.22689 24.7834C2.90369 25.9913 4.00876 27.0963 5.21669 26.7731L7.99924 26.0286C8.47991 25.9 8.98901 25.9739 9.43441 26.1956C11.1105 27.0305 13.0004 27.5 15 27.5Z" stroke="black" stroke-width="1.8"/>
<circle cx="23" cy="7" r="7" fill="white"/>
<line x1="23" y1="3" x2="23" y2="11" stroke="black" stroke-width="2" stroke-linecap="round"/>
<line x1="27" y1="7" x2="19" y2="7" stroke="black" stroke-width="2" stroke-linecap="round"/>
</svg>
