<svg width="30" height="28" viewBox="0 0 30 28" fill="none" xmlns="http://www.w3.org/2000/svg">
<circle cx="9.07275" cy="19" r="1" fill="black"/>
<circle cx="6.07275" cy="19" r="1" fill="black"/>
<path d="M14.9077 1.08698L0.999957 6.70607" stroke="black" stroke-width="1.5" stroke-linecap="round"/>
<path d="M28.9805 6.6191L15.0728 1" stroke="black" stroke-width="1.5" stroke-linecap="round"/>
<rect x="2.82275" y="14.75" width="24.5" height="8.5" rx="1.25" stroke="black" stroke-width="1.5"/>
<path d="M8.36739 7.75H21.7769C22.2696 7.75 22.7164 8.03948 22.9178 8.48921L25.5632 14.3978C25.6372 14.5632 25.5162 14.75 25.335 14.75H4.80314C4.62183 14.75 4.50082 14.5631 4.57505 14.3976L7.22696 8.48822C7.42855 8.03902 7.87504 7.75 8.36739 7.75Z" stroke="black" stroke-width="1.5"/>
<path d="M5.07275 23.25H9.07275C9.21082 23.25 9.32275 23.3619 9.32275 23.5V26C9.32275 26.6904 8.76311 27.25 8.07275 27.25H6.07275C5.3824 27.25 4.82275 26.6904 4.82275 26V23.5C4.82275 23.3619 4.93468 23.25 5.07275 23.25Z" stroke="black" stroke-width="1.5"/>
<path d="M21.0728 23.25H25.0728C25.2108 23.25 25.3228 23.3619 25.3228 23.5V26C25.3228 26.6904 24.7631 27.25 24.0728 27.25H22.0728C21.3824 27.25 20.8228 26.6904 20.8228 26V23.5C20.8228 23.3619 20.9347 23.25 21.0728 23.25Z" stroke="black" stroke-width="1.5"/>
<circle cx="24.0728" cy="19" r="1" fill="black"/>
<circle cx="21.0728" cy="19" r="1" fill="black"/>
</svg>
