<svg width="30" height="24" viewBox="0 0 30 24" fill="none" xmlns="http://www.w3.org/2000/svg">
<path d="M3.57548 9.15339C12.4014 8.35217 17.7456 8.34465 26.4259 9.15121C26.8181 9.18766 27.1714 9.41017 27.3753 9.75003L28.3419 11.3611L28.8012 12.2796C29.0963 12.8697 29.2499 13.5205 29.2499 14.1803V18.8157C18.3341 19.805 11.8789 19.738 0.749878 18.7251V14.1803C0.749878 13.5205 0.903495 12.8697 1.19856 12.2796L1.65782 11.3611L2.62286 9.75268C2.82733 9.41191 3.18192 9.18911 3.57548 9.15339Z" stroke="black" stroke-width="1.5"/>
<path d="M26.4999 8.99989C25.9623 6.43966 25.4637 4.86577 24.4852 2.59743C24.1928 1.91946 23.5388 1.46849 22.8019 1.42292C16.8845 1.05703 13.1094 1.05232 7.18639 1.4227C6.45557 1.4684 5.80518 1.91276 5.5142 2.58471C4.57745 4.74788 4.10223 6.34165 3.49988 8.99989" stroke="black" stroke-width="1.5" stroke-linecap="round"/>
<path d="M0.749878 21.9999V18.7509L5.02016 19.0984C5.14994 19.109 5.24988 19.2174 5.24988 19.3476V21.9999C5.24988 22.6902 4.69023 23.2499 3.99988 23.2499H1.99988C1.30952 23.2499 0.749878 22.6902 0.749878 21.9999Z" stroke="black" stroke-width="1.5"/>
<path d="M1.5 6.5L4.30629 6.5L3.75358 8.15811C3.68553 8.36229 3.49446 8.5 3.27924 8.5L1.5 8.5C1.22386 8.5 1 8.27614 1 8L1 7C1 6.72386 1.22386 6.5 1.5 6.5Z" stroke="black"/>
<path d="M28.5 6.5L25.6937 6.5L26.2464 8.15811C26.3145 8.36229 26.5055 8.5 26.7208 8.5L28.5 8.5C28.7761 8.5 29 8.27614 29 8L29 7C29 6.72386 28.7761 6.5 28.5 6.5Z" stroke="black"/>
<path d="M24.9799 19.2087L29.2499 18.8661V21.9999C29.2499 22.6903 28.6902 23.2499 27.9999 23.2499H25.9999C25.3095 23.2499 24.7499 22.6903 24.7499 21.9999V19.4579C24.7499 19.3276 24.85 19.2191 24.9799 19.2087Z" stroke="black" stroke-width="1.5"/>
<path d="M11.1598 13H11.1766H11.1935H11.2103H11.2271H11.2439H11.2606H11.2774H11.2941H11.3108H11.3274H11.3441H11.3607H11.3773H11.3939H11.4105H11.427H11.4435H11.46H11.4765H11.493H11.5094H11.5258H11.5422H11.5586H11.575H11.5913H11.6077H11.624H11.6402H11.6565H11.6727H11.689H11.7052H11.7214H11.7375H11.7537H11.7698H11.7859H11.802H11.8181H11.8341H11.8502H11.8662H11.8822H11.8982H11.9141H11.9301H11.946H11.9619H11.9778H11.9937H12.0095H12.0254H12.0412H12.057H12.0728H12.0886H12.1043H12.1201H12.1358H12.1515H12.1672H12.1828H12.1985H12.2141H12.2297H12.2453H12.2609H12.2765H12.2921H12.3076H12.3231H12.3386H12.3541H12.3696H12.3851H12.4005H12.4159H12.4313H12.4467H12.4621H12.4775H12.4929H12.5082H12.5235H12.5388H12.5541H12.5694H12.5847H12.5999H12.6152H12.6304H12.6456H12.6608H12.676H12.6911H12.7063H12.7214H12.7366H12.7517H12.7668H12.7819H12.7969H12.812H12.827H12.8421H12.8571H12.8721H12.8871H12.9021H12.9171H12.932H12.947H12.9619H12.9768H12.9917H13.0066H13.0215H13.0364H13.0512H13.0661H13.0809H13.0958H13.1106H13.1254H13.1402H13.155H13.1697H13.1845H13.1992H13.214H13.2287H13.2434H13.2581H13.2728H13.2875H13.3022H13.3168H13.3315H13.3461H13.3608H13.3754H13.39H13.4046H13.4192H13.4338H13.4484H13.4629H13.4775H13.4921H13.5066H13.5211H13.5356H13.5502H13.5647H13.5792H13.5936H13.6081H13.6226H13.6371H13.6515H13.666H13.6804H13.6948H13.7092H13.7237H13.7381H13.7525H13.7669H13.7812H13.7956H13.81H13.8674H13.9819H14.039H14.096H14.2097H14.3231H14.4363H14.5492H14.662H14.7747H14.8309H14.8872H14.9997H15.0138H15.0278H15.0419H15.056H15.07H15.0841H15.0982H15.1122H15.1263H15.1403H15.1544H15.1685H15.1826H15.1966H15.2107H15.2248H15.2388H15.2529H15.267H15.2811H15.2952H15.3092H15.3233H15.3374H15.3515H15.3656H15.3797H15.3938H15.4079H15.422H15.4361H15.4502H15.4643H15.4784H15.4925H15.5066H15.5207H15.5349H15.549H15.5631H15.5773H15.5914H15.6055H15.6197H15.6338H15.648H15.6621H15.6763H15.6905H15.7046H15.7188H15.733H15.7472H15.7613H15.7755H15.7897H15.8039H15.8181H15.8323H15.8466H15.8608H15.875H15.8892H15.9035H15.9177H15.932H15.9462H15.9605H15.9747H15.989H16.0033H16.0176H16.0318H16.0461H16.0604H16.0747H16.0891H16.1034H16.1177H16.132H16.3624H16.3913H16.4058H16.4203H16.4493H16.4783H16.5948H16.7119H16.7708H16.8297H16.8889H16.9482H17.0674H17.1875H17.2478H17.3083H17.4301H17.4913H17.522H17.5527H17.6764H17.7386H17.801H17.9267H17.9899H18.0535H18.1173H18.1814H18.2458H18.3105H18.3756H18.4409H18.5065H18.5725H18.6388H18.7055H18.7724H18.8398C19.437 13 19.8423 13.2037 20.0991 13.4713C20.362 13.7451 20.4998 14.1175 20.4998 14.5C20.4998 14.8825 20.362 15.2549 20.0991 15.5287C19.8423 15.7963 19.437 16 18.8398 16H18.8229H18.8061H18.7892H18.7724H18.7557H18.7389H18.7222H18.7055H18.6888H18.6721H18.6555H18.6388H18.6222H18.6056H18.5891H18.5725H18.556H18.5395H18.523H18.5065H18.4901H18.4737H18.4573H18.4409H18.4245H18.4082H18.3919H18.3756H18.3593H18.343H18.3268H18.3105H18.2943H18.2781H18.262H18.2458H18.2297H18.2136H18.1975H18.1814H18.1654H18.1493H18.1333H18.1173H18.1013H18.0854H18.0694H18.0535H18.0376H18.0217H18.0058H17.9899H17.9741H17.9583H17.9425H17.9267H17.9109H17.8952H17.8794H17.8637H17.848H17.8323H17.8167H17.801H17.7854H17.7697H17.7541H17.7385H17.723H17.7074H17.6919H17.6764H17.6609H17.6454H17.6299H17.6144H17.599H17.5835H17.5681H17.5527H17.5373H17.522H17.5066H17.4913H17.476H17.4606H17.4453H17.4301H17.4148H17.3995H17.3843H17.3691H17.3539H17.3387H17.3235H17.3083H17.2932H17.278H17.2629H17.2478H17.2327H17.2176H17.2025H17.1875H17.1724H17.1574H17.1424H17.1274H17.1124H17.0974H17.0824H17.0674H17.0525H17.0376H17.0226H17.0077H16.9928H16.9779H16.9631H16.9482H16.9334H16.9185H16.9037H16.8889H16.8741H16.8593H16.8445H16.8297H16.815H16.8002H16.7855H16.7707H16.756H16.7413H16.7266H16.7119H16.6973H16.6826H16.6679H16.6533H16.6387H16.624H16.6094H16.5948H16.5802H16.5656H16.5511H16.5365H16.5219H16.5074H16.4928H16.4783H16.4638H16.4493H16.4348H16.4203H16.4058H16.3913H16.3768H16.3624H16.3479H16.3335H16.319H16.3046H16.2902H16.2758H16.2614H16.247H16.2326H16.2182H16.2038H16.1894H16.1751H16.1607H16.1464H16.132H16.1177H16.1034H16.0891H16.0747H16.0604H16.0461H16.0318H16.0175H16.0033H15.989H15.9747H15.9605H15.9462H15.9319H15.9177H15.9035H15.8892H15.875H15.8608H15.8465H15.8323H15.8181H15.8039H15.7897H15.7755H15.7613H15.7471H15.733H15.7188H15.7046H15.6905H15.6763H15.6621H15.648H15.6338H15.6197H15.6055H15.5914H15.5773H15.5631H15.549H15.5349H15.5207H15.5066H15.4925H15.4784H15.4643H15.4502H15.4361H15.422H15.4079H15.3938H15.3797H15.3656H15.3515H15.3374H15.3233H15.3092H15.2951H15.2811H15.267H15.2529H15.2388H15.2248H15.2107H15.1966H15.1825H15.1685H15.1544H15.1403H15.1263H15.1122H15.0981H15.0841H15.07H15.056H15.0419H15.0278H15.0138H14.9997H14.9856H14.9716H14.9575H14.9434H14.9294H14.9153H14.9013H14.8872H14.8731H14.8591H14.845H14.8309H14.8169H14.8028H14.7887H14.7746H14.7606H14.7465H14.7324H14.7183H14.7043H14.6902H14.6761H14.662H14.6479H14.6338H14.6197H14.6056H14.5915H14.5774H14.5633H14.5492H14.5351H14.521H14.5069H14.4928H14.4787H14.4645H14.4504H14.4363H14.4221H14.408H14.3939H14.3797H14.3656H14.3514H14.3373H14.3231H14.309H14.2948H14.2806H14.2664H14.2523H14.2381H14.2239H14.2097H14.1955H14.1813H14.1671H14.1529H14.1386H14.1244H14.1102H14.0959H14.0817H14.0675H14.0532H14.039H14.0247H14.0104H13.9961H13.9819H13.9676H13.9533H13.939H13.9247H13.9104H13.896H13.8817H13.8674H13.853H13.8387H13.8243H13.81H13.7956H13.7812H13.7668H13.7525H13.7381H13.7236H13.7092H13.6948H13.6804H13.6659H13.6515H13.637H13.6226H13.6081H13.5936H13.5791H13.5647H13.5501H13.5356H13.5211H13.5066H13.492H13.4775H13.4629H13.4484H13.4338H13.4192H13.4046H13.39H13.3754H13.3608H13.3461H13.3315H13.3168H13.3022H13.2875H13.2728H13.2581H13.2434H13.2287H13.214H13.1992H13.1845H13.1697H13.1549H13.1402H13.1254H13.1106H13.0957H13.0809H13.0661H13.0512H13.0364H13.0215H13.0066H12.9917H12.9768H12.9619H12.9469H12.932H12.917H12.9021H12.8871H12.8721H12.8571H12.8421H12.827H12.812H12.7969H12.7818H12.7668H12.7517H12.7365H12.7214H12.7063H12.6911H12.676H12.6608H12.6456H12.6304H12.6151H12.5999H12.5847H12.5694H12.5541H12.5388H12.5235H12.5082H12.4928H12.4775H12.4621H12.4467H12.4313H12.4159H12.4005H12.385H12.3696H12.3541H12.3386H12.3231H12.3076H12.2921H12.2765H12.2609H12.2453H12.2297H12.2141H12.1985H12.1828H12.1672H12.1515H12.1358H12.1201H12.1043H12.0886H12.0728H12.057H12.0412H12.0254H12.0095H11.9937H11.9778H11.9619H11.946H11.9301H11.9141H11.8982H11.8822H11.8662H11.8502H11.8341H11.8181H11.802H11.7859H11.7698H11.7537H11.7375H11.7214H11.7052H11.689H11.6727H11.6565H11.6402H11.624H11.6076H11.5913H11.575H11.5586H11.5422H11.5258H11.5094H11.493H11.4765H11.46H11.4435H11.427H11.4105H11.3939H11.3773H11.3607H11.3441H11.3274H11.3108H11.2941H11.2774H11.2606H11.2439H11.2271H11.2103H11.1935H11.1766H11.1598C10.5626 16 10.1574 15.7963 9.90052 15.5287C9.63766 15.2549 9.49984 14.8825 9.49984 14.5C9.49984 14.1174 9.63765 13.7451 9.90052 13.4713C10.1574 13.2037 10.5626 13 11.1598 13Z" stroke="black"/>
<path d="M7.49988 14.5C7.49988 15.3284 6.82831 16 5.99988 16C5.17145 16 4.49988 15.3284 4.49988 14.5C4.49988 13.6716 5.17145 13 5.99988 13C6.82831 13 7.49988 13.6716 7.49988 14.5Z" stroke="black"/>
<path d="M25.4999 14.5C25.4999 15.3284 24.8284 16 23.9999 16C23.1715 16 22.4999 15.3284 22.4999 14.5C22.4999 13.6716 23.1715 13 23.9999 13C24.8284 13 25.4999 13.6716 25.4999 14.5Z" stroke="black"/>
</svg>
