<svg width="27" height="25" viewBox="0 0 27 25" fill="none" xmlns="http://www.w3.org/2000/svg">
<path d="M1.25131 6.11785L0.281171 5.87532L1.25131 6.11785C1.37907 5.60684 1.56236 5.11134 1.79793 4.64021L1.92009 4.3959C2.18619 3.86369 2.53636 3.37786 2.95711 2.95711C3.37786 2.53636 3.86369 2.18619 4.3959 1.92009L4.54296 1.84655C5.06362 1.58622 5.61666 1.39647 6.18747 1.28231L6.52468 1.21487C7.16852 1.0861 7.83148 1.0861 8.47532 1.21487C9.2035 1.3605 9.88982 1.66737 10.4839 2.11293L10.9229 2.44215L11.5229 1.64215L10.9229 2.44215C11.2027 2.65203 11.4673 2.8815 11.7146 3.12884L12.7929 4.20711L13.5 4.91421L14.2071 4.20711L15.2854 3.12884C15.5327 2.8815 15.7973 2.65202 16.0771 2.44215L16.5161 2.11293C17.1102 1.66737 17.7965 1.3605 18.5247 1.21487C19.1685 1.0861 19.8315 1.0861 20.4753 1.21487L20.8125 1.28231C21.3833 1.39647 21.9364 1.58622 22.457 1.84655L22.6041 1.92008C23.1363 2.18619 23.6221 2.53636 24.0429 2.95711C24.4636 3.37786 24.8138 3.86369 25.0799 4.3959L25.2021 4.64021C25.4376 5.11134 25.6209 5.60684 25.7487 6.11785L25.7487 6.11787L25.7655 6.18528C25.7655 6.18529 25.7656 6.18529 25.7656 6.1853C25.9213 6.80816 26 7.44777 26 8.08979V8.47832C26 9.35632 25.8325 10.2263 25.5064 11.0415C25.2545 11.6711 24.9113 12.2601 24.4877 12.7896L23.2537 14.3321L13.8137 23.7721C13.6678 23.918 13.4698 24 13.2634 24C13.0501 24 12.8461 23.9124 12.6992 23.7578L3.7543 14.3421L2.51232 12.7896C2.08872 12.2601 1.74546 11.6711 1.49362 11.0415C1.16753 10.2263 1 9.35632 1 8.47832V8.08979C1 7.44776 1.07874 6.80815 1.23446 6.18528L1.25131 6.11785Z" stroke="black" stroke-width="2"/>
</svg>
