<svg width="3922" height="858" viewBox="0 0 3922 858" fill="none" xmlns="http://www.w3.org/2000/svg">
<path d="M0 0H184V494.5L0 347V0Z" fill="#555555"/>
<path d="M257.499 0L386.499 0.5L416.499 2.5L444.5 6L463.5 9L481 12.5L498 16.5L518 22L536 28L551 33.5L564.5 39L582 47L598 55L611.5 62.5L627 71.5L642.499 82.25L657.499 93L673.5 106.5L693 124.5L708 141.5L713.5 148L721 157.5L729 168.5L738 182L749 200L754 209.5L760 221L770 244L775.5 259L780 273.25L783.5 285.5L787.5 302L790 314L792 326L795 349L796 361L797 382V401.5L795 443L793 459.5L790.5 475L789 483L788 488L786.5 494.5L782 513L777.5 527L775.5 533L773 540L770 548L766.5 556.5L763 564.5L758.5 574L753.5 584L743.5 601.5L736.5 612.5L729.5 623L723 632L716 641.5L702.5 657.5L691 669.5L678 682L665 693.5L646 708.5L631 718.5L618 727L592.499 741.5L569.5 752L556 757.5L547 761L543 762.5L525 768.5L512 772.5L488.5 778.5L464 783.5L440.5 787L418.5 789.5L398.5 791L373.221 792H257.499H0.5L184 641.5H359L381 640.5L396.5 639L416.5 636L426.5 634L433 632.5L439 631L444.5 629.5L451 627.5L460 624.5L468 621.5L474 619L483 615L490 611.5L496.5 608L500 606L505 603L513.5 597.5L524 590L529.5 585.5L537 579L543.5 573L546 570.5L554 562L560.5 554.5L564 550L568.5 544L574 536L579 528L584 519L588 511L592 502L595 494.5L598 486L600.5 478L603.5 467L606 456L607 450.5L607.5 447.5L608.5 441L609 437.5L609.5 433.5L610 429L610.5 423.5L611 416.5L611.5 405V393.5V390V386.5L611 376L610.5 369L609.5 358.5L608 348L606.5 339L604.5 329.5L603 323.5L601 316L600 312.5L597 303.5L595 298L591.5 289.5L586 277.5L578.5 264L573 255.5L569.5 250.5L564 243L560 238L556 233.5L549.5 226.5L547 224L543.5 220.5L541 218L531.5 209.5L528.5 207L523.5 203L515.5 197L512 194.5L501 187.5L488.5 180.5L484.5 178.5L477 175L470 172L465 170L461 168.5L454 166L442.5 162.5L437 161L429 159L422 157.5L411.5 155.5L401.5 154L389 152.5L367 151L323 150.69H257.499V0Z" fill="black"/>
<path d="M1141.74 679.7C1166.94 679.7 1189.14 676.1 1208.34 668.9C1228.14 661.1 1246.44 649.1 1263.24 632.9L1337.94 713.9C1292.34 766.1 1225.74 792.2 1138.14 792.2C1083.54 792.2 1035.24 781.7 993.235 760.7C951.235 739.1 918.835 709.4 896.035 671.6C873.235 633.8 861.835 590.9 861.835 542.9C861.835 495.5 872.935 452.9 895.135 415.1C917.935 376.7 948.835 347 987.835 326C1027.44 304.4 1071.84 293.6 1121.04 293.6C1167.24 293.6 1209.24 303.5 1247.04 323.3C1284.84 342.5 1314.84 370.7 1337.04 407.9C1359.84 444.5 1371.24 488 1371.24 538.4L1013.04 607.7C1023.24 631.7 1039.14 649.7 1060.74 661.7C1082.94 673.7 1109.94 679.7 1141.74 679.7ZM1121.04 399.8C1085.64 399.8 1056.84 411.2 1034.64 434C1012.44 456.8 1000.74 488.3 999.535 528.5L1235.34 482.6C1228.74 457.4 1215.24 437.3 1194.84 422.3C1174.44 407.3 1149.84 399.8 1121.04 399.8ZM1757.21 761.6C1743.41 771.8 1726.31 779.6 1705.91 785C1686.11 789.8 1665.41 792.2 1643.81 792.2C1585.61 792.2 1540.91 777.5 1509.71 748.1C1478.51 718.7 1462.91 675.5 1462.91 618.5V193.7H1603.31V311.6H1723.01V419.6H1603.31V616.7C1603.31 637.1 1608.41 653 1618.61 664.4C1628.81 675.2 1643.51 680.6 1662.71 680.6C1684.31 680.6 1703.51 674.6 1720.31 662.6L1757.21 761.6ZM2312.97 300.8V785H2178.87V729.2C2144.07 771.2 2093.67 792.2 2027.67 792.2C1982.07 792.2 1940.67 782 1903.47 761.6C1866.87 741.2 1838.07 712.1 1817.07 674.3C1796.07 636.5 1785.57 592.7 1785.57 542.9C1785.57 493.1 1796.07 449.3 1817.07 411.5C1838.07 373.7 1866.87 344.6 1903.47 324.2C1940.67 303.8 1982.07 293.6 2027.67 293.6C2089.47 293.6 2137.77 313.1 2172.57 352.1V300.8H2312.97ZM2051.97 677C2087.37 677 2116.77 665 2140.17 641C2163.57 616.4 2175.27 583.7 2175.27 542.9C2175.27 502.1 2163.57 469.7 2140.17 445.7C2116.77 421.1 2087.37 408.8 2051.97 408.8C2015.97 408.8 1986.27 421.1 1962.87 445.7C1939.47 469.7 1927.77 502.1 1927.77 542.9C1927.77 583.7 1939.47 616.4 1962.87 641C1986.27 665 2015.97 677 2051.97 677ZM2442.95 300.8H2583.35V785H2442.95V300.8ZM2513.15 233.3C2487.35 233.3 2466.35 225.8 2450.15 210.8C2433.95 195.8 2425.85 177.2 2425.85 155C2425.85 132.8 2433.95 114.2 2450.15 99.2C2466.35 84.2 2487.35 76.6999 2513.15 76.6999C2538.95 76.6999 2559.95 83.9 2576.15 98.3C2592.35 112.7 2600.45 130.7 2600.45 152.3C2600.45 175.7 2592.35 195.2 2576.15 210.8C2559.95 225.8 2538.95 233.3 2513.15 233.3ZM2887.36 792.2C2832.76 792.2 2790.16 777.8 2759.56 749C2728.96 719.6 2713.66 678.2 2713.66 624.8V117.2H2854.06V616.7C2854.06 637.1 2859.16 653 2869.36 664.4C2880.16 675.2 2895.16 680.6 2914.36 680.6C2921.56 680.6 2928.76 679.7 2935.96 677.9C2943.76 676.1 2949.76 674 2953.96 671.6L2960.26 780.5C2936.86 788.3 2912.56 792.2 2887.36 792.2ZM3264.29 679.7C3289.49 679.7 3311.69 676.1 3330.89 668.9C3350.69 661.1 3368.99 649.1 3385.79 632.9L3460.49 713.9C3414.89 766.1 3348.29 792.2 3260.69 792.2C3206.09 792.2 3157.79 781.7 3115.79 760.7C3073.79 739.1 3041.39 709.4 3018.59 671.6C2995.79 633.8 2984.39 590.9 2984.39 542.9C2984.39 495.5 2995.49 452.9 3017.69 415.1C3040.49 376.7 3071.39 347 3110.39 326C3149.99 304.4 3194.39 293.6 3243.59 293.6C3289.79 293.6 3331.79 303.5 3369.59 323.3C3407.39 342.5 3437.39 370.7 3459.59 407.9C3482.39 444.5 3493.79 488 3493.79 538.4L3135.59 607.7C3145.79 631.7 3161.69 649.7 3183.29 661.7C3205.49 673.7 3232.49 679.7 3264.29 679.7ZM3243.59 399.8C3208.19 399.8 3179.39 411.2 3157.19 434C3134.99 456.8 3123.29 488.3 3122.09 528.5L3357.89 482.6C3351.29 457.4 3337.79 437.3 3317.39 422.3C3296.99 407.3 3272.39 399.8 3243.59 399.8ZM3722.27 364.7C3739.07 341.3 3761.57 323.6 3789.77 311.6C3818.57 299.6 3851.57 293.6 3888.77 293.6V423.2C3873.17 422 3862.67 421.4 3857.27 421.4C3817.07 421.4 3785.57 432.8 3762.77 455.6C3739.97 477.8 3728.57 511.4 3728.57 556.4V785H3588.17V300.8H3722.27V364.7Z" fill="#555555"/>
</svg>
