<svg width="22" height="22" viewBox="0 0 22 22" fill="none" xmlns="http://www.w3.org/2000/svg">
<path fill-rule="evenodd" clip-rule="evenodd" d="M18.805 5.79049C19.151 5.63434 19.5582 5.78832 19.7143 6.13443C20.1425 7.0833 20.625 8.67174 20.625 11.0005C20.625 13.0094 20.2659 14.4681 19.8917 15.441C19.7049 15.9266 19.5153 16.2889 19.3669 16.5362C19.2927 16.6598 19.2289 16.7546 19.1811 16.8217C19.1571 16.8551 19.1372 16.8817 19.1219 16.9015C19.1142 16.9114 19.1077 16.9196 19.1025 16.9261L19.0956 16.9346L19.0929 16.9379L19.0917 16.9394C19.0917 16.9394 19.0907 16.9406 18.5625 16.5005L19.0907 16.9406C18.8476 17.2322 18.4141 17.2717 18.1224 17.0286C17.8321 16.7867 17.7917 16.3562 18.0308 16.0646C18.0308 16.0646 18.0325 16.0625 18.034 16.0605C18.0389 16.0542 18.0485 16.0416 18.0622 16.0224C18.0894 15.9842 18.133 15.92 18.1879 15.8288C18.2972 15.6464 18.4514 15.3555 18.6083 14.9474C18.9217 14.1328 19.25 12.8415 19.25 11.0005C19.25 8.86798 18.8095 7.4722 18.461 6.69991C18.3048 6.35381 18.4588 5.94666 18.805 5.79049Z" fill="#B8B8B8"/>
<path fill-rule="evenodd" clip-rule="evenodd" d="M16.8794 8.49398C17.2512 8.4168 17.6152 8.65561 17.6923 9.02737C17.7933 9.51363 17.8749 10.1653 17.8749 11.0005C17.8749 12.0181 17.7538 12.763 17.6242 13.2681C17.5595 13.5204 17.493 13.7119 17.4391 13.8468C17.4121 13.9143 17.3883 13.9674 17.3695 14.0069C17.3601 14.0266 17.352 14.0428 17.3454 14.0557L17.3365 14.0726L17.333 14.0791L17.3315 14.0818L17.3307 14.0831C17.3307 14.0831 17.3301 14.0843 16.7291 13.7505L17.3301 14.0843C17.1457 14.4162 16.7272 14.5359 16.3953 14.3514C16.0662 14.1686 15.9458 13.7556 16.1235 13.425L16.1281 13.4157C16.1344 13.4025 16.1464 13.3762 16.1624 13.3361C16.1944 13.2562 16.2425 13.1212 16.2923 12.9266C16.392 12.5379 16.4999 11.9079 16.4999 11.0005C16.4999 10.2555 16.4272 9.6976 16.346 9.30692C16.2689 8.93511 16.5076 8.57117 16.8794 8.49398Z" fill="#B8B8B8"/>
<path d="M19.9652 3.23613C20.2337 2.96765 20.2337 2.53234 19.9652 2.26386C19.6967 1.99538 19.2615 1.99538 18.993 2.26386L14.9146 6.34229C14.8725 5.86237 14.8175 5.43764 14.7372 5.06895C14.5797 4.34623 14.3002 3.71782 13.7141 3.30592C13.4987 3.1545 13.2588 3.03241 13.0096 2.94737C12.2596 2.69142 11.514 2.896 10.7569 3.26384C10.0111 3.62611 9.10624 4.22274 7.97793 4.9667L7.73339 5.12793C7.32281 5.39865 7.18157 5.48913 7.0355 5.5536C6.8791 5.62263 6.71473 5.67194 6.54617 5.7004C6.38872 5.72698 6.22101 5.72919 5.7292 5.72919L5.5816 5.72915C4.4661 5.72855 3.691 5.72815 3.00201 6.04692C2.36511 6.34159 1.75209 6.91837 1.41922 7.53617C1.05931 8.20413 1.01708 8.90266 0.957042 9.89587L0.949791 10.0155C0.929212 10.3531 0.916626 10.687 0.916626 11C0.916626 11.3131 0.929212 11.647 0.949791 11.9846L0.957042 12.1041C1.01708 13.0974 1.05931 13.7959 1.41922 14.4639C1.75209 15.0816 2.36511 15.6585 3.00201 15.9531C3.56168 16.2121 4.17815 16.2604 4.98774 16.2691L2.49299 18.7639C2.22451 19.0324 2.22451 19.4676 2.49299 19.7361C2.76147 20.0046 3.19678 20.0046 3.46526 19.7361L19.9652 3.23613Z" fill="#B8B8B8"/>
<path d="M15.1249 11C15.1249 10.6203 14.8171 10.3125 14.4374 10.3125C14.2591 10.3125 14.0965 10.3804 13.9743 10.4919L13.909 10.5603L8.4103 16.3113C8.09362 16.6424 8.167 17.1821 8.56062 17.4168C9.51283 18.0407 10.301 18.5393 10.9728 18.8366C11.6532 19.1375 12.3294 19.2847 13.0095 19.0526C13.2588 18.9676 13.4987 18.8456 13.7141 18.6941C14.3614 18.2393 14.6353 17.5206 14.7838 16.6961C14.9297 15.8855 14.9796 14.8111 15.0417 13.4729L15.0442 13.4202C15.0917 12.3981 15.1249 11.506 15.1249 11Z" fill="#B8B8B8"/>
</svg>
