<svg width="22" height="22" viewBox="0 0 22 22" fill="none" xmlns="http://www.w3.org/2000/svg">
<path fill-rule="evenodd" clip-rule="evenodd" d="M14.1112 1.66596C14.3976 1.37958 14.8619 1.37958 15.1483 1.66596L16.704 3.22159L18.7781 5.29577L20.3337 6.8514C20.6201 7.1378 20.6201 7.60212 20.3337 7.8885C20.0474 8.17488 19.5831 8.17488 19.2966 7.8885L18.3389 6.93075L13.0053 14.0422L14.6298 15.6667C14.9161 15.9531 14.9161 16.4174 14.6298 16.7037C14.3434 16.9902 13.879 16.9902 13.5927 16.7037L11.5185 14.6296L9.96285 13.074L5.16631 17.8705C4.87993 18.1569 4.4156 18.1569 4.12921 17.8705C3.84283 17.5842 3.84283 17.1198 4.12921 16.8334L8.92576 12.0369L7.37012 10.4812L5.29595 8.40704C5.00957 8.12066 5.00955 7.65634 5.29595 7.36996C5.58233 7.08358 6.04665 7.08358 6.33303 7.36996L7.95748 8.99441L15.0689 3.6608L14.1112 2.70305C13.8248 2.41667 13.8248 1.95234 14.1112 1.66596Z" fill="#B8B8B8"/>
<path fill-rule="evenodd" clip-rule="evenodd" d="M14.1112 1.66596C14.3976 1.37958 14.8619 1.37958 15.1483 1.66596L16.704 3.22159L18.7781 5.29577L20.3337 6.8514C20.6201 7.1378 20.6201 7.60212 20.3337 7.8885C20.0474 8.17488 19.5831 8.17488 19.2966 7.8885L18.3389 6.93075L13.0053 14.0422L14.6298 15.6667C14.9161 15.9531 14.9161 16.4174 14.6298 16.7037C14.3434 16.9902 13.879 16.9902 13.5927 16.7037L11.5185 14.6296L9.96285 13.074L5.16631 17.8705C4.87993 18.1569 4.4156 18.1569 4.12921 17.8705C3.84283 17.5842 3.84283 17.1198 4.12921 16.8334L8.92576 12.0369L7.37012 10.4812L5.29595 8.40704C5.00957 8.12066 5.00955 7.65634 5.29595 7.36996C5.58233 7.08358 6.04665 7.08358 6.33303 7.36996L7.95748 8.99441L15.0689 3.6608L14.1112 2.70305C13.8248 2.41667 13.8248 1.95234 14.1112 1.66596Z" fill="#B8B8B8"/>
</svg>
