<svg width="33" height="38" viewBox="0 0 33 38" fill="none" xmlns="http://www.w3.org/2000/svg">
<path d="M25.7045 13.3465C28.7041 15.2211 30.2037 16.1584 30.7181 17.3586C31.1672 18.4065 31.1672 19.593 30.7181 20.6411C30.2037 21.8411 28.7041 22.7784 25.7045 24.6532L11.6166 33.4582C8.28756 35.5388 6.62302 36.5792 5.2494 36.4686C4.05206 36.3724 2.9545 35.7642 2.23829 34.7999C1.41663 33.6936 1.41663 31.7307 1.41663 27.8049V10.1948C1.41663 6.26901 1.41663 4.30614 2.23829 3.19982C2.9545 2.23549 4.05206 1.62718 5.2494 1.53091C6.62302 1.42049 8.28756 2.46082 11.6166 4.54149L25.7045 13.3465Z" stroke="white" stroke-width="2" stroke-linejoin="round"/>
</svg>
