<svg width="21" height="26" viewBox="0 0 21 26" fill="none" xmlns="http://www.w3.org/2000/svg">
<path d="M4.00167 7.75H4.02936H4.05702H4.08466H4.11227H4.13985H4.1674H4.19493H4.22243H4.24991H4.27735H4.30478H4.33217H4.35955H4.38689H4.41421H4.4415H4.46877H4.49602H4.52323H4.55043H4.57759H4.60474H4.63185H4.65895H4.68602H4.71306H4.74008H4.76707H4.79405H4.82099H4.84792H4.87481H4.90169H4.92854H4.95537H4.98217H5.00896H5.03571H5.06245H5.08916H5.11585H5.14252H5.16916H5.19578H5.22238H5.24895H5.27551H5.30204H5.32855H5.35504H5.3815H5.40795H5.43437H5.46077H5.48715H5.51351H5.53984H5.56616H5.59245H5.61873H5.64498H5.67121H5.69742H5.72362H5.74979H5.77594H5.80207H5.82818H5.85427H5.88034H5.90639H5.93242H5.95843H5.98442H6.0104H6.03635H6.06228H6.0882H6.1141H6.13997H6.16583H6.19167H6.2175H6.2433H6.26909H6.29485H6.3206H6.34633H6.37205H6.39774H6.42342H6.44908H6.47473H6.50035H6.52596H6.55155H6.57713H6.60269H6.62823H6.65375H6.67926H6.70475H6.73023H6.75569H6.78113H6.80655H6.83197H6.85736H6.88274H6.9081H6.93345H6.95879H6.9841H7.00941H7.03469H7.05997H7.08522H7.11047H7.13569H7.16091H7.18611H7.21129H7.23646H7.26162H7.28676H7.31189H7.337H7.36211H7.38719H7.41227H7.43733H7.46238H7.48741H7.51243H7.53744H7.56243H7.58742H7.61239H7.63734H7.66229H7.68722H7.71214H7.73705H7.76195H7.78683H7.81171H7.83657H7.86142H7.88626H7.91108H7.9359H7.9607H7.9855H8.01028H8.03505H8.05981H8.08456H8.1093H8.13403H8.15875H8.18346H8.20816H8.23285H8.25752H8.28219H8.30685H8.3315H8.35614H8.38078H8.4054H8.43001H8.45461H8.47921H8.5038H8.52837H8.55294H8.5775H8.60205H8.6266H8.65113H8.67566H8.70018H8.72469H8.7492H8.77369H8.79818H8.82266H8.84714H8.8716H8.89606H8.92052H8.94496H8.9694H8.99383H9.01826H9.04268H9.06709H9.0915H9.1159H9.14029H9.16468H9.18906H9.21344H9.23781H9.26218H9.28654H9.31089H9.33524H9.35959H9.38393H9.40826H9.43259H9.45692H9.48124H9.50555H9.52987H9.55417H9.57848H9.60278H9.62707H9.65137H9.67565H9.69994H9.72422H9.7485H9.77277H9.79704H9.82131H9.84558H9.86984H9.8941H9.91835H9.94261H9.96686H9.99111H10.0154H10.0396H10.0638H10.0881H10.1123H10.1366H10.1608H10.185H10.2093H10.2335H10.2577H10.282H10.3062H10.3304H10.3546H10.3789H10.4031H10.4273H10.4515H10.4758H10.5H10.5242H10.5485H10.5727H10.5969H10.6211H10.6454H10.6696H10.6938H10.718H10.7423H10.7665H10.7907H10.815H10.8392H10.8634H10.8877H10.9119H10.9362H10.9604H10.9846H11.0089H11.0331H11.0574H11.0816H11.1059H11.1302H11.1544H11.1787H11.203H11.2272H11.2515H11.2758H11.3001H11.3243H11.3486H11.3729H11.3972H11.4215H11.4458H11.4701H11.4944H11.5188H11.5431H11.5674H11.5917H11.6161H11.6404H11.6648H11.6891H11.7135H11.7378H11.7622H11.7866H11.8109H11.8353H11.8597H11.8841H11.9085H11.9329H11.9573H11.9817H12.0062H12.0306H12.055H12.0795H12.1039H12.1284H12.1529H12.1773H12.2018H12.2263H12.2508H12.2753H12.2998H12.3243H12.3489H12.3734H12.3979H12.4225H12.4471H12.4716H12.4962H12.5208H12.5454H12.57H12.5946H12.6192H12.6439H12.6685H12.6931H12.7178H12.7425H12.7672H12.7918H12.8165H12.8413H12.866H12.8907H12.9154H12.9402H12.965H12.9897H13.0145H13.0393H13.0641H13.0889H13.1137H13.1386H13.1634H13.1883H13.2132H13.2381H13.2629H13.2879H13.3128H13.3377H13.3627H13.3876H13.4126H13.4376H13.4626H13.4876H13.5126H13.5376H13.5627H13.5877H13.6128H13.6379H13.663H13.6881H13.7132H13.7384H13.7635H13.7887H13.8139H13.8391H13.8643H13.8895H13.9148H13.94H13.9653H13.9906H14.0159H14.0412H14.0665H14.0919H14.1173H14.1426H14.168H14.1934H14.2189H14.2443H14.2698H14.2952H14.3207H14.3462H14.3718H14.3973H14.4229H14.4484H14.474H14.4996H14.5253H14.5509H14.5766H14.6023H14.628H14.6537H14.6794H14.7051H14.7309H14.7567H14.7825H14.8083H14.8342H14.86H14.8859H14.9118H14.9377H14.9636H14.9896H15.0156H15.0416H15.0676H15.0936H15.1197H15.1457H15.1718H15.1979H15.2241H15.2502H15.2764H15.3026H15.3288H15.355H15.3813H15.4075H15.4338H15.4602H15.4865H15.5129H15.5392H15.5656H15.5921H15.6185H15.645H15.6714H15.698H15.7245H15.751H15.7776H15.8042H15.8308H15.8575H15.8841H15.9108H15.9376H15.9643H15.991H16.0178H16.0446H16.0715H16.0983H16.1252H16.1521H16.179H16.206H16.2329H16.2599H16.2869H16.314H16.3411H16.3681H16.3953H16.4224H16.4496H16.4768H16.504H16.5312H16.5585H16.5858H16.6131H16.6405H16.6678H16.6952H16.7226H16.7501H16.7776H16.8051H16.8326H16.8602H16.8877H16.9153H16.943H16.9706H16.9983C18.2415 7.75 19.25 8.7579 19.25 10V16C19.25 17.2426 18.2426 18.25 17 18.25H4C2.75736 18.25 1.75 17.2426 1.75 16V10C1.75 8.7579 2.75849 7.75 4.00167 7.75Z" stroke="#D9D9D9" stroke-width="1.5"/>
<path d="M1 1V1C1 2.65685 2.34315 4 4 4H17C18.6569 4 20 2.65685 20 1V1" stroke="#D9D9D9" stroke-width="1.5" stroke-linecap="round" stroke-linejoin="round"/>
<path d="M20 25L20 24C20 22.3431 18.6569 21 17 21L4 21C2.34315 21 1 22.3431 1 24L1 25" stroke="#D9D9D9" stroke-width="1.5" stroke-linecap="round" stroke-linejoin="round"/>
</svg>
