<svg width="16" height="16" viewBox="0 0 16 16" fill="none" xmlns="http://www.w3.org/2000/svg">
<g clip-path="url(#clip0_172_10110)">
<path d="M3.2073 12.8004L0.540634 10.1671C0.425141 10.049 0.355104 9.89393 0.342904 9.72924C0.330704 9.56454 0.377128 9.40083 0.473967 9.26706C0.527921 9.18672 0.599568 9.11982 0.683406 9.07149C0.767244 9.02315 0.861043 8.99467 0.957601 8.98823C1.05416 8.9818 1.15091 8.99757 1.24042 9.03435C1.32993 9.07113 1.40983 9.12793 1.47397 9.20039L3.67397 11.4004L10.5406 4.53373C10.669 4.43744 10.8278 4.39069 10.9879 4.40207C11.148 4.41344 11.2986 4.48218 11.412 4.59565C11.5255 4.70913 11.5942 4.85973 11.6056 5.0198C11.617 5.17987 11.5703 5.33868 11.474 5.46706L4.14063 12.8004C4.08131 12.8651 4.00919 12.9167 3.92885 12.952C3.84852 12.9873 3.76172 13.0056 3.67397 13.0056C3.58621 13.0056 3.49942 12.9873 3.41908 12.952C3.33875 12.9167 3.26663 12.8651 3.2073 12.8004Z" fill="#0075FF"/>
<path d="M7.37674 13.0338C7.2009 13.0313 7.03316 12.9594 6.91007 12.8338C6.84541 12.7745 6.79378 12.7024 6.75847 12.6221C6.72315 12.5417 6.70491 12.4549 6.70491 12.3672C6.70491 12.2794 6.72315 12.1926 6.75847 12.1123C6.79378 12.032 6.84541 11.9598 6.91007 11.9005L14.277 4.53373C14.4054 4.43744 14.5642 4.39069 14.7243 4.40207C14.8843 4.41344 15.035 4.48218 15.1484 4.59565C15.2619 4.70913 15.3306 4.85973 15.342 5.0198C15.3534 5.17987 15.3066 5.33868 15.2104 5.46706L7.84341 12.8338C7.72032 12.9594 7.55258 13.0313 7.37674 13.0338Z" fill="#0075FF"/>
</g>
<defs>
<clipPath id="clip0_172_10110">
<rect width="16" height="16" fill="white"/>
</clipPath>
</defs>
</svg>
