<svg width="35" height="35" viewBox="0 0 35 35" fill="none" xmlns="http://www.w3.org/2000/svg">
<path d="M16.7713 17.4999H7.9023M7.65091 18.6625L6.18564 23.0395C5.38312 25.4367 4.98186 26.6353 5.26982 27.3734C5.51988 28.0145 6.05697 28.5004 6.71971 28.6855C7.48287 28.8984 8.63554 28.3796 10.9409 27.3423L25.7202 20.6916C27.9704 19.6789 29.0955 19.1728 29.4432 18.4694C29.7453 17.8584 29.7453 17.1413 29.4432 16.5303C29.0955 15.827 27.9704 15.3207 25.7202 14.3081L10.9154 7.64598C8.61699 6.61172 7.46781 6.09458 6.7054 6.30672C6.04329 6.49095 5.50626 6.97563 5.25532 7.61545C4.96637 8.35218 5.36334 9.5482 6.1573 11.9403L7.65376 16.4489C7.79011 16.8597 7.8583 17.0652 7.88521 17.2752C7.9091 17.4617 7.90885 17.6504 7.88449 17.8368C7.85703 18.0468 7.78833 18.252 7.65091 18.6625Z" stroke="black" stroke-width="2" stroke-linecap="round" stroke-linejoin="round"/>
</svg>
