<svg width="16" height="16" viewBox="0 0 16 16" fill="none" xmlns="http://www.w3.org/2000/svg">
<g clip-path="url(#clip0_172_10144)">
<path d="M4.86624 12.4L2.19957 9.76667C2.08408 9.64862 2.01404 9.49354 2.00184 9.32885C1.98964 9.16415 2.03606 9.00044 2.1329 8.86667C2.18686 8.78633 2.2585 8.71943 2.34234 8.67109C2.42618 8.62276 2.51998 8.59428 2.61654 8.58784C2.71309 8.58141 2.80984 8.59718 2.89936 8.63396C2.98887 8.67074 3.06876 8.72754 3.1329 8.8L5.3329 11L12.1996 4.13333C12.328 4.03705 12.4868 3.9903 12.6468 4.00168C12.8069 4.01305 12.9575 4.08179 13.071 4.19526C13.1844 4.30874 13.2532 4.45934 13.2646 4.61941C13.2759 4.77948 13.2292 4.93829 13.1329 5.06667L5.79957 12.4C5.74024 12.4647 5.66812 12.5163 5.58779 12.5516C5.50745 12.5869 5.42066 12.6052 5.3329 12.6052C5.24515 12.6052 5.15835 12.5869 5.07802 12.5516C4.99768 12.5163 4.92556 12.4647 4.86624 12.4Z" fill="#0075FF"/>
</g>
<defs>
<clipPath id="clip0_172_10144">
<rect width="16" height="16" fill="white"/>
</clipPath>
</defs>
</svg>
