<svg width="26" height="28" viewBox="0 0 26 28" fill="none" xmlns="http://www.w3.org/2000/svg">
<path fill-rule="evenodd" clip-rule="evenodd" d="M21 8.5C22.933 8.5 24.5 6.933 24.5 5C24.5 3.067 22.933 1.5 21 1.5C19.067 1.5 17.5 3.067 17.5 5C17.5 6.933 19.067 8.5 21 8.5ZM21 10C23.7614 10 26 7.76142 26 5C26 2.23858 23.7614 0 21 0C18.2386 0 16 2.23858 16 5C16 5.75254 16.1663 6.46626 16.464 7.10641L9.20674 11.2964C8.31703 9.9149 6.76536 9 5 9C2.23858 9 0 11.2386 0 14C0 16.7614 2.23858 19 5 19C6.45809 19 7.7704 18.3759 8.68436 17.3802L16.2101 21.5612C16.0734 22.0168 16 22.4998 16 23C16 25.7614 18.2386 28 21 28C23.7614 28 26 25.7614 26 23C26 20.2386 23.7614 18 21 18C19.2746 18 17.7533 18.874 16.8547 20.2033L9.52446 16.131C9.82946 15.4845 10 14.7622 10 14C10 13.5406 9.93805 13.0957 9.82206 12.6732L17.2957 8.35832C18.2104 9.36672 19.5313 10 21 10ZM5 17.5C6.933 17.5 8.5 15.933 8.5 14C8.5 12.067 6.933 10.5 5 10.5C3.067 10.5 1.5 12.067 1.5 14C1.5 15.933 3.067 17.5 5 17.5ZM24.5 23C24.5 24.933 22.933 26.5 21 26.5C19.067 26.5 17.5 24.933 17.5 23C17.5 21.067 19.067 19.5 21 19.5C22.933 19.5 24.5 21.067 24.5 23Z" fill="black"/>
</svg>
