<svg width="30" height="22" viewBox="0 0 30 22" fill="none" xmlns="http://www.w3.org/2000/svg">
<path d="M17 5.5L14.8083 5.91174C14.137 6.03784 13.4797 6.22906 12.8456 6.48267V6.48267C11.821 6.89244 10.8673 7.46097 10.0196 8.16738L9.73292 8.40631C8.78202 9.1987 7.95043 10.1242 7.26385 11.1541L6.88319 11.7251C5.83405 13.2988 5.04547 15.0314 4.5478 16.8562L3.81323 19.5495C3.80386 19.5839 3.79912 19.6193 3.79912 19.6549V19.6549C3.79912 20.0613 4.3342 20.2095 4.54324 19.861L5.99968 17.4336C6.03258 17.3787 6.06986 17.3267 6.11117 17.2778L7.9797 15.0696C8.52469 14.4255 9.13088 13.8358 9.78974 13.3088L10.3298 12.8768C10.9725 12.3626 11.6875 11.946 12.4516 11.6404V11.6404C13.3433 11.2837 14.2896 11.083 15.2492 11.0469L16.5 11" stroke="black" stroke-width="2" stroke-linecap="round"/>
<path d="M17 5.5L17 4.76676L17.1263 3.63251C17.2848 2.20891 18.6161 1.21754 20.0254 1.47372V1.47372C20.244 1.51346 20.4563 1.58248 20.6565 1.67894L23.7097 3.15018L26.2258 4.76676L27.3405 5.72164C28.7381 6.919 28.7381 9.08097 27.3404 10.2783L26.2258 11.2331L23.7097 12.8497L20.6564 14.3209C20.4563 14.4174 20.2441 14.4864 20.0255 14.5261L19.8657 14.5552C18.5428 14.7957 17.293 13.8651 17.1442 12.5288L17.061 11.7814C17.0231 11.4409 16.8105 11.1447 16.5 11V11" stroke="black" stroke-width="2" stroke-linecap="round"/>
</svg>
