<svg width="30" height="30" viewBox="0 0 30 30" fill="none" xmlns="http://www.w3.org/2000/svg">
<path d="M11.8422 9.54518L15 1.95297L18.1578 9.54518C18.3378 9.97797 18.7448 10.2737 19.212 10.3111L27.4085 10.9682L21.1637 16.3176C20.8077 16.6225 20.6522 17.101 20.761 17.5569L22.6689 25.5553L15.6516 21.2691C15.2515 21.0248 14.7485 21.0248 14.3484 21.2691L7.33115 25.5553L9.23904 17.5569C9.3478 17.101 9.19233 16.6225 8.83635 16.3176L2.59154 10.9682L10.788 10.3111C11.2552 10.2737 11.6622 9.97797 11.8422 9.54518Z" stroke="#FFBC05" stroke-width="1.5" stroke-linejoin="round"/>
<g clip-path="url(#clip0_1594_70)">
<path d="M14.5383 1.10996C14.7091 0.699318 15.2909 0.699318 15.4617 1.10996L18.8503 9.25715C18.9223 9.43027 19.0851 9.54856 19.272 9.56354L28.0675 10.2687C28.5109 10.3042 28.6906 10.8575 28.3529 11.1468L21.6516 16.8872C21.5092 17.0092 21.447 17.2006 21.4905 17.3829L23.5379 25.9659C23.641 26.3985 23.1704 26.7405 22.7909 26.5086L15.2606 21.9092C15.1006 21.8115 14.8994 21.8115 14.7394 21.9092L7.20913 26.5086C6.82958 26.7405 6.35896 26.3985 6.46215 25.9659L8.50951 17.3829C8.55301 17.2006 8.49083 17.0092 8.34843 16.8872L1.64713 11.1468C1.30936 10.8575 1.48912 10.3042 1.93245 10.2687L10.728 9.56354C10.9149 9.54856 11.0777 9.43027 11.1497 9.25715L14.5383 1.10996Z" fill="#FFBC05"/>
</g>
<defs>
<clipPath id="clip0_1594_70">
<rect width="15" height="30" fill="white"/>
</clipPath>
</defs>
</svg>
