<svg width="29" height="24" viewBox="0 0 29 24" fill="none" xmlns="http://www.w3.org/2000/svg">
<path d="M6.44482 7.89449L8.7801 5.59076L18.7322 15.5428L16.473 17.8821C15.6058 18.78 14.1735 18.8004 13.2812 17.9275L11.3081 15.9975L10.7779 15.4789L10.2534 16.0034L9.91038 16.3463C9.77971 16.477 9.65888 16.6172 9.54887 16.7657L7.19021 19.9493L6.62771 20.6469C6.22348 21.1481 5.72281 21.5632 5.15536 21.8675L4.53118 22.1796C4.33646 22.2769 4.13168 22.3527 3.92048 22.4055L3.52252 22.505C2.96042 22.6455 2.36513 22.5424 1.88305 22.221C1.65714 22.0704 1.4633 21.8766 1.31269 21.6506L1.29313 21.6213C0.972417 21.1402 0.850912 20.5488 0.955101 19.9781C0.994535 19.762 1.06562 19.552 1.16532 19.3571L1.30419 19.0857C1.50938 18.6847 1.77607 18.3183 2.0946 17.9998L2.49752 17.5968L3.72276 16.6424L6.53494 14.7676C6.68562 14.6671 6.826 14.552 6.95406 14.424L7.81402 13.564L8.33762 13.0404L7.82075 12.5102L6.41378 11.0668C5.55005 10.1807 5.56391 8.7635 6.44482 7.89449ZM19.7837 14.473L9.84701 4.53634L12.5804 1.83012C13.3547 1.0635 14.5888 1.02266 15.4121 1.73641C18.0503 4.02355 21.1492 5.71707 24.4989 6.70227L26.86 7.39672L19.7837 14.473Z" stroke="black" stroke-width="1.5"/>
</svg>
