<svg width="32" height="39" viewBox="0 0 32 39" fill="none" xmlns="http://www.w3.org/2000/svg">
<path d="M31.5 19.5C31.5 24.8097 30.182 29.5686 27.5976 32.987C25.0258 36.3889 21.1744 38.5 16 38.5C10.4309 38.5 6.58741 36.3824 4.11838 32.9941C1.63184 29.5818 0.5 24.8251 0.5 19.5C0.5 14.1749 1.63184 9.41819 4.11838 6.00588C6.58741 2.6176 10.4309 0.5 16 0.5C21.3284 0.5 25.1768 2.61365 27.7085 6.01022C30.2546 9.42621 31.5 14.1844 31.5 19.5Z" stroke="black"/>
<path d="M22.5 19.5C22.5 22.6248 21.9234 25.4062 20.8124 27.3871C19.711 29.3509 18.1084 30.5 16 30.5C13.7145 30.5 12.1182 29.3426 11.0648 27.394C9.99588 25.4165 9.5 22.6363 9.5 19.5C9.5 16.3637 9.99588 13.5835 11.0648 11.606C12.1182 9.65745 13.7145 8.5 16 8.5C18.1775 8.5 19.7777 9.6524 20.8603 11.6102C21.9549 13.5898 22.5 16.3708 22.5 19.5Z" stroke="black"/>
</svg>
