<svg width="23" height="21" viewBox="0 0 23 21" fill="none" xmlns="http://www.w3.org/2000/svg">
<path d="M14.3929 5.14286C14.3929 7.56896 12.4261 9.53571 10 9.53571C7.57393 9.53571 5.60718 7.56896 5.60718 5.14286C5.60718 2.71675 7.57393 0.75 10 0.75C12.4261 0.75 14.3929 2.71675 14.3929 5.14286Z" stroke="black" stroke-width="1.5"/>
<path d="M14.3929 5.14286C14.3929 7.56896 12.4261 9.53571 10 9.53571C7.57393 9.53571 5.60718 7.56896 5.60718 5.14286C5.60718 2.71675 7.57393 0.75 10 0.75C12.4261 0.75 14.3929 2.71675 14.3929 5.14286Z" stroke="black" stroke-width="1.5"/>
<path d="M14.3929 5.14286C14.3929 7.56896 12.4261 9.53571 10 9.53571C7.57393 9.53571 5.60718 7.56896 5.60718 5.14286C5.60718 2.71675 7.57393 0.75 10 0.75C12.4261 0.75 14.3929 2.71675 14.3929 5.14286Z" stroke="black" stroke-width="1.5"/>
<path d="M1 17.6786C2.36572 11.4353 7.8763 8.98159 12.5 10.3175M19 17.6786C18.8043 16.7837 18.5234 15.9667 18.1721 15.2276" stroke="black" stroke-width="1.5" stroke-linecap="round"/>
<path d="M1 17.6786C2.36572 11.4353 7.8763 8.98159 12.5 10.3175M19 17.6786C18.8043 16.7837 18.5234 15.9667 18.1721 15.2276" stroke="black" stroke-width="1.5" stroke-linecap="round"/>
<path d="M1 17.6786C2.36572 11.4353 7.8763 8.98159 12.5 10.3175M19 17.6786C18.8043 16.7837 18.5234 15.9667 18.1721 15.2276" stroke="black" stroke-width="1.5" stroke-linecap="round"/>
<path d="M19.8068 10.487L12.4869 17.7426C12.4532 17.7759 12.4108 17.799 12.3645 17.8092L9.99353 18.3305C9.82657 18.3672 9.67284 18.2293 9.6913 18.0593L9.93878 15.7815C9.94499 15.7243 9.97071 15.671 10.0116 15.6306L17.5382 8.1946C18.1719 7.56851 19.1933 7.57488 19.8191 8.20881C20.4439 8.8417 20.4384 9.86096 19.8068 10.487Z" stroke="black" stroke-width="1.5"/>
</svg>
