<svg width="23" height="28" viewBox="0 0 23 28" fill="none" xmlns="http://www.w3.org/2000/svg">
<path d="M16.4095 22.0041L16.4095 22.0041L16.4005 22.005L16.1494 22.0301C13.0538 22.3396 9.93578 22.3537 6.83751 22.072L6.09498 22.0045L2.19295 21.6143C1.79847 21.5749 1.4424 21.3608 1.22249 21.031C1.07742 20.8133 1 20.5577 1 20.2961V20C1 19.5454 1.13457 19.1009 1.38675 18.7226L2.21872 17.4747C2.67509 16.7901 3.03816 16.0478 3.29833 15.2673L3.40081 14.9598C3.79767 13.7693 4 12.5225 4 11.2675V8.86406C4 7.61559 4.49595 6.41826 5.37875 5.53547C5.82953 5.08468 6.36717 4.73016 6.95908 4.4934L7.16122 4.41255C7.84253 4.14002 8.5696 4 9.3034 4H13.6966C14.4304 4 15.1575 4.14002 15.8388 4.41255L16.0409 4.4934C16.6328 4.73016 17.1705 5.08468 17.6213 5.53547C18.504 6.41826 19 7.61559 19 8.86406V11.2675C19 12.5225 19.2023 13.7693 19.5992 14.9598L19.7017 15.2673C19.9618 16.0478 20.3249 16.7901 20.7813 17.4747L21.6132 18.7227C21.8654 19.1009 22 19.5454 22 20V20.3011C22 20.5594 21.9235 20.8119 21.7803 21.0268C21.5608 21.356 21.2042 21.5682 20.8101 21.604L16.4095 22.0041Z" stroke="black" stroke-width="2"/>
<rect x="9.5" width="4" height="5" rx="2" fill="black"/>
<path d="M8 22.5C8 23.8164 8.27727 24.8556 8.90482 25.6174C10.1639 27.146 12.8361 27.146 14.0952 25.6174C14.7227 24.8556 15 23.8164 15 22.5" stroke="black" stroke-width="2" stroke-linecap="round"/>
</svg>
