<svg width="25" height="28" viewBox="0 0 25 28" fill="none" xmlns="http://www.w3.org/2000/svg">
<path d="M4.5 10.5L3.73913 9.70732V11.2438C3.73913 12.2611 3.56903 13.2712 3.23585 14.2325L3.14604 14.4916C2.93373 15.1041 2.63883 15.6848 2.2695 16.2175L1.50025 17.3272C1.17453 17.797 1 18.3551 1 18.9268V19.1596C1 19.5797 1.12826 19.9899 1.36764 20.3352V20.3352C1.71354 20.8342 2.26162 21.1555 2.86596 21.2136L6.47826 21.561L6.93114 21.6006C9.97047 21.8663 13.0271 21.8405 16.0652 21.561V21.561L15.5 21M6.93478 5.7561L6.02174 4.87805V4.87805C7.53058 4.29764 9.13339 4 10.75 4H13.5242C14.2986 4 15.0663 4.14256 15.789 4.42057L16.0271 4.51216C16.6549 4.75365 17.228 5.11823 17.7128 5.58446V5.58446C18.7019 6.53563 19.2609 7.84866 19.2609 9.22089V11.2438C19.2609 12.2611 19.431 13.2712 19.7641 14.2325L19.9504 14.7697C20.0987 15.1976 20.3048 15.6034 20.5628 15.9756L21.1255 16.7873C21.6752 17.5803 21.8143 18.5877 21.5 19.5V19.5L20.5 18.5" stroke="black" stroke-width="2"/>
<rect x="10" width="4" height="5" rx="2" fill="black"/>
<path d="M8.5 22.5C8.5 23.8164 8.77727 24.8556 9.40482 25.6174C10.6639 27.146 13.3361 27.146 14.5952 25.6174C15.2227 24.8556 15.5 23.8164 15.5 22.5" stroke="black" stroke-width="2" stroke-linecap="round"/>
<path d="M1 3.5L24 25.5" stroke="black" stroke-width="2" stroke-linecap="round"/>
</svg>
