<svg width="30" height="31" viewBox="0 0 30 31" fill="none" xmlns="http://www.w3.org/2000/svg">
<path d="M15 3C11.2748 3 8 6.13401 8 10C8 13.866 11.0199 17 14.7452 17C17.5759 17 19.5 16 21 13.5" stroke="black" stroke-width="2" stroke-linecap="round"/>
<path d="M1 29.5C4.5 13.5 25.5 13.5 29 29.5" stroke="black" stroke-width="2" stroke-linecap="round"/>
<circle cx="22" cy="6" r="5.25" stroke="#FF0000" stroke-width="1.5"/>
<mask id="path-4-inside-1_1127_2" fill="white">
<path d="M21.25 8.25C21.25 7.83579 21.5858 7.5 22 7.5C22.4142 7.5 22.75 7.83579 22.75 8.25C22.75 8.66421 22.4142 9 22 9C21.5858 9 21.25 8.66421 21.25 8.25Z"/>
</mask>
<path d="M21.25 8.25C21.25 7.83579 21.5858 7.5 22 7.5C22.4142 7.5 22.75 7.83579 22.75 8.25C22.75 8.66421 22.4142 9 22 9C21.5858 9 21.25 8.66421 21.25 8.25Z" fill="#FF0000"/>
<path d="M22.75 8.25C22.75 8.66421 22.4142 9 22 9L22 6C20.7574 6 19.75 7.00736 19.75 8.25L22.75 8.25ZM22 9C21.5858 9 21.25 8.66421 21.25 8.25L24.25 8.25C24.25 7.00736 23.2426 6 22 6L22 9ZM21.25 8.25C21.25 7.83579 21.5858 7.5 22 7.5L22 10.5C23.2426 10.5 24.25 9.49264 24.25 8.25L21.25 8.25ZM22 7.5C22.4142 7.5 22.75 7.83579 22.75 8.25L19.75 8.25C19.75 9.49264 20.7574 10.5 22 10.5L22 7.5Z" fill="#FF0000" mask="url(#path-4-inside-1_1127_2)"/>
<path d="M22 6.38879L22 3.49997" stroke="#FF0000" stroke-linecap="round"/>
</svg>
