<svg width="26" height="26" viewBox="0 0 26 26" fill="none" xmlns="http://www.w3.org/2000/svg">
<path fill-rule="evenodd" clip-rule="evenodd" d="M16.25 1.35449H11.8556C9.86465 1.35447 8.28771 1.35446 7.05356 1.52039C5.78344 1.69115 4.75541 2.05095 3.94468 2.86167C3.13395 3.6724 2.77416 4.70043 2.6034 5.97055C2.43747 7.2047 2.43748 8.78163 2.4375 10.7725V17.3337C2.4375 19.3619 3.92389 21.043 5.8668 21.3471C6.01627 22.1747 6.30232 22.8812 6.87738 23.4563C7.52946 24.1084 8.35049 24.3889 9.3256 24.5199C10.2648 24.6462 11.459 24.6462 12.9405 24.6462H16.3095C17.791 24.6462 18.9852 24.6462 19.9244 24.5199C20.8996 24.3889 21.7205 24.1084 22.3727 23.4563C23.0247 22.8042 23.3052 21.9832 23.4363 21.0081C23.5625 20.0689 23.5625 18.8747 23.5625 17.3931V11.8575C23.5625 10.376 23.5625 9.18181 23.4363 8.2426C23.3052 7.26748 23.0247 6.44645 22.3727 5.79437C21.7975 5.21932 21.0911 4.93326 20.2634 4.7838C19.9593 2.84088 18.2782 1.35449 16.25 1.35449ZM18.5567 4.62743C18.2287 3.66874 17.3199 2.97949 16.25 2.97949H11.9167C9.85094 2.97949 8.38339 2.98122 7.27009 3.1309C6.18016 3.27743 5.5522 3.55224 5.09373 4.01072C4.63525 4.46919 4.36044 5.09715 4.21391 6.18708C4.06422 7.30038 4.0625 8.76794 4.0625 10.8337V17.3337C4.0625 18.4036 4.75176 19.3124 5.71043 19.6404C5.68748 18.9797 5.68749 18.2325 5.6875 17.3931V11.8575C5.68748 10.376 5.68746 9.18181 5.81373 8.2426C5.94484 7.26748 6.2253 6.44645 6.87738 5.79437C7.52946 5.14229 8.35049 4.86183 9.3256 4.73072C10.2648 4.60445 11.459 4.60447 12.9405 4.60449H16.3095C17.1488 4.60448 17.896 4.60447 18.5567 4.62743ZM8.02643 6.94342C8.32625 6.6436 8.74721 6.44811 9.54213 6.34124C10.3604 6.23121 11.445 6.22949 13 6.22949H16.25C17.805 6.22949 18.8895 6.23121 19.7079 6.34124C20.5028 6.44811 20.9237 6.6436 21.2236 6.94342C21.5235 7.24324 21.7189 7.6642 21.8258 8.45912C21.9358 9.27742 21.9375 10.362 21.9375 11.917V17.3337C21.9375 18.8887 21.9358 19.9732 21.8258 20.7915C21.7189 21.5865 21.5235 22.0074 21.2236 22.3072C20.9237 22.6071 20.5028 22.8025 19.7079 22.9095C18.8895 23.0194 17.805 23.0212 16.25 23.0212H13C11.445 23.0212 10.3604 23.0194 9.54213 22.9095C8.74721 22.8025 8.32625 22.6071 8.02643 22.3072C7.7266 22.0074 7.53112 21.5865 7.42425 20.7915C7.31422 19.9732 7.3125 18.8887 7.3125 17.3337V11.917C7.3125 10.362 7.31422 9.27742 7.42425 8.45912C7.53112 7.6642 7.7266 7.24324 8.02643 6.94342Z" fill="black"/>
</svg>
