<svg width="26" height="26" viewBox="0 0 26 26" fill="none" xmlns="http://www.w3.org/2000/svg">
<path d="M9.07464 16.9176L2.94638 23.0458M12.6688 7.19525L10.9779 8.88621C10.8399 9.02414 10.7709 9.09312 10.6924 9.14791C10.6226 9.19655 10.5474 9.23682 10.4682 9.26787C10.379 9.30285 10.2834 9.32197 10.0921 9.36023L6.12228 10.1542C5.09062 10.3605 4.57479 10.4637 4.33347 10.7357C4.12323 10.9726 4.02722 11.2897 4.07072 11.6034C4.12065 11.9637 4.49262 12.3356 5.23657 13.0795L12.9128 20.7558C13.6567 21.4997 14.0287 21.8716 14.3888 21.9215C14.7026 21.9651 15.0197 21.8691 15.2566 21.6588C15.5286 21.4175 15.6317 20.9017 15.8381 19.87L16.6321 15.9002C16.6703 15.709 16.6894 15.6133 16.7244 15.524C16.7555 15.4449 16.7958 15.3697 16.8444 15.3C16.8991 15.2213 16.9681 15.1524 17.1061 15.0144L18.797 13.3235C18.8852 13.2353 18.9293 13.1912 18.9778 13.1527C19.0208 13.1185 19.0665 13.0876 19.1142 13.0604C19.168 13.0297 19.2253 13.0051 19.3399 12.956L22.0422 11.7979C22.8305 11.46 23.2246 11.2911 23.4037 11.0181C23.5602 10.7794 23.6162 10.4885 23.5596 10.2087C23.4947 9.88876 23.1915 9.58552 22.585 8.97904L17.0132 3.40732C16.4068 2.80083 16.1035 2.4976 15.7836 2.43273C15.5038 2.37602 15.2129 2.43204 14.9742 2.58861C14.7012 2.76766 14.5323 3.16183 14.1944 3.95018L13.0363 6.65239C12.9872 6.76703 12.9626 6.82434 12.932 6.87809C12.9047 6.92583 12.8738 6.97144 12.8396 7.01449C12.8011 7.06296 12.757 7.10706 12.6688 7.19525Z" stroke="black" stroke-width="1.8" stroke-linecap="round" stroke-linejoin="round"/>
</svg>
