<svg width="26" height="26" viewBox="0 0 26 26" fill="none" xmlns="http://www.w3.org/2000/svg">
<path d="M17.3333 5.41699L20.5833 8.66699M20.5833 8.66699L23.8333 5.41699M20.5833 8.66699V2.16699M13.5417 3.25033H8.45C6.62983 3.25033 5.71974 3.25033 5.02453 3.60455C4.413 3.91614 3.91582 4.41333 3.60423 5.02486C3.25 5.72007 3.25 6.63015 3.25 8.45033V17.5503C3.25 19.3705 3.25 20.2805 3.60423 20.9758C3.91582 21.5874 4.413 22.0845 5.02453 22.3961C5.71974 22.7503 6.62983 22.7503 8.45 22.7503H18.4167C19.4242 22.7503 19.9279 22.7503 20.3412 22.6396C21.4627 22.3391 22.3388 21.463 22.6393 20.3415C22.75 19.9282 22.75 19.4245 22.75 18.417M11.375 9.20866C11.375 10.4053 10.405 11.3753 9.20833 11.3753C8.01172 11.3753 7.04167 10.4053 7.04167 9.20866C7.04167 8.01204 8.01172 7.04199 9.20833 7.04199C10.405 7.04199 11.375 8.01204 11.375 9.20866ZM16.2392 12.9116L7.07541 21.2423C6.55997 21.711 6.30226 21.9452 6.27947 22.1482C6.25971 22.3241 6.32715 22.4986 6.46012 22.6155C6.61351 22.7503 6.9618 22.7503 7.6584 22.7503H17.8273C19.3864 22.7503 20.1659 22.7503 20.7782 22.4884C21.5468 22.1596 22.1593 21.5472 22.4881 20.7786C22.75 20.1663 22.75 19.3867 22.75 17.8277C22.75 17.303 22.75 17.0407 22.6927 16.7965C22.6205 16.4895 22.4824 16.202 22.2877 15.9539C22.1328 15.7565 21.928 15.5926 21.5184 15.265L18.488 12.8408C18.078 12.5127 17.8731 12.3487 17.6473 12.2909C17.4483 12.2398 17.239 12.2464 17.0435 12.3099C16.8219 12.3819 16.6277 12.5584 16.2392 12.9116Z" stroke="black" stroke-width="1.8" stroke-linecap="round" stroke-linejoin="round"/>
</svg>
